<?xml version="1.0" standalone="no"?>
<!DOCTYPE svg PUBLIC "-//W3C//DTD SVG 20010904//EN"
 "http://www.w3.org/TR/2001/REC-SVG-20010904/DTD/svg10.dtd">
<svg version="1.0" xmlns="http://www.w3.org/2000/svg"
 width="512.000000pt" height="512.000000pt" viewBox="0 0 512.000000 512.000000"
 preserveAspectRatio="xMidYMid meet">
<metadata>
Created by potrace 1.11, written by Peter Selinger 2001-2013
</metadata>
<g transform="translate(0.000000,512.000000) scale(0.100000,-0.100000)"
fill="#000000" stroke="none">
<path d="M2419 4856 c-2 -2 -38 -6 -79 -10 -270 -22 -534 -98 -795 -226 -318
-157 -560 -355 -809 -661 -61 -74 -176 -262 -236 -384 -126 -257 -203 -527
-229 -810 -9 -93 -7 -411 3 -455 3 -14 8 -45 11 -70 12 -105 50 -265 96 -405
222 -678 763 -1222 1444 -1452 119 -40 236 -69 400 -98 150 -26 523 -26 670 0
359 64 649 175 920 349 135 87 273 202 407 341 297 307 503 701 588 1126 68
334 60 714 -21 1017 -38 145 -52 187 -96 297 -200 499 -579 920 -1056 1175
-242 129 -509 212 -817 255 -50 7 -395 16 -401 11z m-694 -1355 c372 -89 595
-322 642 -671 10 -70 10 -468 1 -540 -24 -178 -94 -324 -216 -448 -100 -103
-227 -173 -384 -213 -77 -20 -114 -22 -495 -26 l-413 -5 0 962 0 962 408 -5
c265 -3 424 -9 457 -16z m1362 -356 l-2 -376 79 3 79 3 45 80 c24 44 54 98 66
120 25 46 246 438 283 503 l24 42 274 0 c151 0 275 -2 275 -5 0 -2 -96 -149
-213 -327 -117 -178 -246 -373 -286 -435 l-73 -112 54 -88 c29 -48 55 -92 58
-98 3 -5 12 -21 21 -35 38 -59 489 -810 489 -815 0 -3 -121 -5 -269 -5 l-270
0 -59 108 c-33 59 -69 125 -82 147 -23 40 -39 69 -98 175 -16 30 -66 118 -109
195 l-79 140 -102 3 c-100 3 -102 2 -103 -20 0 -13 0 -186 -1 -385 l0 -363
-224 0 -224 0 0 960 0 960 224 0 224 0 -1 -375z"/>
<path d="M1309 3148 c0 -15 0 -289 0 -608 0 -319 0 -584 0 -589 1 -9 256 -7
291 2 61 16 80 23 121 43 94 47 163 146 194 276 19 85 20 479 1 570 -31 141
-102 238 -211 288 -77 35 -122 43 -272 45 l-123 2 -1 -29z"/>
</g>
</svg>
