<?xml version="1.0" encoding="utf-8"?>
<!-- Generator: Adobe Illustrator 16.2.1, SVG Export Plug-In . SVG Version: 6.00 Build 0)  -->
<!DOCTYPE svg PUBLIC "-//W3C//DTD SVG 1.1//EN" "http://www.w3.org/Graphics/SVG/1.1/DTD/svg11.dtd">
<svg version="1.1" xmlns="http://www.w3.org/2000/svg" xmlns:xlink="http://www.w3.org/1999/xlink" x="0px" y="0px" width="512px"
	 height="512px" viewBox="0 0 512 512" enable-background="new 0 0 512 512" xml:space="preserve">
<g id="Layer_1">
	<path stroke="#000000" stroke-width="20" stroke-linecap="round" stroke-linejoin="round" stroke-miterlimit="10" d="M481,461
		c0,11.046-8.954,20-20,20H51c-11.046,0-20-8.954-20-20V51c0-11.046,8.954-20,20-20h410c11.046,0,20,8.954,20,20V461z"/>
</g>
<g id="Layer_2">
	<path fill="#FFFFFF" d="M345,415V279h49v-53h-55v-42h55v-55h-88c0,0-32,1.911-32,32.252S274,220,274,220h-31v52h29v143H345z"/>
	<polyline fill="#FFFFFF" points="345,279 272,279 243,279 243,220 394,220 394,279 	"/>
</g>
</svg>
