<?xml version="1.0" encoding="utf-8"?>
<!-- Generator: Adobe Illustrator 16.2.1, SVG Export Plug-In . SVG Version: 6.00 Build 0)  -->
<!DOCTYPE svg PUBLIC "-//W3C//DTD SVG 1.1//EN" "http://www.w3.org/Graphics/SVG/1.1/DTD/svg11.dtd">
<svg version="1.1" xmlns="http://www.w3.org/2000/svg" xmlns:xlink="http://www.w3.org/1999/xlink" x="0px" y="0px" width="512px"
	 height="512px" viewBox="0 0 512 512" enable-background="new 0 0 512 512" xml:space="preserve">
<g id="Layer_1">
	<path stroke="#000000" stroke-width="20" stroke-linecap="round" stroke-linejoin="round" stroke-miterlimit="10" d="M481,461
		c0,11.046-8.954,20-20,20H51c-11.046,0-20-8.954-20-20V51c0-11.046,8.954-20,20-20h410c11.046,0,20,8.954,20,20V461z"/>
</g>
<g id="Layer_2">
	
		<path fill="#FFFFFF" stroke="#000000" stroke-width="15" stroke-linecap="round" stroke-linejoin="round" stroke-miterlimit="10" d="
		M480.5,447.405c0,18.83-8.974,34.095-20.045,34.095H50.544c-11.07,0-20.044-15.265-20.044-34.095V259.884
		c0-18.831,8.974-34.384,20.044-34.384h409.911c11.071,0,20.045,15.553,20.045,34.384V447.405z"/>
	
		<circle fill="#FFFFFF" stroke="#000000" stroke-width="20" stroke-linecap="round" stroke-linejoin="round" stroke-miterlimit="10" cx="256" cy="256" r="116.666"/>
	
		<circle fill="#FFFFFF" stroke="#000000" stroke-width="15" stroke-linecap="round" stroke-linejoin="round" stroke-miterlimit="10" cx="408.202" cy="103.799" r="61.465"/>
</g>
</svg>
