<?xml version="1.0" standalone="no"?>
<!DOCTYPE svg PUBLIC "-//W3C//DTD SVG 1.1//EN" "http://www.w3.org/Graphics/SVG/1.1/DTD/svg11.dtd" >
<svg>
<metadata>
Created by FontForge 20090914 at Fri Aug 21 09:21:31 2015
 By www-data
Copyright (c) 2012 by Font Diner, Inc (diner@fontdiner.com) with Reseved Font Name "Jolly Lodger"
</metadata>
<defs>
<font id="JollyLodger" horiz-adv-x="395" >
  <font-face 
    font-family="Jolly Lodger"
    font-weight="400"
    font-stretch="normal"
    units-per-em="1024"
    panose-1="2 0 0 0 0 0 0 0 0 0"
    ascent="819"
    descent="-205"
    x-height="535"
    cap-height="735.999"
    bbox="-142.996 -254.792 638.584 987.565"
    underline-thickness="51"
    underline-position="-52"
    unicode-range="U+0020-U+FB02"
  />
<missing-glyph horiz-adv-x="195" 
 />
    <glyph glyph-name=".notdef" horiz-adv-x="195" 
 />
    <glyph glyph-name="space" unicode=" " horiz-adv-x="195" 
 />
    <glyph glyph-name="exclam" unicode="!" horiz-adv-x="195" 
d="M157 734c1.33301 -4 1.83203 -19.4961 1.49902 -46.4961s-1.33301 -60 -3 -99s-3.83398 -80.667 -6.50098 -125s-5.5 -86 -8.5 -125s-6 -72 -9 -99s-5.83301 -42.5 -8.5 -46.5c-6.66699 -10.667 -16.667 -16.834 -30 -18.501s-23.333 -1.83398 -30 -0.500977
c-2 0.666992 -4 8 -6 22s-3.83301 32.667 -5.5 56s-3.16699 50 -4.5 80s-2.33301 60.833 -3 92.5l-2 94c-0.666992 31 -1 59.167 -1 84.5s0.333008 46.666 1 63.999s1.66699 28.333 3 33c2.66699 9.33301 9.33398 17.666 20.001 24.999s22.334 12.833 35.001 16.5
s24.5 5 35.5 4s18.167 -4.83301 21.5 -11.5zM139.999 104.004c2.66699 -4.66699 3.83301 -11.166 3.5 -19.499s-1.33301 -17 -3 -26s-4 -17.667 -7 -26s-6.16699 -15.166 -9.5 -20.499c-2.66699 -4 -6.33398 -7.33301 -11.001 -10s-9.66699 -4.5 -15 -5.5
s-10.333 -1.5 -15 -1.5h-11c-4 0.666992 -8.16699 3.66699 -12.5 9s-8 11.833 -11 19.5s-5.16699 16 -6.5 25s-1 17.5 1 25.5c2 7.33301 7.66699 14.166 17 20.499s19.5 11.166 30.5 14.499s21.333 4.83301 31 4.5s15.834 -3.5 18.501 -9.5z" />
    <glyph glyph-name="quotedbl" unicode="&#x22;" horiz-adv-x="307" 
d="M127 724c1.33301 -3.33301 2.16895 -12.834 2.50195 -28.501s0.166016 -34.167 -0.500977 -55.5s-1.5 -44 -2.5 -68s-2.33301 -46.5 -4 -67.5s-3.33398 -38.833 -5.00098 -53.5s-3.5 -23.334 -5.5 -26.001c-2.66699 -3.33301 -6.16699 -5.66602 -10.5 -6.99902
s-8.83301 -2 -13.5 -2s-9 0.333008 -13 1s-7 1.66699 -9 3c-2.66699 0.666992 -5.16699 7.83398 -7.5 21.501s-4.5 30.667 -6.5 51s-3.83301 42.5 -5.5 66.5s-3 46.833 -4 68.5s-1.5 40.5 -1.5 56.5s0.666992 26.667 2 32c2 6.66699 7 12.167 15 16.5
s16.833 6.83301 26.5 7.5s18.667 -0.333008 27 -3s13.5 -7 15.5 -13zM269.003 723.999c1.33301 -4 1.99902 -13.6699 1.99902 -29.0029s-0.166992 -33.666 -0.5 -54.999s-1.16602 -44.166 -2.49902 -68.499s-2.83301 -46.833 -4.5 -67.5s-3.33398 -38.5 -5.00098 -53.5
s-3.5 -23.833 -5.5 -26.5c-5.33301 -7.33301 -13 -10.5 -23 -9.5s-17.333 2.5 -22 4.5c-2.66699 0.666992 -5.16699 7.83398 -7.5 21.501s-4.5 30.667 -6.5 51s-4 42.5 -6 66.5s-3.33301 46.833 -4 68.5s-1.16699 40.667 -1.5 57s0.166992 26.833 1.5 31.5
c2 7.33301 7 13 15 17s16.833 6.5 26.5 7.5s18.834 0.166992 27.501 -2.5s14 -7 16 -13z" />
    <glyph glyph-name="numbersign" unicode="#" horiz-adv-x="506" 
d="M465 527c10 -1.33301 17.5 -5.99707 22.5 -13.9971s7.83301 -16.5 8.5 -25.5s-1.16602 -17.667 -5.49902 -26s-10.833 -13.833 -19.5 -16.5c-4 -1.33301 -13.333 -2.16602 -28 -2.49902s-32.667 -0.5 -54 -0.5c-3.33301 -23.333 -7 -47.166 -11 -71.499
s-7.66699 -48.166 -11 -71.499c15.333 0.666992 28.333 1 39 1s18 -0.666992 22 -2c10 -1.33301 17.5 -6 22.5 -14s7.83301 -16.5 8.5 -25.5s-1.16602 -17.667 -5.49902 -26s-10.833 -13.5 -19.5 -15.5c-4 -1.33301 -13.333 -2.16602 -28 -2.49902
s-32.667 -0.833008 -54 -1.5c-4 -24 -8 -46.5 -12 -67.5l-10.5 -55c-3 -15.667 -5.66699 -28.334 -8 -38.001s-4.16602 -15.5 -5.49902 -17.5c-3.33301 -4.66699 -7.5 -7.83398 -12.5 -9.50098s-10.167 -2.5 -15.5 -2.5s-10.333 0.333008 -15 1s-8 1.66699 -10 3
c-1.33301 0.666992 -1.83301 6 -1.5 16s1.16602 23.167 2.49902 39.5s3.16602 35.666 5.49902 57.999s5.16602 46.5 8.49902 72.5c-15.333 0.666992 -31 1 -47 1s-31.667 0.333008 -47 1c-4 -24.667 -8 -47.5 -12 -68.5l-10.5 -55.5c-3 -16 -5.66699 -28.833 -8 -38.5
s-4.16602 -15.5 -5.49902 -17.5c-3.33301 -4.66699 -7.5 -7.83398 -12.5 -9.50098s-10.167 -2.5 -15.5 -2.5s-10.333 0.333008 -15 1s-8 1.66699 -10 3c-1.33301 0.666992 -1.83301 6 -1.5 16s1.16602 23.5 2.49902 40.5s3.16602 37 5.49902 60s5.16602 47.833 8.49902 74.5
c-24 1.33301 -43.667 2.5 -59 3.5s-24.666 2.16699 -27.999 3.5c-10 5.33301 -14.167 12.833 -12.5 22.5s4.16699 16.834 7.5 21.501c1.33301 2 11.333 4.5 30 7.5s42 5.5 70 7.5c3.33301 27.333 6.5 54.666 9.5 81.999s6.16699 54.333 9.5 81
c-21.333 1.33301 -39 2.66602 -53 3.99902s-22.667 2.66602 -26 3.99902c-9.33301 5.33301 -13.166 12.666 -11.499 21.999s4.16699 16.666 7.5 21.999c1.33301 2 10.666 4.16699 27.999 6.5s38.666 4.5 63.999 6.5l9.5 67l8 54.5l6 39
c1.66699 10.333 3.16699 16.833 4.5 19.5c2.66699 7.33301 8.16699 13.5 16.5 18.5s17.333 8.33301 27 10s18.334 1.5 26.001 -0.5s12.167 -6 13.5 -12c0.666992 -4.66699 -1.33301 -24.5 -6 -59.5s-11 -78.167 -19 -129.5c14 1.33301 28.167 2.33301 42.5 3l41.5 2
c2.66699 22 5.5 42.667 8.5 62l8 51l6 36.5c1.66699 9.66699 2.83398 15.834 3.50098 18.501c2.66699 7.33301 8.16699 13.5 16.5 18.5s17.333 8.33301 27 10s18.334 1.5 26.001 -0.5s12.167 -6 13.5 -12c0 -2 -0.5 -8 -1.5 -18s-2.5 -23 -4.5 -39l-7 -55.5
c-2.66699 -21 -6 -43.833 -10 -68.5c15.333 0.666992 28.666 1 39.999 1s19 -0.333008 23 -1zM197 290.003c14.667 1.33301 29.666 2.33301 44.999 3s30.333 1.66699 45 3c3.33301 24 6.33301 48.333 9 73s5.66699 49 9 73c-13.333 0.666992 -27.166 1 -41.499 1
s-28.5 0.333008 -42.5 1l-12 -77z" />
    <glyph glyph-name="dollar" unicode="$" horiz-adv-x="328" 
d="M125 487c0 -4 4.16895 -10.666 12.502 -19.999l30.5 -34l39 -43c14 -15.333 27.167 -30.5 39.5 -45.5s22.666 -29.333 30.999 -43s12.833 -25.167 13.5 -34.5c0.666992 -11.333 -2 -25.833 -8 -43.5s-13.833 -34.834 -23.5 -51.501s-20 -31.334 -31 -44.001
s-20.833 -20 -29.5 -22c-1.33301 -14.667 -2.5 -26.667 -3.5 -36s-1.83301 -14.666 -2.5 -15.999c-3.33301 -4.66699 -7.33301 -7.83398 -12 -9.50098s-9.66699 -2.5 -15 -2.5s-10.333 0.333008 -15 1s-8.33398 1.66699 -11.001 3c-2 1.33301 -3.5 10.333 -4.5 27
s-2.16699 39 -3.5 67c-10 8 -20.167 16.833 -30.5 26.5s-19.666 18.834 -27.999 27.501s-15.333 16.5 -21 23.5s-9.16699 12.5 -10.5 16.5c-2 6 -3.16699 14 -3.5 24s0 19.667 1 29s2.83301 17.5 5.5 24.5s5.66699 10.5 9 10.5c4 0 11.667 -6.66699 23 -20l37 -44.5l38 -45
c12 -13.667 21 -20.167 27 -19.5c2.66699 0 6 2.33301 10 7s7.66699 10.167 11 16.5s6 12.833 8 19.5s3 12 3 16c-0.666992 6 -5.83398 14.5 -15.501 25.5s-21.667 23.333 -36 37l-46.5 43l-46.5 43c-14.333 13.667 -26.333 26 -36 37s-14.834 19.5 -15.501 25.5
c-0.666992 8 3 22.333 11 43s18 42 30 64s24.667 42.5 38 61.5s25.666 31.167 36.999 36.5c0.666992 11.333 1 20.833 1 28.5s0.333008 12.5 1 14.5c2 7.33301 6.83301 13.5 14.5 18.5s16.167 8.33301 25.5 10s18 1.5 26 -0.5s13 -6 15 -12
c0.666992 -2.66699 1.16699 -11.167 1.5 -25.5s0.5 -33.166 0.5 -56.499c11.333 -6 22.333 -12.667 33 -20s20.167 -14.833 28.5 -22.5s15.166 -15.167 20.499 -22.5s8.33301 -14 9 -20c0.666992 -7.33301 -0.166016 -18.333 -2.49902 -33s-6.16602 -29.334 -11.499 -44.001
s-12.166 -27.5 -20.499 -38.5s-17.833 -16.5 -28.5 -16.5c-8 0 -14.167 6.33301 -18.5 19s-7.83301 27.167 -10.5 43.5s-4.5 32.333 -5.5 48s-2.16699 26.834 -3.5 33.501c-2 3.33301 -5.66699 6.66602 -11 9.99902s-10.333 5 -15 5s-10.167 -4.16699 -16.5 -12.5
s-12.5 -18 -18.5 -29s-10.833 -22 -14.5 -33s-5.5 -19.5 -5.5 -25.5z" />
    <glyph glyph-name="percent" unicode="%" horiz-adv-x="434" 
d="M60 728c9.33301 10 21.167 14.835 35.5 14.502s28.5 -3.16602 42.5 -8.49902s26.5 -11.833 37.5 -19.5s18.167 -13.5 21.5 -17.5c2 -2.66699 3.66699 -9.33398 5 -20.001s2.16602 -23.834 2.49902 -39.501s0.333008 -32.667 0 -51s-1.16602 -36.166 -2.49902 -53.499
s-3.5 -33.5 -6.5 -48.5s-6.5 -26.833 -10.5 -35.5c-6 -13.333 -16 -24 -30 -32s-28.5 -13.333 -43.5 -16s-29.5 -2.66699 -43.5 0s-24 8 -30 16c-4 4.66699 -7 15.167 -9 31.5s-2.83301 35.166 -2.5 56.499s1.5 44.166 3.5 68.499s4.5 47.166 7.5 68.499
s6.5 39.833 10.5 55.5s8 25.834 12 30.501zM84.001 579.002c0 -10.667 -0.162109 -22.333 -0.495117 -35s-0.333008 -24.834 0 -36.501s1 -21.5 2 -29.5s2.83301 -13 5.5 -15c2 -2 6.16699 -3.5 12.5 -4.5s12.666 -0.833008 18.999 0.5s12.166 4.5 17.499 9.5
s8.66602 12.833 9.99902 23.5c0.666992 10.667 0.666992 25.334 0 44.001s-1.83398 37.5 -3.50098 56.5s-3.33398 36.167 -5.00098 51.5s-3.5 25.333 -5.5 30c-1.33301 2.66699 -3.33301 5.33398 -6 8.00098c-2.66699 2 -6 4.16699 -10 6.5s-8.66699 4.16602 -14 5.49902
l-3.5 -2.5c-2.33301 -1.66699 -4.83301 -6.33398 -7.5 -14.001s-5.16699 -19.167 -7.5 -34.5s-3.5 -36.666 -3.5 -63.999zM270.006 323.003c9.33301 10 21.001 14.8291 35.001 14.4961s28 -3.16602 42 -8.49902s26.5 -11.666 37.5 -18.999s18.167 -13 21.5 -17
c2.66699 -4 4.83398 -16.667 6.50098 -38s2.16699 -45.5 1.5 -72.5s-2.5 -53.667 -5.5 -80s-7.83301 -46.166 -14.5 -59.499c-6 -13.333 -15.833 -23.833 -29.5 -31.5s-28 -12.667 -43 -15s-29.5 -2.33301 -43.5 0s-24 7.5 -30 15.5
c-4.66699 5.33301 -7.83398 16 -9.50098 32s-2.33398 34.833 -2.00098 56.5s1.5 44.5 3.5 68.5s4.5 46.667 7.5 68s6.5 39.833 10.5 55.5s8 25.834 12 30.501zM294.007 173.999c0 -10.667 -0.164062 -22.334 -0.49707 -35.001s-0.5 -24.834 -0.5 -36.501
s0.5 -21.5 1.5 -29.5s2.83301 -13 5.5 -15s7 -3.5 13 -4.5s12.167 -0.833008 18.5 0.5s12.166 4.5 17.499 9.5s8.66602 12.833 9.99902 23.5c0.666992 10.667 0.666992 25.334 0 44.001s-1.66699 37.5 -3 56.5s-2.83301 36.167 -4.5 51.5s-3.5 25 -5.5 29
c-1.33301 3.33301 -3.33301 6.33301 -6 9c-6 6 -14 10 -24 12c-4.66699 -2 -8.33398 -7.33301 -11.001 -16c-3.33301 -7.33301 -6 -18.666 -8 -33.999s-3 -37 -3 -65zM29.0098 -17.001c-5.33301 0 -8.33203 5.16602 -8.99902 15.499s0.666016 20.5 3.99902 30.5l95.5 203
l76 158l58.5 119l43 85c28 54.667 48 91.667 60 111c6 8 13.167 15 21.5 21s16.333 10.833 24 14.5s14.334 5.83398 20.001 6.50098s9.16699 0 10.5 -2c2 -2.66699 -2 -15.5 -12 -38.5s-23.833 -52.667 -41.5 -89l-61.5 -122.5l-72.5 -138.5l-74.5 -137.5l-67 -119.5
c-20 -35 -36.833 -63.167 -50.5 -84.5s-21.834 -32 -24.501 -32z" />
    <glyph glyph-name="ampersand" unicode="&#x26;" horiz-adv-x="372" 
d="M428 256c2 -2.66699 3.33887 -6.16211 4.00586 -10.4951s1 -8.83301 1 -13.5s-0.5 -9 -1.5 -13l-2.5 -10c-1.33301 -2.66699 -7.83301 -5.16699 -19.5 -7.5s-25.167 -4.5 -40.5 -6.5c1.33301 -16.667 2.5 -34.334 3.5 -53.001s1.66699 -36.334 2 -53.001
s0.333008 -31.167 0 -43.5s-0.833008 -20.166 -1.5 -23.499c-1.33301 -6 -5.33301 -10.333 -12 -13s-13.667 -4 -21 -4s-14.333 1.33301 -21 4s-11 6.33398 -13 11.001c-0.666992 2 -1.16699 6.5 -1.5 13.5s-0.5 15.5 -0.5 25.5s0.333008 21 1 33l2 37
c-4 -12 -8.83301 -24.833 -14.5 -38.5s-11.667 -26.5 -18 -38.5s-12.666 -22.167 -18.999 -30.5s-11.833 -12.833 -16.5 -13.5c-7.33301 -1.33301 -18.833 -1.5 -34.5 -0.5s-31.5 2.66699 -47.5 5s-30.333 5 -43 8s-20.334 5.83301 -23.001 8.5
s-6.83398 9.16699 -12.501 19.5s-11.5 23.166 -17.5 38.499s-11.333 32.666 -16 51.999s-7.33398 39 -8.00098 59c-0.666992 20.667 -0.833984 41.334 -0.500977 62.001s1.66602 39.667 3.99902 57s6.16602 31.833 11.499 43.5s12.333 18.5 21 20.5
c4 1.33301 8.16699 2.16602 12.5 2.49902s8.5 1.16602 12.5 2.49902c-4 1.33301 -6.33301 2.66602 -7 3.99902c-2.66699 2.66699 -7 8.66699 -13 18s-12 21 -18 35s-11.333 30.167 -16 48.5s-7 37.5 -7 57.5s1 40 3 60s5 38.333 9 55s9.16699 30.5 15.5 41.5
s13.833 17.5 22.5 19.5c26.667 6.66699 54.667 10.334 84 11.001s56.333 -0.5 81 -3.5s45.167 -7.33301 61.5 -13s24.833 -11.167 25.5 -16.5s0 -13.333 -2 -24s-5 -22.334 -9 -35.001s-8.5 -24.834 -13.5 -36.501s-9.83301 -21.167 -14.5 -28.5
c-8.66699 -15.333 -17.5 -29.333 -26.5 -42s-17.167 -18 -24.5 -16c-2.66699 0.666992 -4.83398 4.66699 -6.50098 12s-3 16.333 -4 27s-1.83301 22.167 -2.5 34.5s-1.16699 23.833 -1.5 34.5s-0.833008 19.667 -1.5 27s-1.33398 11.333 -2.00098 12
s-3.16699 1.33398 -7.5 2.00098s-9.33301 1 -15 1s-10.834 -0.333008 -15.501 -1s-8 -2 -10 -4s-5.16699 -7.5 -9.5 -16.5s-9 -20.333 -14 -34s-9.33301 -29.334 -13 -47.001s-5.5 -36.5 -5.5 -56.5c0 -28 3.16699 -51.667 9.5 -71s13.833 -30.666 22.5 -33.999l82 -11
c9.33301 -1.33301 14.333 -5.5 15 -12.5s-0.666016 -14.5 -3.99902 -22.5s-7.66602 -15.167 -12.999 -21.5s-9 -9.5 -11 -9.5c-4 0 -10.167 0.166992 -18.5 0.5s-16.666 0.5 -24.999 0.5s-16 -0.166992 -23 -0.5s-11.5 -1.5 -13.5 -3.5s-4.16699 -8.16699 -6.5 -18.5
s-4.5 -23 -6.5 -38s-3.83301 -32 -5.5 -51s-2.5 -38.5 -2.5 -58.5c0 -14 0.833008 -27.833 2.5 -41.5s4 -25.667 7 -36s6.5 -18.5 10.5 -24.5s8 -8.66699 12 -8c4.66699 0.666992 11.167 6 19.5 16s17 21.333 26 34s17 24.667 24 36s11.167 18.666 12.5 21.999
s3.5 7.5 6.5 12.5l9.5 15.5c-17.333 -1.33301 -28.333 -0.666016 -33 2.00098c-4.66699 2 -8.16699 7.16699 -10.5 15.5s-3.5 17.5 -3.5 27.5s1.16699 19.167 3.5 27.5s5.5 13.5 9.5 15.5c2 1.33301 8 2.16602 18 2.49902s21.833 0 35.5 -1s28.334 -2.16699 44.001 -3.5
s30.167 -3 43.5 -5s24.666 -4 33.999 -6s14.666 -4 15.999 -6z" />
    <glyph glyph-name="quotesingle" unicode="'" horiz-adv-x="166" 
d="M127 724c1.33301 -3.33301 2.16895 -12.834 2.50195 -28.501s0.166016 -34.167 -0.500977 -55.5s-1.5 -44 -2.5 -68s-2.33301 -46.5 -4 -67.5s-3.33398 -38.833 -5.00098 -53.5s-3.5 -23.334 -5.5 -26.001c-2.66699 -3.33301 -6.16699 -5.66602 -10.5 -6.99902
s-8.83301 -2 -13.5 -2s-9 0.333008 -13 1s-7 1.66699 -9 3c-2.66699 0.666992 -5.16699 7.83398 -7.5 21.501s-4.5 30.667 -6.5 51s-3.83301 42.5 -5.5 66.5s-3 46.833 -4 68.5s-1.5 40.5 -1.5 56.5s0.666992 26.667 2 32c2 6.66699 7 12.167 15 16.5
s16.833 6.83301 26.5 7.5s18.667 -0.333008 27 -3s13.5 -7 15.5 -13z" />
    <glyph glyph-name="parenleft" unicode="(" horiz-adv-x="206" 
d="M190 20c5.33301 -3.33301 9.49902 -10 12.499 -20s4.5 -20 4.5 -30s-1.5 -18.833 -4.5 -26.5s-7.83301 -10.834 -14.5 -9.50098c-12.667 2.66699 -25.334 9 -38.001 19s-24.667 22.667 -36 38s-21.166 32.833 -29.499 52.5s-14.166 40.5 -17.499 62.5
c-4.66699 26 -8.66699 56.5 -12 91.5s-6 71.333 -8 109s-3.5 75.167 -4.5 112.5s-1.5 72 -1.5 104s0.333008 59.5 1 82.5s2 39.167 4 48.5c4 18.667 11.333 38 22 58s23.334 38.667 38.001 56s30.667 32.333 48 45s34 21.334 50 26.001c8 2 13.833 -1.16699 17.5 -9.5
s5.33398 -18.5 5.00098 -30.5s-2.33301 -24.333 -6 -37s-8.83398 -22 -15.501 -28l-20 -18c-8 -7.33301 -15.833 -16.833 -23.5 -28.5s-14.5 -26.167 -20.5 -43.5s-9.66699 -38 -11 -62c-1.33301 -18.667 -2.16602 -42.167 -2.49902 -70.5s-0.5 -58.666 -0.5 -90.999
s0.333008 -65 1 -98s1.33398 -63.5 2.00098 -91.5s1.66699 -52.333 3 -73s2.66602 -34.334 3.99902 -41.001c5.33301 -23.333 13.666 -44 24.999 -62s20.666 -29.667 27.999 -35z" />
    <glyph glyph-name="parenright" unicode=")" horiz-adv-x="216" 
d="M26 20c6.66699 5.33301 15.6719 17 27.0049 35s19.666 38.667 24.999 62c1.33301 6.66699 2.66602 20.334 3.99902 41.001s2.5 45 3.5 73s1.83301 58.5 2.5 91.5s1 65.667 1 98s-0.333008 62.666 -1 90.999s-1.66699 51.833 -3 70.5c-1.33301 24 -5 44.667 -11 62
s-12.833 31.833 -20.5 43.5s-15.334 21.167 -23.001 28.5s-14.167 13.333 -19.5 18c-6.66699 6 -11.834 15.333 -15.501 28s-5.5 25 -5.5 37s1.66699 22.167 5 30.5s9 11.5 17 9.5c16 -4.66699 32.5 -13.334 49.5 -26.001s32.833 -27.667 47.5 -45s27.5 -36 38.5 -56
s18.167 -39.333 21.5 -58c2 -9.33301 3.5 -25.5 4.5 -48.5s1.5 -50.5 1.5 -82.5s-0.5 -66.667 -1.5 -104s-2.5 -74.833 -4.5 -112.5s-4.5 -74 -7.5 -109s-6.83301 -65.5 -11.5 -91.5c-4 -22 -10.333 -42.833 -19 -62.5s-18.667 -37.167 -30 -52.5s-23.333 -28 -36 -38
s-25.334 -16.333 -38.001 -19c-6 -1.33301 -10.5 1.83398 -13.5 9.50098s-4.5 16.5 -4.5 26.5s1.5 20 4.5 30s7.16699 16.667 12.5 20z" />
    <glyph glyph-name="asterisk" unicode="*" horiz-adv-x="350" 
d="M303 610c6.66699 -1.33301 12.334 -6.00195 17.001 -14.002s7.66699 -16.667 9 -26s1 -18.166 -1 -26.499s-6 -13.833 -12 -16.5c-3.33301 -1.33301 -12.166 -2.33301 -26.499 -3s-31.5 -1 -51.5 -1c8.66699 -17.333 15.834 -32.166 21.501 -44.499
s9.16699 -20.833 10.5 -25.5c2.66699 -8.66699 2.16699 -17.5 -1.5 -26.5s-8.83398 -16.833 -15.501 -23.5s-13.5 -11.167 -20.5 -13.5s-12.833 -1.16602 -17.5 3.50098c-2.66699 3.33301 -7.66699 12.666 -15 27.999l-27 55l-29.5 -57.5
c-8.33301 -15.667 -13.833 -24.834 -16.5 -27.501c-7.33301 -5.33301 -14.666 -5.5 -21.999 -0.5s-12.666 9.5 -15.999 13.5c-1.33301 3.33301 1.66699 16.5 9 39.5s16.666 50.5 27.999 82.5c-24 1.33301 -45 2.66602 -63 3.99902s-28.667 3.66602 -32 6.99902
c-7.33301 4.66699 -10.833 11.834 -10.5 21.501s1.5 17.167 3.5 22.5c1.33301 3.33301 11.166 6.5 29.499 9.5s40.5 6.16699 66.5 9.5c-11.333 26 -20.833 49 -28.5 69s-11.5 32.333 -11.5 37c0 10.667 3.83301 18.334 11.5 23.001s13.834 7.66699 18.501 9
c2.66699 0.666992 9.5 -8.16602 20.5 -26.499l39.5 -65.5l22.5 55c6.33301 15.333 11.166 25 14.499 29c4.66699 7.33301 11.167 11.5 19.5 12.5s16.166 0 23.499 -3s13.666 -7.5 18.999 -13.5s7.33301 -12.667 6 -20c-0.666992 -5.33301 -4.5 -16.833 -11.5 -34.5
s-15.833 -38.167 -26.5 -61.5c16 1.33301 30 2 42 2s20 -0.666992 24 -2z" />
    <glyph glyph-name="plus" unicode="+" horiz-adv-x="346" 
d="M308 353c7.33301 -2 13.167 -6.99805 17.5 -14.998s7.33301 -16.667 9 -26s1.5 -18.333 -0.5 -27s-6 -14.334 -12 -17.001c-4.66699 -1.33301 -17 -2.33301 -37 -3s-43 -0.666992 -69 0c-2 -29.333 -4 -54.833 -6 -76.5s-4.33301 -34.167 -7 -37.5
c-6 -9.33301 -14.5 -15 -25.5 -17s-18.833 -2.33301 -23.5 -1c-2 0 -4 3.83301 -6 11.5s-4 17.667 -6 30s-3.83301 26.5 -5.5 42.5s-3.16699 32.667 -4.5 50c-27.333 0.666992 -51.666 2 -72.999 4s-33.666 4.66699 -36.999 8c-4 2 -6.83301 5 -8.5 9
s-2.66699 8.16699 -3 12.5s-0.166016 8.66602 0.500977 12.999s1.33398 7.83301 2.00098 10.5c1.33301 3.33301 13.166 6.5 35.499 9.5s48.5 6.16699 78.5 9.5c-1.33301 25.333 -2 47.666 -2 66.999s0.666992 31.666 2 36.999c2 8 7.33301 15 16 21s18.167 10.667 28.5 14
s20 4.83301 29 4.5s14.833 -3.16602 17.5 -8.49902c1.33301 -4 2.16602 -18.167 2.49902 -42.5s-0.166992 -52.5 -1.5 -84.5c21.333 1.33301 40.166 2.33301 56.499 3s27.166 0.333984 32.499 -0.999023z" />
    <glyph glyph-name="comma" unicode="," horiz-adv-x="139" 
d="M126 156c-2 -15.333 -5.16309 -32.1689 -9.49609 -50.502s-9 -35.833 -14 -52.5s-10 -31.5 -15 -44.5s-9.16699 -21.833 -12.5 -26.5c-2.66699 -4 -6.5 -7 -11.5 -9s-10.333 -3 -16 -3s-11.167 1 -16.5 3s-9.33301 5.66699 -12 11c-2 2.66699 -3.16699 11 -3.5 25
s-0.333008 29.167 0 45.5s0.833008 32.333 1.5 48s1.66699 26.834 3 33.501l4 17.5c0.666992 3 1.66699 6.16699 3 9.5c3.33301 8 10.166 15 20.499 21s21.166 10.667 32.499 14s21.666 4.83301 30.999 4.5s15 -3.16602 17 -8.49902
c1.33301 -3.33301 1.66602 -9 0.999023 -17s-1.66699 -15 -3 -21z" />
    <glyph glyph-name="hyphen" unicode="-" horiz-adv-x="346" 
d="M322 273c-3.33301 -1.33301 -12.6689 -2.33008 -28.002 -2.99707s-33.666 -1 -54.999 -1s-44.166 0.5 -68.499 1.5s-47 2 -68 3s-39 2.33301 -54 4s-23.833 3.5 -26.5 5.5c-8 5.33301 -11.833 12.833 -11.5 22.5s1.16602 17.167 2.49902 22.5
c0.666992 2 7.83398 4.5 21.501 7.5s30.667 5.66699 51 8s42.333 4.66602 66 6.99902s46.334 4.16602 68.001 5.49902s40.667 2.16602 57 2.49902s26.833 -0.166992 31.5 -1.5c7.33301 -1.33301 13.166 -6 17.499 -14s7.33301 -16.833 9 -26.5s1.5 -18.667 -0.5 -27
s-6 -13.833 -12 -16.5z" />
    <glyph glyph-name="period" unicode="." horiz-adv-x="123" 
d="M110 194c2 -5.33301 3.00098 -12.1689 3.00098 -20.502s-1 -17 -3 -26s-4.5 -17.667 -7.5 -26s-6.16699 -15.166 -9.5 -20.499c-2.66699 -4 -6.33398 -7.33301 -11.001 -10s-9.66699 -4.5 -15 -5.5s-10.333 -1.5 -15 -1.5h-11c-4 0.666992 -8.16699 3.66699 -12.5 9
s-8 11.833 -11 19.5s-5.16699 16 -6.5 25s-1 17.5 1 25.5s7.66699 15 17 21s19.5 10.667 30.5 14s21.5 4.83301 31.5 4.5s16.333 -3.16602 19 -8.49902z" />
    <glyph glyph-name="slash" unicode="/" horiz-adv-x="326" 
d="M351 734c0 -2.66699 -3.83301 -14.665 -11.5 -35.998s-18 -48.666 -31 -81.999l-45 -112.5l-52.5 -127.5l-53.5 -127l-48.5 -112l-37 -82.5c-10 -21.667 -16.667 -33.834 -20 -36.501c-10.667 -10 -21.334 -15.833 -32.001 -17.5s-18.667 -1.83398 -24 -0.500977
c-2 0.666992 -0.333008 10.5 5 29.5s13 44.333 23 76l35.5 108l42.5 124l44.5 126l41.5 112.5l32 83.5c8.66699 22.333 14.667 35.833 18 40.5c6 9.33301 15.167 17.666 27.5 24.999s24.833 12.833 37.5 16.5s23.834 5 33.501 4s14.5 -4.83301 14.5 -11.5z" />
    <glyph glyph-name="zero" unicode="0" horiz-adv-x="391" 
d="M368 398c-4 -61.333 -10.001 -117.165 -18.001 -167.498s-17 -93.5 -27 -129.5s-20 -64.333 -30 -85s-19 -31.334 -27 -32.001c-7.33301 -1.33301 -19.833 0.166992 -37.5 4.5s-36 10.166 -55 17.499s-36.333 15 -52 23s-24.834 14.667 -27.501 20
c-3.33301 5.33301 -8.33301 18.666 -15 39.999s-13.667 47.833 -21 79.5s-14 66.834 -20 105.501s-9.33301 78 -10 118c-1.33301 40 -2.16602 79.667 -2.49902 119s0.333984 74.666 2.00098 105.999s4.83398 57.333 9.50098 78s11.667 32.667 21 36
c28 9.33301 59.167 12.5 93.5 9.5s66.666 -9.33301 96.999 -19s56 -21.167 77 -34.5s32.167 -25.333 33.5 -36c2 -1.33301 3.83301 -10.333 5.5 -27s3 -37.167 4 -61.5s1.5 -51.166 1.5 -80.499s-0.666992 -57.333 -2 -84zM194.999 51.001
c2.66699 0.666992 7.33105 4.33105 13.998 10.998s13.5 20 20.5 40s13.667 48.333 20 85s10.833 85.667 13.5 147c2.66699 60.667 2.5 111.5 -0.5 152.5s-6.83301 74 -11.5 99s-9.5 43 -14.5 54s-7.83301 17.167 -8.5 18.5c-1.33301 1.33301 -3.5 2.83301 -6.5 4.5
s-6.5 2.66699 -10.5 3s-7.83301 -0.166992 -11.5 -1.5s-6.5 -4 -8.5 -8s-5.16699 -17.167 -9.5 -39.5s-8.66602 -50.333 -12.999 -84s-8 -70.667 -11 -111s-4.16699 -80.166 -3.5 -119.499c0.666992 -28 2.33398 -57 5.00098 -87s5.83398 -57.333 9.50098 -82
s7.66699 -44.667 12 -60s9.16602 -22.666 14.499 -21.999z" />
    <glyph glyph-name="one" unicode="1" horiz-adv-x="264" 
d="M212 744c2.66699 -2 4.49902 -14.1689 5.49902 -36.502s1.33301 -51.166 1 -86.499s-1.16602 -75.166 -2.49902 -119.499s-3 -89.5 -5 -135.5s-4.5 -91.167 -7.5 -135.5s-5.83301 -83.666 -8.5 -117.999s-5.5 -62.166 -8.5 -83.499s-5.83301 -32.333 -8.5 -33
c-4.66699 -1.33301 -10 0.666992 -16 6s-11.667 11.666 -17 18.999s-10.166 15.333 -14.499 24s-6.83301 16 -7.5 22c-4.66699 78.667 -8.16699 147.667 -10.5 207s-4.16602 109.333 -5.49902 150c-1.33301 47.333 -2 88.666 -2 123.999
c-8.66699 -11.333 -16.5 -20.666 -23.5 -27.999s-11.833 -11.333 -14.5 -12c-4 0 -9.83301 3.66699 -17.5 11s-15 16 -22 26s-12.833 20 -17.5 30s-6.33398 17.333 -5.00098 22c0.666992 3.33301 4.66699 8.83301 12 16.5s16.166 16.167 26.499 25.5
s21.333 18.666 33 27.999s22.5 17.333 32.5 24c8 6 17.333 12.5 28 19.5l31 19.5c10 6 19 10.5 27 13.5s13.667 3.16699 17 0.5z" />
    <glyph glyph-name="two" unicode="2" horiz-adv-x="375" 
d="M146 93l86.0039 8.49707c23.333 2.33301 42.166 4.33301 56.499 6s24.666 2.5 30.999 2.5s10.166 -0.333008 11.499 -1c2.66699 -3.33301 2.66699 -9.83301 0 -19.5s-6.66699 -20.167 -12 -31.5s-11.166 -22.333 -17.499 -33s-11.5 -18 -15.5 -22
c-1.33301 -1.33301 -6.66602 -2.5 -15.999 -3.5s-20.833 -1.83301 -34.5 -2.5s-28.667 -1.33398 -45 -2.00098s-31.833 -1.16699 -46.5 -1.5s-27.334 -0.5 -38.001 -0.5s-17.667 0.333008 -21 1c-4.66699 0.666992 -9.16699 3.5 -13.5 8.5s-8.33301 10.667 -12 17
s-6.83398 13.166 -9.50098 20.499s-4.33398 14 -5.00098 20c-0.666992 2 1 9.5 5 22.5l14.5 47.5c5.66699 18.667 12.167 38.834 19.5 60.501l21.5 62.5l18.5 53.5l11 32.5l30.5 89.5c9.66699 29.667 18 56.667 25 81s12.167 45 15.5 62s3.66602 27.5 0.999023 31.5
c-2 2.66699 -7.5 2.5 -16.5 -0.5s-20 -8 -33 -15s-26.667 -14.833 -41 -23.5l-41 -25l-33.5 -20.5c-9.33301 -5.66699 -15 -8.5 -17 -8.5c-3.33301 -0.666992 -5.83301 3.66602 -7.5 12.999s-2.5 20 -2.5 32s0.666992 23.833 2 35.5s3.33301 19.834 6 24.501
c1.33301 3.33301 6.5 9 15.5 17s20.167 17 33.5 27s28 20.333 44 31s31.833 20 47.5 28s30.334 14.333 44.001 19s25.167 6.33398 34.5 5.00098c6 -1.33301 14.833 -6.16602 26.5 -14.499s23.167 -17.666 34.5 -27.999s21.5 -20.666 30.5 -30.999s14.167 -17.5 15.5 -21.5
c0.666992 -3.33301 -1.5 -13.833 -6.5 -31.5s-12 -39.667 -21 -66l-31.5 -88l-37.5 -98.5l-38 -98l-33.5 -85.5l-24.5 -61c-6.33301 -15.667 -9.83301 -24.167 -10.5 -25.5z" />
    <glyph glyph-name="three" unicode="3" horiz-adv-x="393" 
d="M222 259c-6.66699 10.667 -14.5039 19.1621 -23.5039 25.4951s-18.167 11 -27.5 14s-18.5 4.66699 -27.5 5s-16.5 0.166016 -22.5 -0.500977c-6.66699 -1.33301 -12.667 1.66699 -18 9s-9.16602 15.833 -11.499 25.5s-3.33301 19.334 -3 29.001s2.83301 16.167 7.5 19.5
c8 6.66699 19.5 14.334 34.5 23.001s29.667 18.167 44 28.5s26.833 21.833 37.5 34.5s16 26.334 16 41.001c0 20 -1.5 38.167 -4.5 54.5s-6.5 30.5 -10.5 42.5s-8.16699 21.5 -12.5 28.5s-7.5 11.167 -9.5 12.5c-2 2 -5.66699 2.83301 -11 2.5s-11 -1 -17 -2
s-11.5 -2.33301 -16.5 -4s-7.83301 -2.83398 -8.5 -3.50098c-1.33301 -1.33301 -2.66602 -9.5 -3.99902 -24.5s-3.16602 -31.5 -5.49902 -49.5s-4.83301 -34.667 -7.5 -50s-6 -24 -10 -26c-8 -4 -16.833 -0.833008 -26.5 9.5s-18.5 22.833 -26.5 37.5
c-4 7.33301 -7.83301 17 -11.5 29s-6.66699 24.167 -9 36.5s-4.16602 23.833 -5.49902 34.5s-1.33301 19 0 25c0.666992 5.33301 9 12.5 25 21.5s36.333 17.667 61 26s52 15.166 82 20.499s59.333 7.33301 88 6c9.33301 -0.666992 17.5 -6 24.5 -16s12.667 -22.833 17 -38.5
s7.66602 -33.5 9.99902 -53.5s3.5 -40.333 3.5 -61c-1.33301 -22.667 -6.66602 -45.667 -15.999 -69c-8 -20 -20.833 -42 -38.5 -66s-42.5 -47.333 -74.5 -70c36 -4.66699 63.333 -13.667 82 -27s32.334 -27.666 41.001 -42.999c10 -17.333 15 -36.666 15 -57.999
c-1.33301 -20.667 -4.66602 -42.167 -9.99902 -64.5s-11.333 -43.166 -18 -62.499s-13.334 -36 -20.001 -50s-11.334 -22.333 -14.001 -25c-2.66699 -3.33301 -10.5 -8.33301 -23.5 -15s-27.667 -13.334 -44 -20.001s-32.5 -12.5 -48.5 -17.5s-28 -7.83301 -36 -8.5
c-8 0 -16.667 4.83301 -26 14.5s-17.833 21.834 -25.5 36.501s-14.334 30 -20.001 46s-8.83398 30 -9.50098 42c-1.33301 12 -2.16602 23.833 -2.49902 35.5s0 21.834 1 30.501s2.83301 15.667 5.5 21s6.66699 8 12 8c4 0 8.83301 -2 14.5 -6s11.5 -9 17.5 -15
s11.833 -12.333 17.5 -19s10.5 -13 14.5 -19c2 -4 5.33301 -11.167 10 -21.5s9.66699 -20.666 15 -30.999s10.833 -19.5 16.5 -27.5s11.167 -12 16.5 -12c4.66699 0 9 4 13 12s7.33301 18.167 10 30.5s5 26 7 41s3.33301 29.833 4 44.5
c0.666992 10.667 1.33398 19.5 2.00098 26.5s0.833984 13.167 0.500977 18.5s-1.33301 10 -3 14s-3.83398 8.66699 -6.50098 14z" />
    <glyph glyph-name="four" unicode="4" horiz-adv-x="379" 
d="M378 301c2 -2 2.16699 -8.66504 0.5 -19.998s-4 -23.5 -7 -36.5s-6 -25 -9 -36s-5.5 -17.833 -7.5 -20.5c-6 0 -12.5 0.166992 -19.5 0.5s-13.5 0.5 -19.5 0.5c-7.33301 0 -14.333 0.333008 -21 1c-2 -29.333 -4.33301 -56.5 -7 -81.5s-5.33398 -46.667 -8.00098 -65
s-5 -33 -7 -44s-4 -16.5 -6 -16.5c-5.33301 -0.666992 -11 1.66602 -17 6.99902s-11.667 11.833 -17 19.5s-10.166 15.834 -14.499 24.501s-6.83301 16 -7.5 22v139c-20 0.666992 -39 1.66699 -57 3c-25.333 1.33301 -46 2.83301 -62 4.5s-28.5 3.16699 -37.5 4.5
s-15.333 2.5 -19 3.5l-5.5 1.5c-5.33301 1.33301 -10 5.16602 -14 11.499s-7.33301 13.5 -10 21.5s-4.5 16.167 -5.5 24.5s-0.833008 15.166 0.5 20.499l90.5 217c23.667 54 42.5 95.333 56.5 124c16.667 33.333 29.334 56 38.001 68c7.33301 8.66699 17.833 15.667 31.5 21
s27.5 9 41.5 11s26.5 2.83301 37.5 2.5s17.5 -1.83301 19.5 -4.5c4.66699 -4.66699 6.83398 -12 6.50098 -22s-0.5 -22.333 -0.5 -37c0 -20 -0.5 -44 -1.5 -72s-2.33301 -58.167 -4 -90.5s-3.5 -66 -5.5 -101s-4.33301 -69.833 -7 -104.5c21.333 0.666992 38.666 1 51.999 1
s20.666 -0.666992 21.999 -2zM88 291.002c17.333 1.33301 36.833 2.66602 58.5 3.99902l64.5 4c0 42.667 0.333008 85.334 1 128.001s1.66699 81 3 115l-67.5 -133.5z" />
    <glyph glyph-name="five" unicode="5" horiz-adv-x="361" 
d="M327 585c-2.66699 -1.33301 -10.333 -1.66699 -23 -1l-50.5 3c-22.333 1.33301 -54.166 4.33301 -95.499 9l-3 -160c12 3.33301 24 5.83301 36 7.5s23 2.5 33 2.5c21.333 0 38 -1.33301 50 -4s21 -9.33398 27 -20.001s9.66699 -26.167 11 -46.5s2 -48.166 2 -83.499v-18
c0 -3.33301 -0.333008 -9.33301 -1 -18c-0.666992 -22.667 -3.5 -45.334 -8.5 -68.001s-10.5 -43.334 -16.5 -62.001s-11.833 -34.5 -17.5 -47.5s-9.83398 -21.5 -12.501 -25.5c-2.66699 -3.33301 -10.5 -8.33301 -23.5 -15s-27.5 -13.167 -43.5 -19.5s-31.667 -12 -47 -17
s-26.666 -7.5 -33.999 -7.5c-7.33301 -0.666992 -15.333 4 -24 14s-16.667 22 -24 36s-13.5 28.5 -18.5 43.5s-7.5 27.5 -7.5 37.5c0 5.33301 0.333008 12.333 1 21s1.83398 17.167 3.50098 25.5s3.66699 15.5 6 21.5s5.5 9 9.5 9s8.16699 -2 12.5 -6
s8.66602 -8.83301 12.999 -14.5s8.5 -11.834 12.5 -18.501l11 -19l12 -19.5c6 -9.66699 12.667 -19.5 20 -29.5s14.5 -18.833 21.5 -26.5s12.833 -11.5 17.5 -11.5s9.16699 4 13.5 12s8 18.167 11 30.5s5.33301 26.166 7 41.499s2.5 31 2.5 47
c0 22.667 -0.833008 43.834 -2.5 63.501s-3.5 36.667 -5.5 51s-4.33301 26 -7 35s-5 14.5 -7 16.5s-7.66699 2.33301 -17 1s-19.666 -3 -30.999 -5s-22.166 -4.16699 -32.499 -6.5s-17.5 -3.83301 -21.5 -4.5c-2 0 -4.5 1.5 -7.5 4.5s-6 7 -9 12s-5.83301 10.5 -8.5 16.5
s-4 11.667 -4 17v2c0 0.666992 -0.166992 1.66699 -0.5 3s-0.5 2.66602 -0.5 3.99902c-2.66699 35.333 -5.16699 70.833 -7.5 106.5s-4.16602 68.167 -5.49902 97.5s-2 54 -2 74s1 32 3 36c2 5.33301 10.667 9.33301 26 12s33.666 4.33398 54.999 5.00098
s44.166 0.833984 68.499 0.500977s47.166 -1.33301 68.499 -3s39.333 -3.66699 54 -6s23 -4.5 25 -6.5c2.66699 -3.33301 4.16699 -11.166 4.5 -23.499s-0.333984 -25.666 -2.00098 -39.999s-4 -27.833 -7 -40.5s-6.16699 -21 -9.5 -25z" />
    <glyph glyph-name="six" unicode="6" horiz-adv-x="378" 
d="M151 404l63.0049 -11.498c23.333 -4.33301 45 -10.166 65 -17.499s36.5 -16.833 49.5 -28.5s18.5 -26.5 16.5 -44.5c-2 -19.333 -4 -36.5 -6 -51.5s-4.5 -29.167 -7.5 -42.5s-6.16699 -26.166 -9.5 -38.499s-7 -25.166 -11 -38.499
c-3.33301 -13.333 -7.66602 -28 -12.999 -44s-11 -30.833 -17 -44.5s-12.167 -25 -18.5 -34s-12.166 -13.167 -17.499 -12.5c-7.33301 0.666992 -18.833 4.83398 -34.5 12.501s-31.834 16.667 -48.501 27s-31.834 20.666 -45.501 30.999s-21.834 18.166 -24.501 23.499
c-2.66699 6 -6.83398 19.667 -12.501 41s-11.334 47.166 -17.001 77.499s-10.667 64 -15 101s-6.5 74.5 -6.5 112.5c0 37.333 0.166992 74 0.5 110s1.66602 68.333 3.99902 97s6 52 11 70s11.833 27.667 20.5 29c26 2.66699 54.5 -1 85.5 -11s60 -22.5 87 -37.5
s49.667 -30.667 68 -47s28.166 -29.5 29.499 -39.5c0.666992 -10.667 -0.5 -22.5 -3.5 -35.5s-6.83301 -25.667 -11.5 -38s-9.33398 -23.333 -14.001 -33s-8.33398 -16.167 -11.001 -19.5c-2.66699 -4 -6.16699 -8.5 -10.5 -13.5s-9 -9.5 -14 -13.5
s-9.83301 -6.83301 -14.5 -8.5s-8.66699 -1.16699 -12 1.5c-2.66699 2 -5 8 -7 18s-4.16699 22 -6.5 36s-4.5 29 -6.5 45s-3.66699 30.833 -5 44.5s-2.66602 25.167 -3.99902 34.5s-2.33301 14.666 -3 15.999c-2 3.33301 -7.33301 6.66602 -16 9.99902s-15 2.33301 -19 -3
c-1.33301 -2.66699 -3.66602 -10.5 -6.99902 -23.5s-7 -29.833 -11 -50.5s-7.83301 -44.334 -11.5 -71.001s-6.5 -55 -8.5 -85zM179.005 87.002c4.66699 -0.666992 10 2.83301 16 10.5s12 17.167 18 28.5s11.667 24 17 38s10 27.333 14 40c7.33301 25.333 12 44.5 14 57.5
s-1.66699 24.833 -11 35.5c-4.66699 4.66699 -11 9.66699 -19 15s-16.667 10.333 -26 15s-18.833 8.83398 -28.5 12.501s-18.5 6.16699 -26.5 7.5v-34c0 -26 0.833008 -52.333 2.5 -79s4 -50.834 7 -72.501s6.5 -39.5 10.5 -53.5s8 -21 12 -21z" />
    <glyph glyph-name="seven" unicode="7" horiz-adv-x="345" 
d="M335 707c0 -10 -2.33203 -28 -6.99902 -54s-10.834 -56.833 -18.501 -92.5s-16.5 -74.5 -26.5 -116.5l-31 -126.5l-32 -123c-10.667 -39.667 -20.5 -74.667 -29.5 -105s-16.667 -54.666 -23 -72.999s-10.833 -27.5 -13.5 -27.5c-5.33301 0 -10.5 3.16699 -15.5 9.5
s-9.5 13.833 -13.5 22.5s-7.16699 17.667 -9.5 27s-3.5 17 -3.5 23c16.667 99.333 31.167 182.5 43.5 249.5s22.833 121.5 31.5 163.5c10 48.667 18.667 87.334 26 116.001c-14 1.33301 -28.333 2 -43 2s-29 1.33301 -43 4c-17.333 0.666992 -33.333 2 -48 4
c-12.667 1.33301 -25 3.16602 -37 5.49902s-20.333 5.16602 -25 8.49902c-2.66699 1.33301 -5 5.66602 -7 12.999s-3.83301 15.333 -5.5 24s-2.83398 16.834 -3.50098 24.501s-1 13.167 -1 16.5c0 2 8 4.16699 24 6.5s36 4.66602 60 6.99902s50.167 4.33301 78.5 6
s54.833 3 79.5 4s45.334 1.5 62.001 1.5s25.667 -0.666992 27 -2c1.33301 -3.33301 2.33301 -6.66602 3 -9.99902s1 -6 1 -8z" />
    <glyph glyph-name="eight" unicode="8" horiz-adv-x="380" 
d="M342 187l2 -64.502c0.666992 -21 0.166992 -40 -1.5 -57s-4.66699 -31 -9 -42s-10.833 -17.167 -19.5 -18.5c-25.333 -4.66699 -53.666 -5.83398 -84.999 -3.50098s-60.666 6.33301 -87.999 12s-50.666 12.334 -69.999 20.001s-29.333 14.5 -30 20.5
c-2 0.666992 -3.66699 5.5 -5 14.5s-2.5 20.167 -3.5 33.5s-1.5 27.833 -1.5 43.5s0.666992 30.834 2 45.501c2.66699 28.667 7 55 13 79s12.667 45.333 20 64s15 34.334 23 47.001s15.667 22 23 28c-6 2 -9.33301 3.66699 -10 5c-2.66699 2.66699 -6.83398 9 -12.501 19
s-11.667 22.167 -18 36.5s-12 30.5 -17 48.5s-7.83301 36 -8.5 54c-1.33301 18.667 -2.16602 37 -2.49902 55s0.333984 34.333 2.00098 49s4.5 26.667 8.5 36s10 14.666 18 15.999c24 4 50.667 4.83301 80 2.5s57 -6 83 -11s47.833 -10.667 65.5 -17
s27.167 -12.166 28.5 -17.499c1.33301 -0.666992 2.66602 -4.83398 3.99902 -12.501s2.5 -17.167 3.5 -28.5s1.5 -23.666 1.5 -36.999s-0.666992 -26.333 -2 -39c-2.66699 -24 -6.83398 -46 -12.501 -66s-11.834 -38 -18.501 -54s-13.834 -29.333 -21.501 -40
s-14.834 -18.334 -21.501 -23.001c10.667 -3.33301 17.334 -6.33301 20.001 -9c2.66699 -3.33301 7.16699 -10.833 13.5 -22.5s12.833 -26.167 19.5 -43.5s12.667 -36.666 18 -57.999s8.33301 -43 9 -65zM185 690.998c-2 -2 -4.83398 -7.99707 -8.50098 -17.9971
s-7.33398 -22.333 -11.001 -37s-6.66699 -31 -9 -49s-3.16602 -35.667 -2.49902 -53c0.666992 -12.667 2 -25.834 4 -39.501s4.5 -26 7.5 -37s6.5 -20 10.5 -27s8 -10.5 12 -10.5c2.66699 0 6.83398 1.5 12.501 4.5s11.5 9 17.5 18s11.667 21.667 17 38s9 38.166 11 65.499
c2 26.667 1.83301 49.167 -0.5 67.5s-5.5 33.166 -9.5 44.499s-8 19.5 -12 24.5s-6.33301 7.83301 -7 8.5c-2 1.33301 -7 2.5 -15 3.5s-13.667 -0.166992 -17 -3.5zM197.999 48.001c2 2 5.00098 8.83301 9.00098 20.5s8 26.334 12 44.001s7.33301 37.167 10 58.5
s3.33398 42.333 2.00098 63c-0.666992 15.333 -2 31 -4 47s-4.66699 30.667 -8 44s-7.16602 24.166 -11.499 32.499s-8.5 12.5 -12.5 12.5c-3.33301 0 -7.83301 -1.83301 -13.5 -5.5s-11.834 -10.667 -18.501 -21s-12.834 -25.333 -18.501 -45s-9.5 -45.5 -11.5 -77.5
c-2.66699 -32 -2.66699 -59 0 -81s6.16699 -39.833 10.5 -53.5s8.66602 -23.5 12.999 -29.5s6.83301 -9.33301 7.5 -10c2 -1.33301 7.33301 -2.5 16 -3.5s14.667 0.5 18 4.5z" />
    <glyph glyph-name="nine" unicode="9" horiz-adv-x="379" 
d="M224 321c-19.333 2 -40.667 4.33301 -64 7s-45 7.16699 -65 13.5s-36.667 15.166 -50 26.499s-19.666 26.666 -18.999 45.999c0.666992 20 1.66699 38.167 3 54.5s3 31.5 5 45.5s4.16699 27.667 6.5 41s5.16602 27.666 8.49902 42.999c2.66699 14 6.16699 29.667 10.5 47
s9.16602 33.5 14.499 48.5s10.833 27.5 16.5 37.5s11.5 15 17.5 15c4.66699 0 12.834 -1.66699 24.501 -5s25 -7.66602 40 -12.999s30.667 -11.5 47 -18.5s31.5 -13.833 45.5 -20.5s25.667 -13.167 35 -19.5s14.666 -11.5 15.999 -15.5c2 -6 4.83301 -20.167 8.5 -42.5
s6.83398 -49.5 9.50098 -81.5s4.16699 -67.333 4.5 -106s-1.5 -77.334 -5.5 -116.001s-9.66699 -76.667 -17 -114s-15.333 -70.666 -24 -99.999s-17.834 -53.166 -27.501 -71.499s-18.834 -27.5 -27.501 -27.5c-27.333 -0.666992 -51.833 2.66602 -73.5 9.99902
s-40.167 16.666 -55.5 27.999s-27.5 23.5 -36.5 36.5s-14.167 25.167 -15.5 36.5c-1.33301 10.667 -1.5 23.167 -0.5 37.5s2.5 28.166 4.5 41.499s4.33301 25.333 7 36s5 18 7 22c2.66699 4.66699 6 9.83398 10 15.501s8.16699 10.667 12.5 15s8.66602 7.5 12.999 9.5
s8.5 1.66699 12.5 -1c2.66699 -2 5.16699 -8 7.5 -18s4.83301 -22.167 7.5 -36.5s5.33398 -29.666 8.00098 -45.999s5 -31.666 7 -45.999s3.83301 -26.333 5.5 -36s2.83398 -14.834 3.50098 -15.501c1.33301 -1.33301 3.5 -3 6.5 -5s6.33301 -3.5 10 -4.5
s7.33398 -1.16699 11.001 -0.5s6.5 2.66699 8.5 6c1.33301 2.66699 3.33301 10.834 6 24.501s5.5 31.334 8.5 53.001s5.66699 46.5 8 74.5s3.83301 57.667 4.5 89zM176.999 655c-4.66699 0 -9.66504 -4.16699 -14.998 -12.5s-10.5 -18.833 -15.5 -31.5
s-9.83301 -26.5 -14.5 -41.5s-8.33398 -29.5 -11.001 -43.5c-6 -27.333 -9.83301 -48.333 -11.5 -63s2.83301 -26.667 13.5 -36c4.66699 -4.66699 11.167 -9.33398 19.5 -14.001s17.166 -9.16699 26.499 -13.5s18.833 -8.16602 28.5 -11.499s18.5 -5.33301 26.5 -6
c-0.666992 6 -1 11.667 -1 17s-0.333008 11.333 -1 18c-1.33301 28 -3.66602 56 -6.99902 84s-7 53.5 -11 76.5s-8.33301 41.667 -13 56s-9.33398 21.5 -14.001 21.5z" />
    <glyph glyph-name="colon" unicode=":" horiz-adv-x="148" 
d="M120 173c2 -4.66699 3 -11.1709 3 -19.5039s-1 -17 -3 -26s-4.5 -17.833 -7.5 -26.5s-6.16699 -15.334 -9.5 -20.001c-2.66699 -4.66699 -6.33398 -8.16699 -11.001 -10.5s-9.66699 -4.16602 -15 -5.49902s-10.333 -2 -15 -2h-11
c-4 0.666992 -8.16699 3.83398 -12.5 9.50098s-8 12.334 -11 20.001s-5 15.834 -6 24.501s-0.5 16.667 1.5 24c2 8 7.66699 15.167 17 21.5s19.5 11.333 30.5 15s21.333 5.33398 31 5.00098s15.834 -3.5 18.501 -9.5zM120 399.996c2 -4.66699 3 -11.166 3 -19.499
s-1 -17 -3 -26s-4.5 -17.667 -7.5 -26s-6.16699 -15.166 -9.5 -20.499c-2.66699 -4 -6.33398 -7.33301 -11.001 -10s-9.66699 -4.5 -15 -5.5s-10.333 -1.5 -15 -1.5h-11c-4 0.666992 -8.16699 3.66699 -12.5 9s-8 11.666 -11 18.999s-5 15.5 -6 24.5s-0.5 17.5 1.5 25.5
s7.66699 15.167 17 21.5s19.5 11.166 30.5 14.499s21.333 4.83301 31 4.5s15.834 -3.5 18.501 -9.5z" />
    <glyph glyph-name="semicolon" unicode=";" horiz-adv-x="145" 
d="M126 156c-2 -15.333 -5.16309 -32.1689 -9.49609 -50.502s-9 -35.833 -14 -52.5s-10 -31.5 -15 -44.5s-9.16699 -21.833 -12.5 -26.5c-2.66699 -4 -6.5 -7 -11.5 -9s-10.333 -3 -16 -3s-11.167 1 -16.5 3s-9.33301 5.66699 -12 11c-2 2.66699 -3.16699 11 -3.5 25
s-0.333008 29.167 0 45.5s0.833008 32.333 1.5 48s1.66699 26.834 3 33.501l4 17.5c0.666992 3 1.66699 6.16699 3 9.5c3.33301 8 10.166 15 20.499 21s21.166 10.667 32.499 14s21.666 4.83301 30.999 4.5s15 -3.16602 17 -8.49902
c1.33301 -3.33301 1.66602 -9 0.999023 -17s-1.66699 -15 -3 -21zM126.004 420.997c2 -5.33301 2.99902 -12.168 2.99902 -20.501s-0.833008 -17 -2.5 -26s-4 -17.667 -7 -26s-6.16699 -14.833 -9.5 -19.5c-6 -9.33301 -14.833 -14.833 -26.5 -16.5
s-20.5 -2.16699 -26.5 -1.5c-4 0.666992 -8 3.66699 -12 9s-7.66699 11.833 -11 19.5s-5.5 15.834 -6.5 24.501s-0.5 17 1.5 25s7.66699 15.167 17 21.5s19.5 11.166 30.5 14.499s21.333 4.83301 31 4.5s15.834 -3.16602 18.501 -8.49902z" />
    <glyph glyph-name="less" unicode="&#x3c;" horiz-adv-x="321" 
d="M294 413c3.33301 -3.33301 7.49902 -9.66699 12.499 -19s5.16699 -17.666 0.5 -24.999c-1.33301 -3.33301 -8.83301 -9 -22.5 -17l-49 -27.5l-61.5 -32.5l-61 -32l57 -32.5l55.5 -33c17 -10.333 31.5 -19.5 43.5 -27.5s18.667 -13.333 20 -16
c4 -8 3.33301 -16.333 -2 -25s-10 -14.667 -14 -18c-2 -2 -9 -1 -21 3s-26.667 9.5 -44 16.5l-56.5 24l-57.5 26.5c-18 8.66699 -33.667 16.667 -47 24s-21.666 12.666 -24.999 15.999c-4.66699 4 -7.83398 10.333 -9.50098 19s-2.5 17.667 -2.5 27
s0.833008 17.833 2.5 25.5s3.5 12.167 5.5 13.5c4 3.33301 13.333 8.66602 28 15.999s31.834 15.333 51.501 24l63 26.5l62 24c19 7 35.167 12.333 48.5 16s21 4.83398 23 3.50098z" />
    <glyph glyph-name="equal" unicode="=" horiz-adv-x="364" 
d="M322 306c-3.33301 -1.33301 -12.6689 -2.33398 -28.002 -3.00098s-33.666 -1 -54.999 -1s-44.166 0.333008 -68.499 1s-47 1.66699 -68 3s-39 2.66602 -54 3.99902s-23.833 3 -26.5 5c-8 5.33301 -11.833 13 -11.5 23s1.16602 17.333 2.49902 22
c0.666992 2.66699 7.83398 5.33398 21.501 8.00098s30.667 5.33398 51 8.00098s42.333 5.16699 66 7.5s46.334 4.16602 68.001 5.49902s40.667 2.16602 57 2.49902s26.833 -0.166992 31.5 -1.5c7.33301 -1.33301 13.166 -6.16602 17.499 -14.499s7.33301 -17.166 9 -26.499
s1.5 -18.333 -0.5 -27s-6 -14 -12 -16zM329.997 164.999c-4 -1.33301 -13.6699 -2.33008 -29.0029 -2.99707s-33.666 -1 -54.999 -1s-44.166 0.333008 -68.499 1s-46.833 1.66699 -67.5 3s-38.5 2.66602 -53.5 3.99902s-23.833 3 -26.5 5c-8 4.66699 -12 12 -12 22
s1.33301 17.667 4 23c0.666992 2 7.83398 4.33301 21.501 7s30.5 5.33398 50.5 8.00098s41.833 5.16699 65.5 7.5s46.167 4.16602 67.5 5.49902s40.166 2.16602 56.499 2.49902s26.833 0.166016 31.5 -0.500977c7.33301 -2 13.333 -7 18 -15s7.83398 -16.833 9.50098 -26.5
s1.5 -18.667 -0.5 -27s-6 -13.5 -12 -15.5z" />
    <glyph glyph-name="greater" unicode="&#x3e;" horiz-adv-x="321" 
d="M27 413c2 1.33301 9.50195 0.166992 22.502 -3.5s29.167 -9 48.5 -16s40 -15 62 -24l63 -26.5c20 -8.66699 37.167 -16.667 51.5 -24s23.5 -12.666 27.5 -15.999c2 -1.33301 3.66699 -5.83301 5 -13.5s2.16602 -16.167 2.49902 -25.5s-0.333984 -18.333 -2.00098 -27
s-4.5 -15 -8.5 -19c-4 -3.33301 -12.667 -8.66602 -26 -15.999s-29 -15.333 -47 -24l-57.5 -26.5l-56.5 -24c-17.333 -7 -32 -12.5 -44 -16.5s-19 -5 -21 -3c-4 3.33301 -8.5 9.33301 -13.5 18s-5.5 17 -1.5 25c1.33301 2.66699 8 8 20 16s26.5 17.167 43.5 27.5l55.5 33
l57 32.5l-61 32l-62 32.5c-19.333 10.333 -35.833 19.5 -49.5 27.5s-21.167 13.667 -22.5 17c-4.66699 7.33301 -4.5 15.666 0.5 24.999s9.5 15.666 13.5 18.999z" />
    <glyph glyph-name="question" unicode="?" horiz-adv-x="312" 
d="M155 104c2 -4.66699 3 -11.166 3 -19.499s-1 -17 -3 -26s-4.5 -17.667 -7.5 -26s-6.16699 -15.166 -9.5 -20.499c-2.66699 -4 -6.33398 -7.33301 -11.001 -10s-9.66699 -4.5 -15 -5.5s-10.333 -1.5 -15 -1.5h-11c-4 0.666992 -8.16699 3.66699 -12.5 9
s-8 11.833 -11 19.5s-5.16699 16 -6.5 25s-1 17.5 1 25.5c2 7.33301 7.83301 14.166 17.5 20.499s20 11.166 31 14.499s21.333 4.83301 31 4.5s15.834 -3.5 18.501 -9.5zM147 206.001c2.66699 -8 0 -15.6621 -8 -22.9951s-17.667 -12.833 -29 -16.5
s-22.666 -5.16699 -33.999 -4.5s-18.333 5 -21 13c-2 5.33301 -4.66699 15.666 -8 30.999s-5.66602 32.666 -6.99902 51.999s-1 39.833 1 61.5s7 41.5 15 59.5c12.667 26 27.667 50.667 45 74l47.5 65.5c14.333 20.333 25.166 39.166 32.499 56.499s7 33 -1 47
c-2 3.33301 -7.66699 3.66602 -17 0.999023s-20.5 -6.66699 -33.5 -12s-27.167 -11.666 -42.5 -18.999l-43.5 -21l-35 -17c-9.66699 -4.66699 -15.5 -7 -17.5 -7c-3.33301 0 -5.33301 4.5 -6 13.5s-0.5 19.5 0.5 31.5s2.66699 23.667 5 35s4.83301 19.333 7.5 24
c2 3.33301 7.83301 8.66602 17.5 15.999s21.5 15.333 35.5 24s29.5 17.5 46.5 26.5s33.667 16.833 50 23.5s31.666 11.667 45.999 15s25.833 4 34.5 2c6 -1.33301 14.5 -6.83301 25.5 -16.5s21.833 -20.334 32.5 -32.001s20 -23 28 -34s12.333 -18.833 13 -23.5
c3.33301 -18.667 -0.666992 -39 -12 -61s-26 -45.167 -44 -69.5l-57 -74.5c-20 -25.333 -36.667 -50.666 -50 -75.999c-10 -19.333 -17 -37.5 -21 -54.5s-6 -32.667 -6 -47s1.16699 -26.833 3.5 -37.5s4.5 -19.334 6.5 -26.001z" />
    <glyph glyph-name="at" unicode="@" horiz-adv-x="589" 
d="M520 709c10 -8.66699 17.8408 -23.499 23.5078 -44.499s9.66699 -45.833 12 -74.5s3 -60.334 2 -95.001s-3.16699 -70.334 -6.5 -107.001s-7.83301 -73.334 -13.5 -110.001s-12.167 -71 -19.5 -103c-1.33301 -4 -3.5 -11.167 -6.5 -21.5s-7.83301 -20.833 -14.5 -31.5
s-15.334 -20.167 -26.001 -28.5s-24.334 -12.5 -41.001 -12.5c-14.667 0 -26.834 2.33301 -36.501 7s-17.5 10.5 -23.5 17.5s-10.167 14.667 -12.5 23s-3.83301 16.166 -4.5 23.499c-12.667 -9.33301 -27 -15.666 -43 -18.999s-31.833 -4.5 -47.5 -3.5s-30 4.33301 -43 10
s-22.833 13.167 -29.5 22.5c-2.66699 3.33301 -5 9 -7 17s-3.66699 17 -5 27s-2.5 20.667 -3.5 32s-1.83301 22 -2.5 32c-1.33301 25.333 1.33398 47.166 8.00098 65.499s18.667 32.166 36 41.499c7.33301 4 17.5 6.16699 30.5 6.5s26 -0.333984 39 -2.00098
s24.667 -3.66699 35 -6s16.833 -4.16602 19.5 -5.49902c-2 32 -3.5 60.5 -4.5 85.5s-3.16699 41.167 -6.5 48.5c-2.66699 4.66699 -6 9 -10 13c-3.33301 3.33301 -7.83301 6.83301 -13.5 10.5s-12.167 6.83398 -19.5 9.50098c-6 1.33301 -11.333 -1.66699 -16 -9
c-4 -6.66699 -7.83301 -18.167 -11.5 -34.5s-5.83398 -41.5 -6.50098 -75.5c-19.333 -0.666992 -34 -0.666992 -44 0s-17.667 1.66699 -23 3c-6 1.33301 -9.66699 3 -11 5c-0.666992 2.66699 0.166016 12.167 2.49902 28.5s5.5 34.333 9.5 54s9 38.167 15 55.5
s12 28.333 18 33c12.667 9.33301 28.334 12.666 47.001 9.99902s36.667 -8.16699 54 -16.5s32.833 -17.5 46.5 -27.5s22.5 -18 26.5 -24l8 -15.5c2.66699 -5 5.16699 -11.5 7.5 -19.5s4.16602 -18.5 5.49902 -31.5s2 -29.833 2 -50.5c0 -32.667 -0.5 -65.5 -1.5 -98.5
s-1.83301 -62.167 -2.5 -87.5c0 -4 -0.333008 -11 -1 -21s-0.833984 -20.167 -0.500977 -30.5s1.83301 -19.5 4.5 -27.5s7 -12 13 -12c6.66699 0 11.667 5.16699 15 15.5s5.66602 19.166 6.99902 26.499c4 19.333 7.16699 41 9.5 65s3.5 51 3.5 81s0.666992 62.5 2 97.5
s1.33301 68.333 0 100s-4.66602 58.834 -9.99902 81.501s-15 36.334 -29 41.001c-9.33301 3.33301 -23 6.33301 -41 9s-38.167 4.33398 -60.5 5.00098s-45.166 -0.166016 -68.499 -2.49902s-45 -7 -65 -14s-37.167 -16.833 -51.5 -29.5s-22.833 -29 -25.5 -49
c-3.33301 -20 -5 -44.833 -5 -74.5s1 -61.5 3 -95.5s5.16699 -68.333 9.5 -103s9.16602 -67 14.499 -97s11.333 -56 18 -78s13.334 -36.667 20.001 -44c10 -11.333 22.833 -20.333 38.5 -27s31.334 -11.667 47.001 -15s29.834 -5.33301 42.501 -6s21 -1 25 -1
c6 0 13 0.5 21 1.5s16.167 2.16699 24.5 3.5s16.5 2.83301 24.5 4.5s14.667 3.5 20 5.5s8.66602 -0.166992 9.99902 -6.5s1.16602 -13.833 -0.500977 -22.5s-4 -17 -7 -25s-5.83301 -12.667 -8.5 -14c-7.33301 -3.33301 -15.333 -5.83301 -24 -7.5
s-17.667 -2.83398 -27 -3.50098s-18.5 -1.16699 -27.5 -1.5s-16.833 -0.5 -23.5 -0.5c-54.667 0 -102.167 10.5 -142.5 31.5s-74.833 50.5 -103.5 88.5c-4.66699 6.66699 -9.66699 21.834 -15 45.501s-9.83301 52.334 -13.5 86.001s-6.33398 70.334 -8.00098 110.001
s-1.33398 78.834 0.999023 117.501s7.16602 74.667 14.499 108s18 60.666 32 81.999s32.833 39.666 56.5 54.999s49.667 27.833 78 37.5s58 16.5 89 20.5s60.667 5.16699 89 3.5s54.166 -6 77.499 -13s42 -16.5 56 -28.5zM342.008 255.001
c0 2.66699 0.166992 6.66797 0.5 12.001s0.666016 11 0.999023 17s0.333008 11.5 0 16.5s-0.833008 8.83301 -1.5 11.5c-1.33301 4 -6.16602 7.5 -14.499 10.5s-17.5 5 -27.5 6s-19.5 1.16699 -28.5 0.5s-14.833 -2 -17.5 -4c-8 -6 -12.333 -19.667 -13 -41
c0 -6 0.166992 -12.333 0.5 -19s1 -13 2 -19s2.16699 -11.333 3.5 -16s3 -7.66699 5 -9c4 -2.66699 10.667 -5.16699 20 -7.5s19 -2.83301 29 -1.5s19 5.16602 27 11.499s12.667 16.833 14 31.5z" />
    <glyph glyph-name="A" unicode="A" horiz-adv-x="456" 
d="M450 267c1.33301 -2 1.16797 -8.66602 -0.499023 -19.999s-4 -23.666 -7 -36.999s-6 -25.833 -9 -37.5s-5.5 -18.5 -7.5 -20.5h-10c-2 0 -4 0.333008 -6 1l8 -77c2 -19.333 3 -30 3 -32c0 -4.66699 -2.16699 -11.334 -6.5 -20.001s-9.16602 -16.667 -14.499 -24
s-10.833 -13.166 -16.5 -17.499s-9.5 -4.5 -11.5 -0.5c-3.33301 6 -10.333 24 -21 54s-22.667 71 -36 123l-41.5 4l-43.5 4c-14.667 1.33301 -29.167 3.16602 -43.5 5.49902l-41.5 6.5l-19.5 -83c-6.33301 -26 -12.333 -48.667 -18 -68s-10.5 -34.666 -14.5 -45.999
s-7 -17 -9 -17c-5.33301 0 -10.666 3.33301 -15.999 10s-10.166 14.667 -14.499 24s-7.83301 19 -10.5 29s-4 18.333 -4 25c1.33301 15.333 3.16602 31.333 5.49902 48s4.16602 32 5.49902 46l6 49h-4c-2.66699 1.33301 -6.33398 4.33301 -11.001 9l-14 14.5
c-4.66699 5 -8.66699 10 -12 15s-5 8.83301 -5 11.5c0 1.33301 4.83301 2.66602 14.5 3.99902s22.5 2.66602 38.5 3.99902l17 125c6 43.333 12 84 18 122s11.833 71.167 17.5 99.5s10.5 47.833 14.5 58.5c6.66699 18 18.334 34.167 35.001 48.5s34.167 26.333 52.5 36
s35.833 17.167 52.5 22.5s29 8 37 8c3.33301 0 7.16602 -7.5 11.499 -22.5s9 -35.167 14 -60.5s10.333 -54.833 16 -88.5s11.167 -69.167 16.5 -106.5s10.5 -75.5 15.5 -114.5l14.5 -111.5c33.333 0 51.666 -1 54.999 -3zM164.002 261.001
c21.333 1.33301 42.665 2.33301 63.998 3s42.333 1.66699 63 3l-18 87l-19 96c-7.33301 36.667 -14.666 77 -21.999 121l-24 -114.5l-22 -99.5c-7.33301 -34 -14.666 -66 -21.999 -96z" />
    <glyph glyph-name="B" unicode="B" horiz-adv-x="421" 
d="M249 392c15.333 -8 30.8311 -16.6729 46.498 -26.0059l43.5 -26.5c13.333 -8.33301 24.5 -16 33.5 -23s14.833 -12.5 17.5 -16.5c3.33301 -5.33301 5 -13.5 5 -24.5s-0.833008 -23 -2.5 -36s-4.16699 -25.667 -7.5 -38s-7 -22.166 -11 -29.499
c-4.66699 -9.33301 -15.167 -21.333 -31.5 -36s-34.5 -29.334 -54.5 -44.001s-39.5 -27.667 -58.5 -39s-33.5 -18.333 -43.5 -21c-7.33301 -2 -18.166 -4 -32.499 -6s-29.166 -3.66699 -44.499 -5s-29.166 -2.16602 -41.499 -2.49902s-19.833 0.166992 -22.5 1.5
c-5.33301 3.33301 -9.83301 8.33301 -13.5 15s-5.5 15.334 -5.5 26.001c1.33301 23.333 4 39.333 8 48c1.33301 2 3 3.16699 5 3.5s5.33301 0.5 10 0.5h18c7.33301 0 17 0.333008 29 1c-3.33301 34 -6.33301 66.333 -9 97l-7 81c-2.66699 27.333 -4.66699 53 -6 77
c-1.33301 23.333 -3.33301 49.333 -6 78l-7 86l-9 106h-21c-8 0 -15.833 0.166992 -23.5 0.5s-14.334 1 -20.001 2s-9.16699 2.5 -10.5 4.5c-2.66699 4 -4.66699 11.5 -6 22.5s-2 21.833 -2 32.5c0 11.333 2 22.5 6 33.5s8.66699 18.167 14 21.5
c1.33301 0.666992 6.66602 0.833984 15.999 0.500977s20.666 -1.33301 33.999 -3s27.833 -3.66699 43.5 -6s30.5 -4.66602 44.5 -6.99902s26.333 -4.5 37 -6.5s18 -3.33301 22 -4c6.66699 -1.33301 19.5 -4.83301 38.5 -10.5s39.5 -12.167 61.5 -19.5s43 -15.5 63 -24.5
s34 -17.833 42 -26.5c3.33301 -3.33301 6.5 -12.666 9.5 -27.999s5.33301 -32.333 7 -51s2.33398 -36.167 2.00098 -52.5s-2.16602 -27.166 -5.49902 -32.499c-2.66699 -4 -12 -11 -28 -21s-33.667 -20.333 -53 -31zM172.998 411.994c8.66699 4 20.5 12.001 35.5 24.001
s30 25.5 45 40.5s28 30.333 39 46s16.5 29.167 16.5 40.5c0 3.33301 -3.5 7.66602 -10.5 12.999s-16.5 10.666 -28.5 15.999s-26.167 10.833 -42.5 16.5s-33.833 10.834 -52.5 15.501zM171.998 124.995c18.667 4 36.332 10.3291 52.999 18.9961s31.334 18.167 44.001 28.5
s22.667 20.833 30 31.5s11 20.334 11 29.001s-5.5 18.334 -16.5 29.001s-24 21.334 -39 32.001s-30.167 20.334 -45.5 29.001s-27.333 15 -36 19z" />
    <glyph glyph-name="C" unicode="C" horiz-adv-x="358" 
d="M227 657c-1.33301 2 -3.50391 3.99707 -6.50391 5.99707s-6.5 3.66699 -10.5 5s-7.83301 1.83301 -11.5 1.5s-6.5 -1.83301 -8.5 -4.5c-2 -3.33301 -5.5 -15.833 -10.5 -37.5s-10.167 -48.5 -15.5 -80.5s-10 -67.667 -14 -107s-6 -78.333 -6 -117
c0 -28 1 -57.167 3 -87.5s4.5 -58.166 7.5 -83.499s6.66699 -46.166 11 -62.499s8.83301 -24.5 13.5 -24.5c4.66699 -0.666992 11 4.33301 19 15s15.667 22.834 23 36.501s14.166 27 20.499 40s10.5 21.833 12.5 26.5c2.66699 7.33301 6.33398 15.5 11.001 24.5
s9.33398 17.333 14.001 25s9.33398 14 14.001 19s8.66699 7.5 12 7.5c4 0 7.5 -4 10.5 -12s5.33301 -17.5 7 -28.5s2.83398 -22.333 3.50098 -34s1 -21.167 1 -28.5c0 -13.333 -2.5 -30 -7.5 -50s-11.333 -39.333 -19 -58s-16 -34.667 -25 -48s-17.5 -19.666 -25.5 -18.999
s-20.833 5.33398 -38.5 14.001s-35.834 18.667 -54.501 30s-35.667 22.666 -51 33.999s-24.333 20.333 -27 27c-3.33301 6 -8.16602 20.5 -14.499 43.5s-12.833 50.833 -19.5 83.5s-12.5 68.667 -17.5 108s-7.5 79 -7.5 119s0.333008 79.5 1 118.5s2.16699 73.833 4.5 104.5
s6.16602 55.5 11.499 74.5s12.666 29.167 21.999 30.5c18.667 2 39 0.833008 61 -3.5s44 -10.833 66 -19.5s43.167 -18.5 63.5 -29.5s38.5 -22.333 54.5 -34s28.833 -22.834 38.5 -33.501s14.834 -19.667 15.501 -27c0.666992 -11.333 -0.666016 -24 -3.99902 -38
s-7.33301 -27.5 -12 -40.5s-9.5 -24.667 -14.5 -35s-8.83301 -17.5 -11.5 -21.5c-3.33301 -4.66699 -7.33301 -9.66699 -12 -15s-9.5 -10 -14.5 -14s-10 -6.83301 -15 -8.5s-9.5 -0.833984 -13.5 2.49902c-2.66699 2 -5.16699 8.33301 -7.5 19
s-4.66602 23.334 -6.99902 38.001s-4.5 30.5 -6.5 47.5l-5.5 47.5c-1.66699 14.667 -3.16699 27 -4.5 37s-2.33301 15.667 -3 17z" />
    <glyph glyph-name="D" unicode="D" horiz-adv-x="394" 
d="M161 743c13.333 -2.66699 31.667 -10.4961 55 -23.4961s46.833 -27.667 70.5 -44s44.5 -32.333 62.5 -48s28.667 -26.834 32 -33.501c2.66699 -6.66699 3.66699 -19 3 -37s-2.66699 -39.833 -6 -65.5s-7.66602 -53.834 -12.999 -84.501s-11.333 -61.5 -18 -92.5
s-13.834 -61 -21.501 -90s-15.5 -54.5 -23.5 -76.5c-3.33301 -10.667 -10.666 -22.334 -21.999 -35.001s-24.666 -25.167 -39.999 -37.5s-31.5 -23.833 -48.5 -34.5s-33 -19.667 -48 -27s-28.333 -12.333 -40 -15s-19.5 -2 -23.5 2s-8.16699 16.833 -12.5 38.5
s-8.5 49 -12.5 82s-7.66699 70 -11 111s-6.33301 82.833 -9 125.5s-4.83398 84.5 -6.50098 125.5s-2.66699 78 -3 111s0.166992 60.667 1.5 83s3.66602 35.833 6.99902 40.5c2.66699 3.33301 9.5 6.66602 20.5 9.99902s23.333 6.33301 37 9s27.167 4.66699 40.5 6
s23 1.33301 29 0zM155.001 616.004c-4.66699 -3.33301 -7.99805 -13.501 -9.99805 -30.501s-3.5 -37.333 -4.5 -61s-1.5 -48.834 -1.5 -75.501s-0.333008 -51 -1 -73c-1.33301 -57.333 -1.83301 -102.5 -1.5 -135.5s1 -57.667 2 -74s2.5 -26.666 4.5 -30.999
s4.66699 -6.5 8 -6.5c2.66699 0 7.16699 2 13.5 6s13.166 9 20.499 15s14.333 12.5 21 19.5s11.334 13.167 14.001 18.5s6 15.833 10 31.5s8 34 12 55s8 43.333 12 67s7.5 46.334 10.5 68.001s5.33301 41 7 58s2.5 29.167 2.5 36.5c-0.666992 14 -6.33398 28.333 -17.001 43
s-22.834 27.667 -36.501 39s-27 20 -40 26s-21.5 7.33301 -25.5 4z" />
    <glyph glyph-name="E" unicode="E" horiz-adv-x="349" 
d="M335 573c-2.66699 -3.33301 -19 -3.66797 -49 -1.00098l-142 13c0 -22 0.166992 -49 0.5 -81s0.166016 -66.333 -0.500977 -103c50 -4.66699 89 -9 117 -13s42.667 -6.66699 44 -8c2.66699 -2.66699 3.66699 -8.16699 3 -16.5s-2.33398 -17.5 -5.00098 -27.5
s-6 -19.5 -10 -28.5s-8 -14.833 -12 -17.5c-3.33301 -1.33301 -16.5 -3.16602 -39.5 -5.49902s-55.5 -4.5 -97.5 -6.5c0 -28.667 -0.166992 -57 -0.5 -85s-0.833008 -53.667 -1.5 -77c64.667 -0.666992 111.834 -1.83398 141.501 -3.50098s45.834 -3.83398 48.501 -6.50098
c2.66699 -3.33301 2.83398 -9.66602 0.500977 -18.999s-6 -19.166 -11 -29.499s-10.333 -20.5 -16 -30.5s-10.167 -17 -13.5 -21c-1.33301 -1.33301 -9.33301 -1.83301 -24 -1.5s-31 1.16602 -49 2.49902s-35.333 2.83301 -52 4.5s-27.667 3.16699 -33 4.5
c-10 3.33301 -20.667 8.83301 -32 16.5s-20.333 17.5 -27 29.5c-1.33301 3.33301 -3.5 14.5 -6.5 33.5s-6.16699 43.167 -9.5 72.5s-6.66602 62.333 -9.99902 99l-10 112c-3.33301 38 -6.33301 75.333 -9 112s-4.83398 69.834 -6.50098 99.501s-2.5 54.334 -2.5 74.001
s1 31.5 3 35.5c2 5.33301 11.333 9.33301 28 12s36.667 4.5 60 5.5s48.5 1.16699 75.5 0.5s52.167 -1.83398 75.5 -3.50098s43 -3.66699 59 -6s25 -4.5 27 -6.5c2.66699 -3.33301 4.16699 -11 4.5 -23s-0.333984 -25.167 -2.00098 -39.5s-4 -28 -7 -41
s-6.16699 -21.5 -9.5 -25.5z" />
    <glyph glyph-name="F" unicode="F" horiz-adv-x="316" 
d="M139 312c0 -8.66699 -0.165039 -22.333 -0.498047 -41s-0.833008 -39.667 -1.5 -63s-1.5 -47.5 -2.5 -72.5s-2.5 -47.667 -4.5 -68s-4.16699 -37.166 -6.5 -50.499s-5.16602 -20 -8.49902 -20c-10 0 -19.5 7.16699 -28.5 21.5s-18.167 29.833 -27.5 46.5
c-2 4 -4.16699 15.833 -6.5 35.5s-4.66602 44.5 -6.99902 74.5s-4.5 63.333 -6.5 100l-6 112c-2 38 -3.5 75.333 -4.5 112s-1.83301 69.667 -2.5 99s-0.666992 53.833 0 73.5s2 31.167 4 34.5c2.66699 4.66699 12 8.16699 28 10.5s35.5 3.5 58.5 3.5
s47.833 -0.666992 74.5 -2s51.5 -3.16602 74.5 -5.49902s42.333 -4.83301 58 -7.5s24.5 -5 26.5 -7c2.66699 -2.66699 3.16699 -9.83398 1.5 -21.501s-4.33398 -24.334 -8.00098 -38.001s-8 -26.5 -13 -38.5s-9.16699 -19.667 -12.5 -23s-18.833 -3 -46.5 1
s-71.834 8.66699 -132.501 14v-167c46.667 -4 83.167 -7.66699 109.5 -11s40.166 -5.66602 41.499 -6.99902c2.66699 -2.66699 3.66699 -8 3 -16s-2.33398 -16.5 -5.00098 -25.5s-6 -17.333 -10 -25s-8 -12.834 -12 -15.501c-2 -1.33301 -13.833 -3.33301 -35.5 -6
s-52.167 -5 -91.5 -7z" />
    <glyph glyph-name="G" unicode="G" horiz-adv-x="387" 
d="M370 310c4 -3.33301 6.99902 -10.3359 8.99902 -21.0029s3 -22.334 3 -35.001s-1 -24.334 -3 -35.001s-5 -17 -9 -19c-2 -1.33301 -6.83301 -1.66602 -14.5 -0.999023s-16.5 2 -26.5 4c1.33301 -11.333 2.33301 -22.666 3 -33.999s1 -20.666 1 -27.999
c0 -12.667 -2.5 -29 -7.5 -49s-11.5 -39.5 -19.5 -58.5s-16.5 -35.167 -25.5 -48.5s-17.5 -19.666 -25.5 -18.999c-5.33301 0 -12.833 2.16699 -22.5 6.5s-20.5 9.66602 -32.5 15.999s-24.5 13.5 -37.5 21.5s-24.833 15.833 -35.5 23.5s-19.834 14.834 -27.501 21.501
s-12.5 12 -14.5 16c-3.33301 6 -7.66602 20.333 -12.999 43s-10.666 50.5 -15.999 83.5s-10 69.333 -14 109s-6 79.5 -6 119.5s0.666992 79.333 2 118s3.83301 73.5 7.5 104.5s8.66699 56 15 75s14.166 29.167 23.499 30.5c28 2.66699 58.167 -1.33301 90.5 -12
s62.5 -24.334 90.5 -41.001s51.333 -34 70 -52s28.667 -32.667 30 -44c0.666992 -11.333 -0.666016 -23.833 -3.99902 -37.5s-7.33301 -27 -12 -40s-9.5 -24.667 -14.5 -35s-8.83301 -17.5 -11.5 -21.5c-3.33301 -4.66699 -7.5 -9.66699 -12.5 -15s-10 -10 -15 -14
s-10 -6.83301 -15 -8.5s-9.5 -1.16699 -13.5 1.5c-2.66699 2 -5.16699 8.33301 -7.5 19s-4.66602 23.5 -6.99902 38.5s-4.5 31 -6.5 48l-5.5 47.5c-1.66699 14.667 -3.16699 27 -4.5 37s-2.33301 15.667 -3 17c-1.33301 2 -3.5 4 -6.5 6s-6.5 3.66699 -10.5 5
s-7.66699 1.83301 -11 1.5s-6 -2.16602 -8 -5.49902s-5.66699 -15.666 -11 -36.999s-10.5 -48 -15.5 -80s-9.5 -67.5 -13.5 -106.5s-6 -78.167 -6 -117.5c0 -28 0.833008 -57.167 2.5 -87.5s4 -58 7 -83s6.66699 -45.833 11 -62.5s8.83301 -25 13.5 -25
c4.66699 -0.666992 11 4.16602 19 14.499s15.667 22.333 23 36s14.166 27 20.499 40s10.5 22.167 12.5 27.5l10.5 22.5c3.66699 7.66699 7.83398 15.167 12.501 22.5c-10.667 2.66699 -21.167 5.66699 -31.5 9l-28.5 9.5c-8.66699 3 -15.834 6 -21.501 9
s-9.16699 5.5 -10.5 7.5c-2 3.33301 -3.33301 7.83301 -4 13.5s-0.833984 11.334 -0.500977 17.001s1 11 2 16l2.5 12.5c1.33301 4.66699 10.5 8 27.5 10s36 3 57 3s40.833 -0.833008 59.5 -2.5s30.334 -4.16699 35.001 -7.5z" />
    <glyph glyph-name="H" unicode="H" horiz-adv-x="458" 
d="M431 279c1.33301 -2.66699 1.33008 -9.83398 -0.00292969 -21.501s-3.5 -24.167 -6.5 -37.5s-6 -25.833 -9 -37.5s-5.16699 -18.5 -6.5 -20.5c-3.33301 0 -6.83301 0.166992 -10.5 0.5s-7.16699 0.5 -10.5 0.5s-7 0.333008 -11 1c-2 -28 -4.33301 -54.167 -7 -78.5
s-5.33398 -45.166 -8.00098 -62.499s-5 -31.166 -7 -41.499s-4 -15.5 -6 -15.5c-5.33301 -1.33301 -11.166 0.833984 -17.499 6.50098s-12.5 12.5 -18.5 20.5s-11.333 16.5 -16 25.5s-7.33398 16.833 -8.00098 23.5c-0.666992 13.333 -1.16699 27.5 -1.5 42.5
s-0.833008 28.833 -1.5 41.5c-0.666992 14.667 -1 29.334 -1 44.001c-12.667 1.33301 -25 2.5 -37 3.5s-24 2.16699 -36 3.5c-6 1.33301 -12 2.16602 -18 2.49902s-11.667 1.16602 -17 2.49902c-1.33301 -30.667 -2.66602 -59 -3.99902 -85s-2.83301 -48.667 -4.5 -68
s-3.33398 -34.5 -5.00098 -45.5s-3.5 -16.833 -5.5 -17.5c-5.33301 -0.666992 -11.666 1.66602 -18.999 6.99902s-14.166 12 -20.499 20s-12 16.333 -17 25s-7.83301 16.334 -8.5 23.001l-4 53.5c-1.33301 18.333 -2.66602 35.166 -3.99902 50.499l-4 53
c-5.33301 0.666992 -10.666 1.66699 -15.999 3c-4.66699 1.33301 -9.5 2.33301 -14.5 3s-9.5 1.66699 -13.5 3c-2.66699 1.33301 -6.33398 4.16602 -11.001 8.49902s-9.33398 9.16602 -14.001 14.499s-8.66699 10.5 -12 15.5s-5 8.83301 -5 11.5c0 1.33301 7.5 3 22.5 5
s34.833 3.66699 59.5 5c-2.66699 38.667 -5.16699 78.167 -7.5 118.5s-4.16602 78 -5.49902 113s-2 65.667 -2 92s1 44.5 3 54.5c2.66699 14 9.16699 27.5 19.5 40.5s21.5 24.5 33.5 34.5s23.333 17.667 34 23s17.667 7 21 5c2 -2 3.83301 -10 5.5 -24s3 -32.667 4 -56
s1.5 -50.333 1.5 -81v-97.5c0 -34.333 -0.5 -70 -1.5 -107s-1.83301 -73.5 -2.5 -109.5c17.333 1.33301 34.5 2.33301 51.5 3s33.833 1.66699 50.5 3c-0.666992 38 -1.16699 76.667 -1.5 116s-0.5 76 -0.5 110s0.666992 63.667 2 89s3 43 5 53
c3.33301 14 10.5 27.333 21.5 40s22.667 23.834 35 33.501s24 16.834 35 21.501s18.167 5.66699 21.5 3c3.33301 -2 5.33301 -17.5 6 -46.5s0.166992 -65.5 -1.5 -109.5s-4 -93.167 -7 -147.5s-6.5 -107.833 -10.5 -160.5c26.667 0 41.334 -0.666992 44.001 -2z" />
    <glyph glyph-name="I" unicode="I" horiz-adv-x="288" 
d="M284 622c-11.333 -0.666992 -22.499 -0.832031 -33.499 -0.499023s-21.167 0.5 -30.5 0.5c-10.667 0 -20.667 0.333008 -30 1c1.33301 -35.333 1.83301 -76.5 1.5 -123.5s-1 -95.167 -2 -144.5s-2.33301 -97.5 -4 -144.5s-3.5 -88.5 -5.5 -124.5
c25.333 0.666992 47.666 0.666992 66.999 0s29.666 -1.66699 30.999 -3c1.33301 -2 1.33301 -8.5 0 -19.5s-3.33301 -23 -6 -36s-5.33398 -25 -8.00098 -36s-4.66699 -17.833 -6 -20.5c-18.667 -0.666992 -35.834 -0.833984 -51.501 -0.500977
s-29.167 1.16602 -40.5 2.49902c-13.333 0.666992 -25.333 1.66699 -36 3c-10.667 2 -22 4.33301 -34 7c-10 2.66699 -21.5 6 -34.5 10s-26.167 9 -39.5 15c-2.66699 1.33301 -5.83398 5 -9.50098 11s-7.33398 12.5 -11.001 19.5s-6.66699 13.833 -9 20.5
s-3.5 11.334 -3.5 14.001c0 0.666992 3 1.5 9 2.5s14.333 2 25 3s22.667 2 36 3s27.666 1.83301 42.999 2.5l-5.5 76.5c-2.33301 31.667 -4.66602 66 -6.99902 103l-7 114c-2.33301 39 -4.16602 75.333 -5.49902 109s-2 63.167 -2 88.5s1 43 3 53
c0.666992 1.33301 1 2.5 1 3.5s0.333008 2.16699 1 3.5l-28 7c-8 2 -16.667 4.33301 -26 7s-18.666 5.66699 -27.999 9c-2.66699 1.33301 -6.16699 5 -10.5 11s-8.66602 12.667 -12.999 20s-8 14.166 -11 20.499s-4.5 10.833 -4.5 13.5c0 1.33301 8.5 2.83301 25.5 4.5
s38.167 3.16699 63.5 4.5s52.833 2.33301 82.5 3s57.334 1 83.001 1s47.334 -0.166992 65.001 -0.5s27.167 -1.16602 28.5 -2.49902c2 -2 2.16699 -8.5 0.5 -19.5s-4 -23 -7 -36s-6 -25 -9 -36s-5.5 -17.5 -7.5 -19.5z" />
    <glyph glyph-name="J" unicode="J" horiz-adv-x="337" 
d="M-20 203c0 5.33301 1.83301 13.332 5.5 23.999s8 21.334 13 32.001s10 19.667 15 27s8.83301 10 11.5 8c2 -1.33301 6.33301 -7 13 -17l23.5 -35.5l29.5 -44c10.667 -15.667 20.834 -29.834 30.501 -42.501s18.167 -22.834 25.5 -30.501s12.666 -10.5 15.999 -8.5
c4.66699 2.66699 9.16699 16.334 13.5 41.001s8.16602 55 11.499 91s6.33301 74.833 9 116.5s5 81 7 118s3.5 69 4.5 96s1.83301 43.833 2.5 50.5c0 6 3.5 16.5 10.5 31.5s15.167 29.833 24.5 44.5s18.5 27 27.5 37s15.833 13.333 20.5 10c2 -2 3.5 -13.5 4.5 -34.5
s1.83301 -48.167 2.5 -81.5s0.666992 -71.166 0 -113.499s-1.5 -85.5 -2.5 -129.5s-2.5 -87.5 -4.5 -130.5s-4.16699 -81.667 -6.5 -116s-5.16602 -63 -8.49902 -86s-7 -36.833 -11 -41.5c-2.66699 -3.33301 -10.667 -7.33301 -24 -12s-27.833 -8.83398 -43.5 -12.501
s-30.834 -6.5 -45.501 -8.5s-25 -2 -31 0c-13.333 4 -28.166 16.5 -44.499 37.5s-32 43.833 -47 68.5s-27.5 47.834 -37.5 69.501s-15 35.5 -15 41.5z" />
    <glyph glyph-name="K" unicode="K" 
d="M244 367l26 -54.0049l37.5 -79.5l41 -89l36.5 -84c10.667 -25.667 19 -47.167 25 -64.5s8 -27 6 -29c-4 -3.33301 -9.83301 -5 -17.5 -5s-15.334 1 -23.001 3s-15 4.66699 -22 8s-11.833 7 -14.5 11l-71 110l-54 87l-46 77c-4.66699 -7.33301 -9.5 -14.5 -14.5 -21.5
l-14.5 -19.5c-2 -34 -4 -66 -6 -96s-4 -56.333 -6 -79s-4.16699 -40.5 -6.5 -53.5s-4.5 -19.5 -6.5 -19.5c-5.33301 -1.33301 -11.5 0.666992 -18.5 6s-13.667 12 -20 20s-11.833 16.5 -16.5 25.5s-7.66699 16.833 -9 23.5c-4 66.667 -7.33301 126.334 -10 179.001
s-4.66699 99.334 -6 140.001s-2.33301 76 -3 106s-1 55.667 -1 77c0 50 1.66699 84.333 5 103c2.66699 14 9.33398 27.5 20.001 40.5s22.167 24.333 34.5 34s23.833 17 34.5 22s17.667 6.5 21 4.5c2.66699 -2 4.66699 -14.5 6 -37.5s1.66602 -52.167 0.999023 -87.5
s-1.66699 -74.833 -3 -118.5s-3 -87.5 -5 -131.5l71.5 134l67.5 118c20.667 34.667 38.334 62.834 53.001 84.501s24 32.5 28 32.5s9 -4.16699 15 -12.5s11.5 -19.166 16.5 -32.499s8.5 -27.666 10.5 -42.999s0.666992 -30 -4 -44c-2.66699 -8 -9 -20.5 -19 -37.5
s-22.333 -36.5 -37 -58.5l-48.5 -71.5z" />
    <glyph glyph-name="L" unicode="L" horiz-adv-x="323" 
d="M43 -31c-1.33301 3.33301 -2.00195 15.334 -2.00195 36.001s0.166992 46.667 0.5 78s1 66.5 2 105.5l3 119c1 40.333 2.16699 79.666 3.5 117.999l3.5 102.5l2.5 73.5c0.666992 19 1.33398 29.167 2.00098 30.5c0.666992 2.66699 3.66699 9.33398 9 20.001
s11.5 21.834 18.5 33.501s14.167 22 21.5 31s13.666 13.167 18.999 12.5c2 -0.666992 3.83301 -13.834 5.5 -39.501s3.33398 -58.5 5.00098 -98.5s3 -84.167 4 -132.5l3 -141c1 -45.667 1.83301 -87 2.5 -124s1.33398 -64.167 2.00098 -81.5
c21.333 -2 42.833 -3.66699 64.5 -5s41.167 -2.83301 58.5 -4.5s31.5 -3.16699 42.5 -4.5s16.833 -2.33301 17.5 -3c2 -2.66699 4.83301 -8.83398 8.5 -18.501s7.16699 -20 10.5 -31s5.83301 -21.167 7.5 -30.5s1.16699 -15 -1.5 -17c-76.667 -14 -136 -23.333 -178 -28
s-73 -7 -93 -7c-23.333 0 -37.333 2 -42 6z" />
    <glyph glyph-name="M" unicode="M" horiz-adv-x="531" 
d="M513 690c1.33301 -2.66699 2.16699 -11.9941 2.5 -27.9941s0.333008 -35.333 0 -58s-1.16602 -46.834 -2.49902 -72.501s-3 -49.834 -5 -72.501c-1.33301 -12.667 -3.5 -31.667 -6.5 -57s-6.5 -53.333 -10.5 -84l-12.5 -94.5c-4.33301 -32.333 -8.5 -62 -12.5 -89
s-7.5 -49.5 -10.5 -67.5s-5.16699 -27.667 -6.5 -29c-2.66699 -2 -7 -6.83301 -13 -14.5s-12.5 -15.334 -19.5 -23.001s-13.5 -13.834 -19.5 -18.501s-10 -5.33398 -12 -2.00098c-1.33301 6.66699 -2 27.334 -2 62.001c0 14.667 0.166992 33.167 0.5 55.5s1 49.5 2 81.5
s2.5 69.333 4.5 112l7 148l-35.5 -120l-27 -90.5l-19.5 -65c-5.33301 -17.667 -10 -32.167 -14 -43.5c-8.66699 -26.667 -14.334 -42.334 -17.001 -47.001c-2.66699 -0.666992 -6.83398 1.33301 -12.501 6s-12 11.5 -19 20.5s-14 19.833 -21 32.5s-12.833 26.667 -17.5 42
l-18 56l-26 78.5l-39 121.5c4 -54.667 7.33301 -102.667 10 -144s4.83398 -77.333 6.50098 -108s3 -56.5 4 -77.5s1.5 -38.5 1.5 -52.5c0.666992 -32 -0.333008 -50.333 -3 -55c-6.66699 0 -13.834 3.16699 -21.501 9.5s-15 14 -22 23s-13 17.833 -18 26.5
s-7.83301 15 -8.5 19c-0.666992 2.66699 -2.66699 15 -6 37s-7.16602 50.167 -11.499 84.5l-14 116c-5 43 -9.66699 86.833 -14 131.5s-7.83301 88.167 -10.5 130.5s-4 80.166 -4 113.499c0 5.33301 6.66699 12.5 20 21.5s28.5 17.667 45.5 26s32.833 15.666 47.5 21.999
s23.667 9.5 27 9.5c2.66699 0 5.5 -7.66699 8.5 -23s6.5 -34.666 10.5 -57.999l13 -78c4.66699 -28.667 10 -56 16 -82c4.66699 -26.667 10.334 -54.334 17.001 -83.001l18.5 -81.5c7 -29.667 14.833 -58.5 23.5 -86.5l25.5 110.5c7.66699 33 14.5 61.167 20.5 84.5l19 73
c12 52 23.833 93 35.5 123s19.167 47.667 22.5 53c2 2.66699 9.16699 3.33398 21.5 2.00098s25.833 -3.5 40.5 -6.5s28.167 -6.5 40.5 -10.5s19.166 -7.33301 20.499 -10z" />
    <glyph glyph-name="N" unicode="N" horiz-adv-x="427" 
d="M404 701c1.33301 -2.66699 2.16504 -11.9971 2.49805 -27.9971s0.333008 -35.333 0 -58s-1.16602 -46.834 -2.49902 -72.501s-3 -49.834 -5 -72.501c-4 -50.667 -8.66699 -100.667 -14 -150s-10.5 -93.666 -15.5 -132.999s-9.66699 -71.5 -14 -96.5
s-6.83301 -38.833 -7.5 -41.5c-1.33301 -3.33301 -4.33301 -8.33301 -9 -15s-9.66699 -13.167 -15 -19.5s-10.5 -11.833 -15.5 -16.5s-8.83301 -7 -11.5 -7c-5.33301 4.66699 -15 23 -29 55l-22 52.5c-8.66699 21 -18.667 46.833 -30 77.5l-39.5 108.5l-50.5 145.5
c4 -54.667 7.33301 -102.667 10 -144s4.83398 -77.333 6.50098 -108s2.83398 -56.5 3.50098 -77.5s1 -38.5 1 -52.5c0 -32 -1 -50.333 -3 -55c-6.66699 0 -13.834 3.16699 -21.501 9.5s-14.834 14 -21.501 23s-12.5 17.833 -17.5 26.5s-7.83301 15 -8.5 19
c-0.666992 2.66699 -2.66699 15 -6 37s-7.16602 50.167 -11.499 84.5l-14 116c-5 43 -9.66699 86.833 -14 131.5s-7.83301 88.167 -10.5 130.5s-4 80.166 -4 113.499c0 5.33301 6.66699 12.5 20 21.5s28.5 17.667 45.5 26s32.833 15.666 47.5 21.999s23.667 9.5 27 9.5
c2.66699 0 5.5 -7.66699 8.5 -23s6.33301 -34.666 10 -57.999s8 -49.333 13 -78s10.5 -56 16.5 -82c5.33301 -28 12 -59.667 20 -95c6.66699 -30 15.167 -66 25.5 -108s22.5 -88.667 36.5 -140c0 36 0.166992 74.333 0.5 115s0.833008 81 1.5 121s1.5 78.5 2.5 115.5
s2 69.833 3 98.5s2 51.667 3 69s1.83301 26.666 2.5 27.999c2 2.66699 8.33301 3.5 19 2.5s22.334 -3 35.001 -6s24.167 -6.66699 34.5 -11s16.166 -7.83301 17.499 -10.5z" />
    <glyph glyph-name="O" unicode="O" 
d="M51 644c3.33301 6 10.333 13.8359 21 23.5029s23.5 19.5 38.5 29.5s31.167 19.167 48.5 27.5s34.833 14 52.5 17s34.334 2.33301 50.001 -2s29.167 -13.833 40.5 -28.5c6 -7.33301 11.667 -22 17 -44s10.5 -48.5 15.5 -79.5s9.5 -65.333 13.5 -103s7.33301 -76 10 -115
s4.5 -77.333 5.5 -115s1 -72.334 0 -104.001s-3 -58.667 -6 -81s-7.5 -37.833 -13.5 -46.5c-12 -17.333 -30.667 -29 -56 -35s-52 -6.16699 -80 -0.5s-54.667 17.167 -80 34.5s-44 40.666 -56 69.999c-8 19.333 -14.5 45.666 -19.5 78.999s-8.83301 69.5 -11.5 108.5
s-4.16699 78.833 -4.5 119.5s0 78.167 1 112.5s2.66699 63.5 5 87.5s5.16602 39 8.49902 45zM247 137.003c4 4 6.83301 14.8359 8.5 32.5029s2.66699 38.667 3 63s0.333008 50.166 0 77.499s-0.5 52.666 -0.5 75.999c0 59.333 -2 105.333 -6 138s-8.66699 57 -14 73
c-6 18.667 -12.667 30.334 -20 35.001c-10 -2 -18.333 -5.16699 -25 -9.5s-12 -9.16602 -16 -14.499c-4.66699 -6 -8.33398 -12.333 -11.001 -19c-2 -6 -4.16699 -17.667 -6.5 -35s-4.5 -37.833 -6.5 -61.5s-3.83301 -49.334 -5.5 -77.001s-3 -54.834 -4 -81.501
s-1.66699 -51.834 -2 -75.501s-0.166016 -43.167 0.500977 -58.5c1.33301 -23.333 6.83301 -40.333 16.5 -51s20.167 -17.5 31.5 -20.5s22.5 -3.16699 33.5 -0.5s18.833 5.66699 23.5 9z" />
    <glyph glyph-name="P" unicode="P" horiz-adv-x="402" 
d="M270 334l-35.999 -20.9951l-31.5 -17c-11 -6 -20.167 -10.667 -27.5 -14c-1.33301 -69.333 -2.83301 -122.666 -4.5 -159.999s-2.83398 -64.666 -3.50098 -81.999c-1.33301 -20.667 -2.66602 -32.334 -3.99902 -35.001c-1.33301 0 -5.33301 2.83301 -12 8.5
s-13.834 12.5 -21.501 20.5s-14.667 16 -21 24s-10.166 14 -11.499 18c-0.666992 8.66699 -2.33398 33.667 -5.00098 75c-1.33301 18 -2.66602 40.333 -3.99902 67l-5 97c-2 38 -4.16699 82.667 -6.5 134s-4.83301 110.333 -7.5 177c-12 0.666992 -21.833 1 -29.5 1
s-13.5 -0.166992 -17.5 -0.5s-7 -0.333008 -9 0s-3.66699 1.83301 -5 4.5c-2.66699 5.33301 -4.66699 14.5 -6 27.5s-2 25.5 -2 37.5c0 13.333 1.83301 26.666 5.5 39.999s8.16699 21.666 13.5 24.999c2 1.33301 7.16699 1.66602 15.5 0.999023s18.166 -2 29.499 -4
s23.666 -4.33301 36.999 -7s26 -5.33398 38 -8.00098s22.5 -5.16699 31.5 -7.5s15.5 -3.83301 19.5 -4.5c6.66699 -1.33301 19 -5.16602 37 -11.499s37.167 -14 57.5 -23s39.666 -18.667 57.999 -29s31.833 -20.5 40.5 -30.5c3.33301 -4 6.5 -15.333 9.5 -34
s5.33301 -38.834 7 -60.501s2.33398 -42.334 2.00098 -62.001s-2.16602 -32.5 -5.49902 -38.5c-2.66699 -4 -7.66699 -10.333 -15 -19s-16.5 -18.167 -27.5 -28.5s-23.5 -20.833 -37.5 -31.5s-29.333 -20.334 -46 -29.001zM178.001 355.005
c6 3.33301 13.501 9.83301 22.501 19.5s18.5 20.667 28.5 33s20 25.333 30 39l27.5 38.5c8.33301 12 15 22.5 20 31.5s7.5 14.833 7.5 17.5c0 4 -3 9.16699 -9 15.5s-14.5 12.833 -25.5 19.5s-24.333 13.167 -40 19.5s-32.834 11.833 -51.501 16.5z" />
    <glyph glyph-name="Q" unicode="Q" horiz-adv-x="400" 
d="M373 398c-5.33301 -81.333 -14.1689 -152.834 -26.502 -214.501s-25.166 -109.834 -38.499 -144.501c7.33301 -8.66699 14.833 -18.167 22.5 -28.5s14.667 -20.333 21 -30s11.666 -18.167 15.999 -25.5s6.5 -12.666 6.5 -15.999c0 -5.33301 -3.5 -12.333 -10.5 -21
s-15.167 -17 -24.5 -25s-18.333 -14.5 -27 -19.5s-15 -6.83301 -19 -5.5c-2 0.666992 -5.5 5 -10.5 13s-10.167 18 -15.5 30l-16.5 38.5c-5.66699 13.667 -10.5 26.5 -14.5 38.5c-12.667 2.66699 -26.5 6.66699 -41.5 12s-29.167 10.833 -42.5 16.5s-24.833 11.5 -34.5 17.5
s-15.834 11 -18.501 15c-3.33301 5.33301 -8.33301 18.666 -15 39.999s-13.667 47.833 -21 79.5s-14 66.834 -20 105.501s-9.33301 78 -10 118c-1.33301 40 -2.16602 79.667 -2.49902 119s0.333984 74.666 2.00098 105.999s4.83398 57.333 9.50098 78s11.667 32.667 21 36
c18.667 6 39 9.33301 61 10s44 -0.666016 66 -3.99902s43.333 -8.33301 64 -15s39 -14 55 -22s29 -16.333 39 -25s15.667 -16.667 17 -24c2 -1.33301 3.66699 -10.333 5 -27s2.5 -37.167 3.5 -61.5s1.5 -51.166 1.5 -80.499s-0.666992 -57.333 -2 -84zM199.997 50.999
c2.66699 0.666992 7.33203 4.33105 13.999 10.998s13.5 20 20.5 40s13.667 48.333 20 85s10.833 85.667 13.5 147c2.66699 60.667 2.66699 111.5 0 152.5s-6.5 74 -11.5 99s-9.83301 43 -14.5 54s-7.66699 17.167 -9 18.5s-3.5 2.83301 -6.5 4.5s-6.5 2.66699 -10.5 3
s-7.66699 -0.166992 -11 -1.5s-6 -4 -8 -8s-5.33301 -17.167 -10 -39.5s-9.16699 -50.333 -13.5 -84s-8 -70.667 -11 -111s-4.16699 -80.166 -3.5 -119.499c0.666992 -28 2.33398 -57 5.00098 -87s5.83398 -57.333 9.50098 -82s7.66699 -44.667 12 -60
s9.16602 -22.666 14.499 -21.999z" />
    <glyph glyph-name="R" unicode="R" horiz-adv-x="423" 
d="M393 635c3.33301 -4 6.66504 -15.3311 9.99805 -33.998s5.83301 -39 7.5 -61s2.33398 -42.667 2.00098 -62s-2.16602 -32 -5.49902 -38c-2.66699 -4 -9.33398 -11.167 -20.001 -21.5l-37 -34.5l-43.5 -37.5l-39.5 -31.5l20 -41.5l26 -54l27.5 -58.5l24.5 -54.5l18 -41
c4.66699 -11 7 -17.5 7 -19.5c0 -3.33301 -1.5 -8 -4.5 -14s-6.83301 -11.5 -11.5 -16.5s-9.66699 -9.16699 -15 -12.5s-10.333 -4 -15 -2c-2.66699 0.666992 -7.66699 6.16699 -15 16.5l-26.5 39l-34 53.5l-37.5 60.5l-36 59l-30 50.5
c-1.33301 -69.333 -2.83301 -122.666 -4.5 -159.999s-2.83398 -64.666 -3.50098 -81.999c-1.33301 -20.667 -2.66602 -32.334 -3.99902 -35.001c-2 0 -6.33301 2.83301 -13 8.5s-13.667 12.5 -21 20.5s-14.166 16 -20.499 24s-10.166 14 -11.499 18
c-1.33301 8.66699 -3.33301 33.667 -6 75c-1.33301 18 -2.66602 40.333 -3.99902 67s-2.83301 59 -4.5 97s-3.83398 82.667 -6.50098 134s-5.33398 110.333 -8.00098 177c-12 0.666992 -21.667 0.833984 -29 0.500977s-13 -0.833008 -17 -1.5s-7 -0.833984 -9 -0.500977
s-3.66699 1.83301 -5 4.5c-2.66699 5.33301 -4.66699 14.5 -6 27.5s-2 25.5 -2 37.5c0 13.333 1.83301 26.666 5.5 39.999s8.16699 21.666 13.5 24.999c2.66699 2 12 1.83301 28 -0.5s33.667 -5.16602 53 -8.49902s37.833 -7 55.5 -11s29.167 -6.66699 34.5 -8l23 -6.5
c10.667 -3 23 -7 37 -12l44.5 -16.5c15.667 -6 30.5 -12.333 44.5 -19s26.667 -13.334 38 -20.001s20 -13.334 26 -20.001zM167.999 353.002c6 3.33301 13.999 9.83203 23.999 19.499l32.5 33l35.5 39l32.5 38.5c9.66699 12 17.5 22.333 23.5 31s9 14.334 9 17.001
c0 4.66699 -4.16699 10.167 -12.5 16.5s-19.166 12.833 -32.499 19.5s-29 13.167 -47 19.5s-36.333 11.833 -55 16.5z" />
    <glyph glyph-name="S" unicode="S" horiz-adv-x="392" 
d="M381 605c0.666992 -10 -0.508789 -25.0029 -3.50879 -45.0029s-7.83301 -40 -14.5 -60s-15.167 -37.5 -25.5 -52.5s-22.166 -22.5 -35.499 -22.5c-6.66699 0 -12.334 4 -17.001 12s-8.66699 18.333 -12 31s-6 26.834 -8 42.501s-3.83301 30.834 -5.5 45.501
s-3 28.167 -4 40.5s-1.83301 21.5 -2.5 27.5c-2.66699 4 -7.5 8.16699 -14.5 12.5s-13.167 6.5 -18.5 6.5c-6 0 -13.167 -5.66699 -21.5 -17s-16.166 -24.666 -23.499 -39.999s-13.333 -30.5 -18 -45.5s-6.66699 -26.5 -6 -34.5c0 -5.33301 5.16699 -14.666 15.5 -27.999
s23.166 -29 38.499 -47l50 -58.5c18 -21 34.667 -41.833 50 -62.5s28.333 -40.334 39 -59.001s16.334 -34.667 17.001 -48c1.33301 -16 -2.16699 -36.5 -10.5 -61.5s-18.833 -49.167 -31.5 -72.5s-26.167 -43.5 -40.5 -60.5s-27.166 -25.833 -38.499 -26.5
c-7.33301 -0.666992 -17 2.5 -29 9.5s-25 16.167 -39 27.5s-28.167 23.833 -42.5 37.5s-27.666 27.167 -39.999 40.5s-22.666 25.5 -30.999 36.5s-13.166 19.167 -14.499 24.5c-2.66699 8 -4.16699 18.833 -4.5 32.5s0.333984 27 2.00098 40s4 24.333 7 34
s6.83301 14.5 11.5 14.5c3.33301 0 8.83301 -4.33301 16.5 -13s16.5 -19.667 26.5 -33l32.5 -43.5l33.5 -43.5c10.667 -13.333 20.334 -24.5 29.001 -33.5s15.667 -13.167 21 -12.5c4 0 8.33301 3.16699 13 9.5s9 14 13 23s7.33301 18.167 10 27.5s4 16.666 4 21.999
c-0.666992 8 -7.16699 19.5 -19.5 34.5s-27.666 32 -45.999 51l-59 59.5l-59 59.5c-18.333 19 -33.666 36.167 -45.999 51.5s-18.833 27 -19.5 35s1.66602 20.5 6.99902 37.5s12.5 36.167 21.5 57.5s19.167 43 30.5 65s23 42.333 35 61s23.667 33.834 35 45.501
s21.333 17.5 30 17.5c11.333 0 24.333 -2.5 39 -7.5s29.834 -11.667 45.501 -20s31 -17.833 46 -28.5s28.5 -21.5 40.5 -32.5s21.667 -22 29 -33s11.333 -21.167 12 -30.5z" />
    <glyph glyph-name="T" unicode="T" horiz-adv-x="314" 
d="M352 738c2 -3.33301 3.16602 -11.001 3.49902 -23.001s-0.166992 -25 -1.5 -39s-3.16602 -27.5 -5.49902 -40.5s-4.83301 -21.5 -7.5 -25.5c-2 -3.33301 -14.167 -4.5 -36.5 -3.5s-54.166 4.16699 -95.499 9.5c0 -26 -0.333008 -59.333 -1 -100
s-1.83398 -84.167 -3.50098 -130.5l-5 -139.5c-1.66699 -46.667 -3.5 -89 -5.5 -127s-4 -69 -6 -93s-3.66699 -36.667 -5 -38c-2.66699 -2 -7.16699 -1.16699 -13.5 2.5s-12.833 8.83398 -19.5 15.501s-12.834 13.5 -18.501 20.5s-9.5 13.167 -11.5 18.5
c-0.666992 2.66699 -1.83398 15.667 -3.50098 39s-3.5 52.666 -5.5 87.999l-7 118l-8 129c-2.66699 42.667 -5.5 82.667 -8.5 120l-7.5 93c-45.333 4.66699 -78 9.33398 -98 14.001s-31.333 8.33398 -34 11.001s-5.5 7.83398 -8.5 15.501s-5.5 15.5 -7.5 23.5
s-3.16699 15.5 -3.5 22.5s0.5 11.5 2.5 13.5c1.33301 1.33301 12.5 2.66602 33.5 3.99902s46.833 2.66602 77.5 3.99902s63.834 2.33301 99.501 3s68.834 1 99.501 1s56.5 -0.5 77.5 -1.5s32.167 -2.5 33.5 -4.5z" />
    <glyph glyph-name="U" unicode="U" horiz-adv-x="423" 
d="M328 770c2 -2.66699 4.50781 -16.167 7.50781 -40.5s6.33301 -54.5 10 -90.5l11.5 -117.5c4 -42.333 7.66699 -83 11 -122l9 -104c2.66699 -30.333 4.66699 -51.5 6 -63.5c2 -18 5.16699 -40 9.5 -66l13 -76.5c4.33301 -25 7.83301 -46.833 10.5 -65.5s3 -29.667 1 -33
s-8.66699 -3 -20 1s-23.666 9.66699 -36.999 17s-25.833 15.333 -37.5 24s-19.167 16 -22.5 22c-3.33301 6.66699 -7 17.834 -11 33.501s-8.33301 36.5 -13 62.5c-8.66699 -16 -18.334 -32.333 -29.001 -49s-21 -32 -31 -46s-19.167 -25.5 -27.5 -34.5
s-14.5 -13.167 -18.5 -12.5c-6.66699 0.666992 -16.834 9.5 -30.501 26.5s-27.5 36.333 -41.5 58s-26.5 42.334 -37.5 62.001s-17.167 32.834 -18.5 39.501c-0.666992 4 -1 13.167 -1 27.5s0.166992 31.5 0.5 51.5s1 41.833 2 65.5l3 70c1 23 2 44.833 3 65.5
s2.16699 37.667 3.5 51c1.33301 20.667 3.16602 42.167 5.49902 64.5s4.66602 43.166 6.99902 62.499s4.66602 35.833 6.99902 49.5s4.5 22.167 6.5 25.5c1.33301 2.66699 5.5 4.33398 12.5 5.00098s14.833 0.166992 23.5 -1.5s16.667 -4.33398 24 -8.00098
s12.333 -8.16699 15 -13.5c1.33301 -3.33301 2.16602 -16.5 2.49902 -39.5s0.5 -50.5 0.5 -82.5s-0.166992 -66.5 -0.5 -103.5s-0.833008 -71.833 -1.5 -104.5s-1.16699 -60.5 -1.5 -83.5s-0.5 -36.5 -0.5 -40.5c0 -7.33301 5.16699 -18.833 15.5 -34.5
s19.833 -34.5 28.5 -56.5l63 71c-0.666992 18.667 -1.16699 42.667 -1.5 72s-0.833008 60.5 -1.5 93.5s-1.16699 66.333 -1.5 100s-0.5 64.5 -0.5 92.5s0.166992 51.167 0.5 69.5s0.833008 28.833 1.5 31.5c2 5.33301 6.16699 13.166 12.5 23.499s13.166 20 20.499 29
s14.666 16.167 21.999 21.5s12.666 5.66602 15.999 0.999023z" />
    <glyph glyph-name="V" unicode="V" horiz-adv-x="362" 
d="M133 96c-12.667 43.333 -26.3311 94.3369 -40.998 153.004c-12.667 50 -27.334 111 -44.001 183s-34.334 154.667 -53.001 248c0 6.66699 3.66699 14.5 11 23.5s16.166 17.5 26.499 25.5s21.166 15 32.499 21s21 9 29 9c4.66699 -5.33301 11 -28 19 -68l12.5 -65
c5 -26 10.5 -58.167 16.5 -96.5l20 -134.5l25 -179c6.66699 46 13.334 89.5 20.001 130.5l18 109.5l18 102c2.66699 19.333 5.83398 39.833 9.50098 61.5s7.5 41.5 11.5 59.5s8.16699 33 12.5 45s9.16602 18 14.499 18c4.66699 0.666992 12.5 0 23.5 -2
s21.833 -4.83301 32.5 -8.5s20.167 -7.83398 28.5 -12.501s12.5 -9.33398 12.5 -14.001c0 -2.66699 -2.5 -15.334 -7.5 -38.001s-12 -51.5 -21 -86.5l-30 -118.5l-35 -134.5l-36.5 -133.5l-33 -115.5c-10 -33.667 -18.5 -60.834 -25.5 -81.501s-11.833 -31 -14.5 -31
s-9.66699 11.833 -21 35.5s-21.666 55.167 -30.999 94.5z" />
    <glyph glyph-name="W" unicode="W" horiz-adv-x="450" 
d="M447 746c2.66699 -2.66699 3.49707 -15.8262 2.49707 -39.4932s-3.5 -53.834 -7.5 -90.501s-8.83301 -78.334 -14.5 -125.001s-11.834 -94 -18.501 -142s-13.5 -94.833 -20.5 -140.5s-13.667 -86.334 -20 -122.001s-12 -64.334 -17 -86.001s-8.83301 -32.5 -11.5 -32.5
c-4.66699 0 -10 2.66699 -16 8s-11.833 11.833 -17.5 19.5s-10.667 15.334 -15 23.001s-6.83301 13.834 -7.5 18.501l-11.5 50c-5.66699 24.667 -11.167 55.334 -16.5 92.001c-3.33301 24 -6.66602 49.333 -9.99902 76l-10.5 74.5c-3.66699 27 -7.16699 54.167 -10.5 81.5
l-10 -62l-12 -69c-4.66699 -26 -9.66699 -52.333 -15 -79c-4.66699 -28 -9.66699 -55.5 -15 -82.5s-10.666 -51.333 -15.999 -73s-10.166 -39.167 -14.499 -52.5s-7.83301 -20.333 -10.5 -21c-4.66699 -1.33301 -10.334 0.166992 -17.001 4.5s-13.334 10.166 -20.001 17.499
s-12.5 15.166 -17.5 23.499s-8.16699 15.5 -9.5 21.5c-9.33301 65.333 -17.166 124 -23.499 176l-16.5 138.5c-4.66699 40.333 -8.33398 75.166 -11.001 104.499l-7 76c-4 49.333 -5.66699 83.666 -5 102.999c2 14 7.33301 28.167 16 42.5s18.334 27.166 29.001 38.499
s20.834 20.166 30.501 26.499s16.167 8.5 19.5 6.5c2 -1.33301 4 -10.166 6 -26.499s3.66699 -37.666 5 -63.999s2.66602 -56.5 3.99902 -90.5s2.5 -69.5 3.5 -106.5l3 -111.5c1 -37.333 2.16699 -72.333 3.5 -105c2.66699 16.667 5.5 35.667 8.5 57
s6.33301 43.666 10 66.999l10.5 69.5l9.5 63.5c3 19.333 6 36 9 50s5.5 23.667 7.5 29c6.66699 15.333 14.5 28.666 23.5 39.999s17.667 20.666 26 27.999s16 12.833 23 16.5s11.833 5.16699 14.5 4.5c0.666992 0 2 -6.83301 4 -20.5s4.16699 -31.5 6.5 -53.5l8 -75.5
l9.5 -88l10 -90c3.33301 -29.667 7 -56.5 11 -80.5c1.33301 22 2.66602 46.5 3.99902 73.5s2.83301 54.5 4.5 82.5l5 82c1.66699 26.667 3.33398 51 5.00098 73s3.33398 40.833 5.00098 56.5s3.5 26.167 5.5 31.5c4 13.333 11 25.833 21 37.5s20.5 21.334 31.5 29.001
s21.333 13 31 16s15.834 3.16699 18.501 0.5z" />
    <glyph glyph-name="X" unicode="X" horiz-adv-x="347" 
d="M392 750c2 -2.66699 -1.49512 -16.165 -10.4951 -40.498s-21.5 -55.5 -37.5 -93.5l-56 -128.5l-66 -144.5l53 -138.5l43.5 -120c12.333 -35 21.666 -63.333 27.999 -85s8.16602 -32.834 5.49902 -33.501c-4.66699 -0.666992 -11.5 1.66602 -20.5 6.99902
s-18.5 12 -28.5 20s-19.167 16.333 -27.5 25s-14.5 16.334 -18.5 23.001l-31 63.5l-29 59.5l-29 62l-49.5 -100l-41.5 -82c-12 -23.333 -22.167 -41.833 -30.5 -55.5s-13.5 -20.5 -15.5 -20.5c-6 0 -11.167 3.33301 -15.5 10s-8 14.667 -11 24s-4.83301 18.833 -5.5 28.5
s-0.333984 17.834 0.999023 24.501l39 107l35 95l35 93l-45 96.5l-39.5 87.5c-11.667 26.667 -21.334 49.667 -29.001 69s-12.5 33.333 -14.5 42c-3.33301 14 -2.33301 27.5 3 40.5s12 24.5 20 34.5s16.333 17.667 25 23s15 7 19 5c2.66699 -2 7.66699 -9.83301 15 -23.5
s16.166 -31.834 26.499 -54.501l34.5 -79.5l40 -96.5l47 116.5c14 33.667 25 56.167 33 67.5c8.66699 14 21 26.167 37 36.5s31.833 18.666 47.5 24.999s29.667 10.333 42 12s19.5 1.16699 21.5 -1.5z" />
    <glyph glyph-name="Y" unicode="Y" horiz-adv-x="297" 
d="M348 718c0 -1.33301 -2.16895 -9.16895 -6.50195 -23.502s-10.166 -32.666 -17.499 -54.999l-25.5 -75.5l-30.5 -86.5l-32.5 -87.5l-30.5 -77c-1.33301 -46 -3 -89 -5 -129s-4 -75 -6 -105s-4 -53.833 -6 -71.5s-3.66699 -26.834 -5 -27.501
c-3.33301 -2.66699 -8.66602 -1.83398 -15.999 2.49902s-14.833 10.166 -22.5 17.499s-14.667 15.333 -21 24s-10.5 16 -12.5 22c-0.666992 2.66699 -1.66699 11.167 -3 25.5s-3 33.666 -5 57.999s-4.16699 52.833 -6.5 85.5s-4.5 68.667 -6.5 108c-12.667 28 -26 61 -40 99
c-12 32.667 -25.5 72.334 -40.5 119.001s-30.167 100.334 -45.5 161.001c0 6 3.66699 12.167 11 18.5s16.333 11.833 27 16.5s22 8.33398 34 11.001s22.667 3 32 1c2.66699 -4 7.66699 -19.333 15 -46l10.5 -42.5c4.33301 -17 9.16602 -38 14.499 -63l18.5 -87.5l24.5 -116
l27 113l21.5 85.5c6.33301 24.333 12 45 17 62l12.5 42.5c8 26.667 14.333 42.334 19 47.001c4.66699 2.66699 12.5 3.83398 23.5 3.50098s22 -2 33 -5s20.833 -6.66699 29.5 -11s13.334 -8.83301 14.001 -13.5z" />
    <glyph glyph-name="Z" unicode="Z" horiz-adv-x="315" 
d="M346 701c0 -2 -3.16504 -11.3291 -9.49805 -27.9961l-25.5 -64l-37 -89l-43 -102l-44 -103.5l-40.5 -93.5l-31 -71l-16.5 -38c68.667 6.66699 117.5 10.834 146.5 12.501s44.5 1.5 46.5 -0.5c2.66699 -2.66699 2.66699 -8.83398 0 -18.501s-6.66699 -20.334 -12 -32.001
s-11 -22.667 -17 -33s-11 -17.833 -15 -22.5c-0.666992 -1.33301 -5.83398 -2.5 -15.501 -3.5s-21.334 -1.83301 -35.001 -2.5s-28.667 -1.33398 -45 -2.00098s-31.833 -1.16699 -46.5 -1.5s-27.5 -0.5 -38.5 -0.5s-18.167 0.333008 -21.5 1
c-4.66699 0.666992 -9.16699 3.5 -13.5 8.5s-8.33301 10.833 -12 17.5s-6.83398 13.834 -9.50098 21.501s-4.33398 14.5 -5.00098 20.5s2.5 21.167 9.5 45.5s16.333 53.5 28 87.5l38.5 110l41.5 113.5l36.5 98l23 63.5c-33.333 -2 -60.833 -3.83301 -82.5 -5.5
s-38.834 -2.83398 -51.501 -3.50098s-21.667 -1 -27 -1s-8.66602 1 -9.99902 3c-3.33301 4 -6.5 12.167 -9.5 24.5s-5.16699 25.666 -6.5 39.999s-1.66602 27.666 -0.999023 39.999s2.66699 20.166 6 23.499c2 2 11.833 3.83301 29.5 5.5s39.167 2.83398 64.5 3.50098
s52.5 0.833984 81.5 0.500977s56 -1.33301 81 -3s45.833 -4.33398 62.5 -8.00098s25.334 -8.16699 26.001 -13.5z" />
    <glyph glyph-name="bracketleft" unicode="[" horiz-adv-x="213" 
d="M132 718c0 -5.33301 -0.330078 -18.3369 -0.99707 -39.0039s-1.16699 -46 -1.5 -76s-1 -63.333 -2 -100s-1.83301 -74.167 -2.5 -112.5l-2 -113c-0.666992 -37 -1.33398 -70.667 -2.00098 -101s-1.16699 -55.833 -1.5 -76.5s-0.833008 -34 -1.5 -40
c6 0.666992 13.833 1.33398 23.5 2.00098l28 2c9 0.666992 17 0.833984 24 0.500977s11.167 -1.16602 12.5 -2.49902c2.66699 -2.66699 4.5 -8.33398 5.5 -17.001s1 -18.167 0 -28.5s-2.5 -20.5 -4.5 -30.5s-4.33301 -18 -7 -24c-1.33301 -2.66699 -6.33301 -4.5 -15 -5.5
s-18.167 -1.5 -28.5 -1.5s-20.5 0.5 -30.5 1.5s-17 2.16699 -21 3.5c-9.33301 3.33301 -17.333 7.66602 -24 12.999s-13 14 -19 26c-1.33301 2.66699 -2.83301 15.834 -4.5 39.501s-3.33398 54 -5.00098 91s-3.16699 78.667 -4.5 125l-4 142.5
c-1.33301 48.667 -2.16602 96.334 -2.49902 143.001s-0.5 88.834 -0.5 126.501s0.5 68.834 1.5 93.501s2.5 39 4.5 43c4 8.66699 16 15.5 36 20.5s41.5 8.66699 64.5 11s44.167 3.33301 63.5 3s30.666 -1.83301 33.999 -4.5c2.66699 -3.33301 4 -10.333 4 -21
s-1.16699 -22.334 -3.5 -35.001s-5.33301 -24.834 -9 -36.501s-7.5 -19.5 -11.5 -23.5c-1.33301 -2 -5 -3 -11 -3s-13.167 0.333008 -21.5 1s-17.833 1.33398 -28.5 2.00098s-21.334 1 -32.001 1z" />
    <glyph glyph-name="backslash" unicode="\" horiz-adv-x="336" 
d="M-10 734c0 6.66699 4.83301 10.498 14.5 11.498s20.834 -0.333008 33.501 -4s25.167 -9.16699 37.5 -16.5s21.5 -15.666 27.5 -24.999c3.33301 -4.66699 9.5 -18.167 18.5 -40.5l32.5 -83.5l41 -112.5l44.5 -126l43 -124l35.5 -108c10 -31.667 17.5 -57 22.5 -76
s6.5 -28.833 4.5 -29.5c-5.33301 -1.33301 -13.333 -1.16602 -24 0.500977s-21.334 7.5 -32.001 17.5c-3.33301 2.66699 -10 14.834 -20 36.501l-37 82.5l-48.5 112l-53.5 127l-52 127.5l-45 112.5c-13.333 33.333 -23.833 60.666 -31.5 81.999s-11.5 33.333 -11.5 36z" />
    <glyph glyph-name="bracketright" unicode="]" horiz-adv-x="218" 
d="M86 718c-11.333 0 -22.167 -0.331055 -32.5 -0.998047s-19.833 -1.33398 -28.5 -2.00098s-15.834 -1 -21.501 -1s-9.16699 1 -10.5 3c-4 4 -7.83301 11.833 -11.5 23.5s-6.66699 23.834 -9 36.501s-3.66602 24.334 -3.99902 35.001s1.16699 17.667 4.5 21
c2 2 7.83301 3.33301 17.5 4s21.5 0.833984 35.5 0.500977s28.833 -1.16602 44.5 -2.49902s30.5 -3.5 44.5 -6.5s26.167 -6.5 36.5 -10.5s16.833 -9 19.5 -15c2 -4 3.5 -18.333 4.5 -43s1.5 -55.834 1.5 -93.501s-0.166992 -79.834 -0.5 -126.501
s-1.16602 -94.334 -2.49902 -143.001l-4 -142.5c-1.33301 -46.333 -2.83301 -88 -4.5 -125s-3.33398 -67.333 -5.00098 -91s-3.16699 -36.834 -4.5 -39.501c-6 -12 -12.333 -20.667 -19 -26s-14.667 -9.66602 -24 -12.999c-4 -1.33301 -10.833 -2.5 -20.5 -3.5
s-19.834 -1.5 -30.501 -1.5s-20.167 0.5 -28.5 1.5s-13.166 2.83301 -14.499 5.5c-2.66699 6 -5 14 -7 24s-3.5 20.167 -4.5 30.5s-1.16699 19.833 -0.5 28.5s2.33398 14.334 5.00098 17.001c0.666992 1.33301 4.66699 2.16602 12 2.49902s15.5 0.166016 24.5 -0.500977
l28 -2c9.66699 -0.666992 17.5 -1.33398 23.5 -2.00098c-0.666992 6 -1.16699 19.333 -1.5 40s-0.833008 46.167 -1.5 76.5s-1.33398 64 -2.00098 101l-2 113c-0.666992 38.333 -1.5 75.833 -2.5 112.5s-1.66699 70 -2 100s-0.833008 55.333 -1.5 76s-1 33.667 -1 39z" />
    <glyph glyph-name="asciicircum" unicode="^" horiz-adv-x="305" 
d="M280 403c-2 -2 -5.33398 -4.16895 -10.001 -6.50195s-9.83398 -4.5 -15.501 -6.5s-11.167 -3.16699 -16.5 -3.5s-9.33301 0.5 -12 2.5c-2 3.33301 -6 14 -12 32c-5.33301 15.333 -12.5 39.166 -21.5 71.499l-37.5 135.5l-41.5 -135.5l-22.5 -70.5
c-6 -17.333 -10 -27.666 -12 -30.999c-2.66699 -2 -6.66699 -2.83301 -12 -2.5s-10.666 1.5 -15.999 3.5s-10.333 4.5 -15 7.5s-7.66699 5.5 -9 7.5s-0.666016 10.833 2.00098 26.5s6.5 35 11.5 58s11 47.833 18 74.5s14 51.667 21 75s13.5 43.5 19.5 60.5
s10.667 27.5 14 31.5c4 4.66699 10.167 7.83398 18.5 9.50098s17.166 2.33398 26.499 2.00098s17.833 -1.33301 25.5 -3s12.5 -3.5 14.5 -5.5c3.33301 -4 7.83301 -14.667 13.5 -32s11.667 -38 18 -62l19.5 -76.5c6.66699 -27 12.5 -52.333 17.5 -76
s8.83301 -43.5 11.5 -59.5s3.33398 -25 2.00098 -27z" />
    <glyph glyph-name="underscore" unicode="_" horiz-adv-x="577" 
d="M575 -1c-2.66699 -1.33301 -12.666 -2.33496 -29.999 -3.00195s-39.333 -1.33398 -66 -2.00098s-56.834 -1.16699 -90.501 -1.5s-67.834 -0.5 -102.501 -0.5h-102c-33.333 0 -63.333 0.333008 -90 1s-48.5 1.5 -65.5 2.5s-26.5 2.16699 -28.5 3.5
c-4 2.66699 -6.66699 6.33398 -8 11.001s-2 9.66699 -2 15s0.333008 10.333 1 15s1.66699 8 3 10c0.666992 2 8.83398 4 24.501 6s36.334 3.83301 62.001 5.5l87.5 5.5c32.667 2 66.167 3.66699 100.5 5s68.166 2.5 101.499 3.5s63.5 1.83301 90.5 2.5
s49.5 0.833984 67.5 0.500977s29 -0.833008 33 -1.5c6 -1.33301 11.167 -5.66602 15.5 -12.999s7.16602 -15.5 8.49902 -24.5s1.33301 -17.5 0 -25.5s-4.66602 -13 -9.99902 -15z" />
    <glyph glyph-name="grave" unicode="`" 
d="M131 719c-3.33301 4 -6.83594 8.66797 -10.5029 14.001s-5.83398 9.33301 -6.50098 12c-1.33301 4.66699 1.33398 9.33398 8.00098 14.001s14.834 8.16699 24.501 10.5s19.667 3.33301 30 3s18.5 -2.5 24.5 -6.5c2.66699 -1.33301 4.66699 -3 6 -5
s4.33301 -5.66699 9 -11c4 -4.66699 9.66699 -12.667 17 -24l22 -35c7.33301 -12 13.833 -23.167 19.5 -33.5s8.5 -16.833 8.5 -19.5c0 -4.66699 -1.5 -8.83398 -4.5 -12.501s-6.66699 -6.66699 -11 -9s-8.66602 -3.83301 -12.999 -4.5s-8.16602 -0.333984 -11.499 0.999023
c-5.33301 2 -12.5 6.83301 -21.5 14.5s-18.833 16.667 -29.5 27l-32.5 32.5c-11 11.333 -20.5 22 -28.5 32z" />
    <glyph glyph-name="a" unicode="a" horiz-adv-x="354" 
d="M295 526c4 -4.66699 7.66016 -9.49902 10.9932 -14.499s6.33301 -11.667 9 -20s4.83398 -19.166 6.50098 -32.499s2.5 -30.666 2.5 -51.999c0 -34 -0.833008 -68.167 -2.5 -102.5l-4.5 -90.5c-0.666992 -23.333 -1.33398 -45 -2.00098 -65s-1.33398 -37.5 -2.00098 -52.5
s-1.5 -26.833 -2.5 -35.5s-1.83301 -13.334 -2.5 -14.001c-2.66699 -2 -6.83398 -1.16699 -12.501 2.5s-11.667 8.5 -18 14.5s-12.166 12.333 -17.499 19s-8.66602 12 -9.99902 16c0 3.33301 -1 13 -3 29c-16 -9.33301 -33.667 -15.833 -53 -19.5s-38.5 -5 -57.5 -4
s-36.5 4.5 -52.5 10.5s-28 14 -36 24c-3.33301 4 -6.16602 10 -8.49902 18s-4.33301 17.167 -6 27.5s-3.16699 21.333 -4.5 33s-2.33301 22.5 -3 32.5c-1.33301 26 2 48.5 10 67.5s22.667 33.167 44 42.5c9.33301 4 21.833 6.16699 37.5 6.5
s31.334 -0.333984 47.001 -2.00098s29.834 -3.66699 42.501 -6s20.667 -4.16602 24 -5.49902c-2.66699 34 -4.66699 63.5 -6 88.5s-4 41.167 -8 48.5c-3.33301 4.66699 -7.33301 9.33398 -12 14.001c-4 3.33301 -9.33301 7 -16 11s-14.667 7 -24 9
c-7.33301 1.33301 -14 -1.66699 -20 -9c-5.33301 -6.66699 -10.166 -18.5 -14.499 -35.5s-6.83301 -42.833 -7.5 -77.5c-23.333 -0.666992 -41.166 -0.5 -53.499 0.5s-21.5 2.16699 -27.5 3.5c-7.33301 1.33301 -11.666 3 -12.999 5
c-1.33301 2.66699 -0.666016 12.5 2.00098 29.5s6.5 35.5 11.5 55.5s11 39 18 57s14.5 29.333 22.5 34c16 9.33301 35.167 12.666 57.5 9.99902s44.166 -8.33398 65.499 -17.001s40.333 -18.334 57 -29.001s27.334 -19 32.001 -25zM232.993 234.001
c0 3.33301 0.330078 7.83203 0.99707 13.499s1 11.5 1 17.5s-0.166992 11.667 -0.5 17s-1.16602 9.33301 -2.49902 12c-2 4 -7.83301 7.33301 -17.5 10s-20.5 4.5 -32.5 5.5s-23.333 1.33301 -34 1s-18 -1.83301 -22 -4.5c-5.33301 -3.33301 -9.16602 -8 -11.499 -14
s-3.83301 -15.333 -4.5 -28c0 -6 0.333008 -12.333 1 -19s1.5 -13.167 2.5 -19.5s2.33301 -11.833 4 -16.5s3.5 -7.66699 5.5 -9c4.66699 -3.33301 12.834 -6.16602 24.501 -8.49902s23.5 -3 35.5 -2s23 4.83301 33 11.5s15.667 17.667 17 33z" />
    <glyph glyph-name="b" unicode="b" horiz-adv-x="348" 
d="M275 529c6.66699 -4 13.4941 -11.166 20.4941 -21.499s13.333 -22.5 19 -36.5s10.167 -28.833 13.5 -44.5s5 -30.5 5 -44.5c0 -10 -1.16699 -23.833 -3.5 -41.5s-5.5 -37 -9.5 -58l-13 -65c-4.66699 -22.333 -9.16699 -42.833 -13.5 -61.5s-8.16602 -34.5 -11.499 -47.5
s-5.66602 -20.833 -6.99902 -23.5l-8.5 -20.5c-2.33301 -5.66699 -5.16602 -9.83398 -8.49902 -12.501c-7.33301 -5.33301 -16.666 -9.16602 -27.999 -11.499s-23 -3.83301 -35 -4.5s-23.5 -0.5 -34.5 0.5s-19.5 2.5 -25.5 4.5c-2.66699 0.666992 -5.5 1.5 -8.5 2.5
s-6.16699 2.16699 -9.5 3.5c-6.66699 -11.333 -14.334 -21.5 -23.001 -30.5s-16.667 -12.833 -24 -11.5c-2.66699 0.666992 -5.5 11.667 -8.5 33s-6.16699 49.5 -9.5 84.5s-6.66602 74.833 -9.99902 119.5s-6.33301 90.5 -9 137.5s-5 93.167 -7 138.5
s-3.5 85.833 -4.5 121.5s-1.16699 65 -0.5 88s2.33398 35.5 5.00098 37.5s8.83398 0.5 18.501 -4.5s20.167 -12.333 31.5 -22s21.833 -21.167 31.5 -34.5s16.167 -27 19.5 -41c2 -10.667 3.5 -29 4.5 -55s1.5 -56.667 1.5 -92c29.333 11.333 56.5 18.666 81.5 21.999
s45.167 0.333008 60.5 -9zM231.994 382.001c0 10.667 -1.66699 21.1641 -5 31.4971s-7.33301 19.333 -12 27s-9.66699 13.5 -15 17.5s-10 5.33301 -14 4c-7.33301 -1.33301 -14.333 -3.16602 -21 -5.49902s-12.334 -4.5 -17.001 -6.5c-6 -2.66699 -11 -5 -15 -7
c-0.666992 -39.333 -1.5 -79.333 -2.5 -120s-1.5 -78.667 -1.5 -114c0 -17.333 0.333008 -32.5 1 -45.5s1 -21.167 1 -24.5c2 -16 6.33301 -27.333 13 -34c2 -1.33301 5.16699 -3.16602 9.5 -5.49902s9 -4.33301 14 -6s9.83301 -2.66699 14.5 -3
s8.66699 0.833984 12 3.50098c0.666992 0.666992 2.16699 8.16699 4.5 22.5s4.83301 31.833 7.5 52.5l8.5 67.5l8.5 68c2.66699 21 4.83398 38.833 6.50098 53.5s2.5 22.667 2.5 24z" />
    <glyph glyph-name="c" unicode="c" horiz-adv-x="303" 
d="M194 547c-2.66699 2.66699 -8.33301 5.33398 -17 8.00098s-14.667 1.66699 -18 -3c-2 -2.66699 -5.33301 -11.334 -10 -26.001s-9.5 -33.334 -14.5 -56.001s-9.33301 -48.667 -13 -78s-5.5 -59.666 -5.5 -90.999c0 -22.667 1 -44.167 3 -64.5s4.5 -38.166 7.5 -53.499
s6.66699 -27.666 11 -36.999s8.83301 -14.333 13.5 -15c4 0 8.83301 4.66699 14.5 14s11.334 20.166 17.001 32.499s10.667 24 15 35s7.5 18.167 9.5 21.5c5.33301 8.66699 12.333 16.167 21 22.5s16 9.5 22 9.5c3.33301 0 5.83301 -2.33301 7.5 -7s3 -10.167 4 -16.5
s1.5 -12.833 1.5 -19.5v-16c0 -7.33301 -1.33301 -21 -4 -41s-6.5 -40.333 -11.5 -61s-10.667 -39 -17 -55s-13.166 -23.667 -20.499 -23s-18.333 4 -33 10s-29.5 13 -44.5 21s-28.667 16.167 -41 24.5s-19.833 14.833 -22.5 19.5s-6.66699 16.167 -12 34.5
s-10.833 40.833 -16.5 67.5s-10.5 56 -14.5 88s-6 64 -6 96s0.833008 63.667 2.5 95s4.5 59.333 8.5 84s9.16699 44.667 15.5 60s14.166 23.333 23.499 24c26 2.66699 52.167 0.5 78.5 -6.5s50 -16.333 71 -28s38.167 -24 51.5 -37s20.333 -23.833 21 -32.5
c0.666992 -9.33301 0.166992 -22.333 -1.5 -39s-4 -33.5 -7 -50.5s-6.33301 -32.333 -10 -46s-6.83398 -21.5 -9.50098 -23.5c-6 -6 -13 -12.333 -21 -19s-15.667 -8 -23 -4c-2.66699 1.33301 -5 6.5 -7 15.5s-3.83301 20.167 -5.5 33.5s-3.16699 27.666 -4.5 42.999
s-2.5 29.5 -3.5 42.5s-2 24 -3 33s-1.83301 13.833 -2.5 14.5z" />
    <glyph glyph-name="d" unicode="d" horiz-adv-x="336" 
d="M313 662c2 -16 2.66309 -48.002 1.99609 -96.002c0 -20.667 -0.5 -45.667 -1.5 -75s-2.5 -64.5 -4.5 -105.5s-4.5 -88.333 -7.5 -142s-6.83301 -114.5 -11.5 -182.5c-1.33301 -6.66699 -4.16602 -14 -8.49902 -22s-9.16602 -15.333 -14.499 -22s-11 -12.167 -17 -16.5
s-11.333 -5.83301 -16 -4.5c-1.33301 0.666992 -2.83301 6 -4.5 16s-3.16699 24 -4.5 42c-30 -13.333 -58.333 -22.333 -85 -27s-48.334 -1.66699 -65.001 9c-6.66699 4 -13.167 11.167 -19.5 21.5s-12.166 22.5 -17.499 36.5s-9.66602 28.833 -12.999 44.5s-5 30.5 -5 44.5
c0 10 0.666992 23.333 2 40s3 34.834 5 54.501s4.33301 39.667 7 60s5.33398 39.166 8.00098 56.499l7 44c2 12 3.66699 19.333 5 22c1.33301 8 3.83301 14.667 7.5 20s6.83398 9.33301 9.50098 12c6.66699 5.33301 16.5 9.33301 29.5 12s26.667 4.33398 41 5.00098
s27.833 0.5 40.5 -0.5s22 -2.5 28 -4.5h2c-1.33301 82.667 -1.33301 146.334 0 191.001s4 68.667 8 72c2.66699 2 8.66699 0.333008 18 -5s19.166 -13 29.499 -23s20 -21.833 29 -35.5s14.5 -27.5 16.5 -41.5zM160.996 101.998c9.33301 2 17.835 4.5 25.502 7.5
s14.167 5.83301 19.5 8.5c6 2.66699 11 6 15 10c-0.666992 17.333 -1.33398 36.833 -2.00098 58.5l-2 67.5l-2 71.5l-2 70.5c0 7.33301 -1.16699 13.666 -3.5 18.999s-5.16602 9.66602 -8.49902 12.999c-2 1.33301 -6 3.16602 -12 5.49902s-12.833 4.33301 -20.5 6
s-15 2.5 -22 2.5s-11.833 -1.33301 -14.5 -4c-1.33301 -0.666992 -2.5 -7.16699 -3.5 -19.5s-2 -27.666 -3 -45.999s-2 -38.166 -3 -59.499s-1.83301 -41.333 -2.5 -60s-1.33398 -34.667 -2.00098 -48s-1 -20.666 -1 -21.999c0 -11.333 1.5 -22 4.5 -32
s6.83301 -18.833 11.5 -26.5s9.66699 -13.667 15 -18s9.66602 -5.83301 12.999 -4.5z" />
    <glyph glyph-name="e" unicode="e" horiz-adv-x="357" 
d="M109 289l36.498 13.5l39.5 14l34 11.5c10 3.33301 17.333 6 22 8c-0.666992 7.33301 -1.5 15.833 -2.5 25.5s-2.16699 19 -3.5 28s-3 16.833 -5 23.5s-4 10.667 -6 12c-5.33301 2 -14.166 3.83301 -26.499 5.5s-25 1.16699 -38 -1.5s-24.833 -7.66699 -35.5 -15
s-16.667 -19 -18 -35c-1.33301 -10.667 -1.66602 -24 -0.999023 -40s2 -32.667 4 -50zM325.998 273c-0.666992 -1.33301 -8.66504 -4.00098 -23.998 -8.00098s-33.666 -8.16699 -54.999 -12.5s-44 -8.66602 -68 -12.999s-44.667 -7.83301 -62 -10.5
c3.33301 -26.667 7.33301 -50.5 12 -71.5s8.66699 -34.167 12 -39.5c3.33301 -4.66699 7.66602 -9 12.999 -13c4.66699 -3.33301 10.5 -6.5 17.5 -9.5s15.5 -5.16699 25.5 -6.5c7.33301 -2 14.333 0.666992 21 8c5.33301 6.66699 10.166 18.334 14.499 35.001s6.5 43 6.5 79
c20.667 3.33301 36.834 5.33301 48.501 6s20.167 0.666992 25.5 0c6.66699 -0.666992 10.667 -1.66699 12 -3c0.666992 -2 0.666992 -7 0 -15s-2.16699 -17.833 -4.5 -29.5s-5 -24.334 -8 -38.001s-6.5 -26.667 -10.5 -39s-8.33301 -23.333 -13 -33
s-9.66699 -16.5 -15 -20.5c-16 -12 -36 -17.833 -60 -17.5s-47.667 3.66602 -71 9.99902s-44.333 14 -63 23s-30.334 16.5 -35.001 22.5c-3.33301 4 -6.33301 14.167 -9 30.5s-4.83398 36.166 -6.50098 59.499s-2.83398 49 -3.50098 77s-0.166992 55.333 1.5 82
s4.33398 51.334 8.00098 74.001s8.83398 41 15.501 55c10 20 26.333 36.333 49 49s46.667 21.334 72 26.001s49.5 5.33398 72.5 2.00098s40.167 -10.666 51.5 -21.999c6.66699 -6.66699 12.667 -19.834 18 -39.501s8.66602 -43.5 9.99902 -71.5
c0 -2.66699 0.333008 -10.334 1 -23.001s1.16699 -26.167 1.5 -40.5s0.5 -27.833 0.5 -40.5s-0.333008 -20 -1 -22z" />
    <glyph glyph-name="f" unicode="f" horiz-adv-x="273" 
d="M279 666c3.33301 -7.33301 6.33789 -16.332 9.00488 -26.999s4.5 -21.167 5.5 -31.5s1.16699 -19.166 0.5 -26.499s-3 -11.333 -7 -12c-4 0 -12.333 4.16699 -25 12.5s-26.334 16.666 -41.001 24.999s-28.334 15 -41.001 20s-20.334 3.83301 -23.001 -3.5
c-2 -5.33301 -3.33301 -14.333 -4 -27s-1.16699 -28.167 -1.5 -46.5s-0.333008 -39 0 -62s0.833008 -47.167 1.5 -72.5c20 2 37.833 3.33301 53.5 4s25.834 0.333984 30.501 -0.999023c6 -2 10.833 -7.16699 14.5 -15.5s6 -17.5 7 -27.5s0.666992 -19.333 -1 -28
s-4.83398 -14.334 -9.50098 -17.001c-3.33301 -2 -13.833 -3.33301 -31.5 -4s-37.834 -0.666992 -60.501 0c1.33301 -34 2.83301 -67.5 4.5 -100.5l4.5 -90.5l3.5 -70.5c1 -19.667 1.5 -33.5 1.5 -41.5c0 -10 -2.83301 -14.5 -8.5 -13.5s-12.5 5.33301 -20.5 13
s-16.5 17.5 -25.5 29.5s-16.5 24 -22.5 36c-3.33301 6 -6.33301 16.667 -9 32s-5.33398 33.833 -8.00098 55.5s-5.33398 45.834 -8.00098 72.501s-5 54.334 -7 83.001c-13.333 1.33301 -24.833 2.66602 -34.5 3.99902s-15.5 2.66602 -17.5 3.99902
c-3.33301 2.66699 -5.5 6.16699 -6.5 10.5s-1.66699 8.83301 -2 13.5s-0.333008 9.16699 0 13.5s0.833008 7.83301 1.5 10.5c1.33301 2 6.83301 4.33301 16.5 7s22.167 5.33398 37.5 8.00098c-2 25.333 -3.5 50 -4.5 74s-1.83301 46.167 -2.5 66.5s-1.16699 38 -1.5 53
s-0.166016 26.5 0.500977 34.5c0 6 3.83301 14.5 11.5 25.5s16.667 22.167 27 33.5s21 21.666 32 30.999s19.833 15.666 26.5 18.999c15.333 7.33301 30.333 9 45 5s28 -10.833 40 -20.5s22.333 -20 31 -31s14.667 -19.833 18 -26.5z" />
    <glyph glyph-name="g" unicode="g" horiz-adv-x="322" 
d="M286 -32c-1.33301 -4 -5.32715 -10.3408 -11.9941 -19.0078s-14.667 -17.667 -24 -27s-18.666 -17.666 -27.999 -24.999s-17 -12 -23 -14c-13.333 -4 -27.5 -3.16699 -42.5 2.5s-29.333 13.167 -43 22.5s-25.5 18.833 -35.5 28.5s-16.333 16.834 -19 21.501
c-2 4.66699 -3.83301 11 -5.5 19s-2.83398 16 -3.50098 24s-0.5 14.833 0.5 20.5s3.16699 8.5 6.5 8.5s11.166 -3.16699 23.499 -9.5l39 -19.5c13.667 -6.66699 26.5 -12 38.5 -16s19.333 -3.33301 22 2c2.66699 4.66699 5.16699 17.834 7.5 39.501l8.5 79.5
c-1.33301 0 -2.5 -0.166992 -3.5 -0.5s-2.16699 -0.5 -3.5 -0.5c-6 -2 -14.333 -3 -25 -3s-21.834 0.666992 -33.501 2s-23 3.83301 -34 7.5s-19.833 8.5 -26.5 14.5c-2.66699 2.66699 -5.5 6.83398 -8.5 12.501s-5.16699 13.167 -6.5 22.5c-2 4 -5.33301 15.5 -10 34.5
s-9.33398 40.667 -14.001 65s-8.83398 48.833 -12.501 73.5s-4.83398 44.334 -3.50098 59.001c0.666992 14.667 3.33398 29.834 8.00098 45.501s10.167 30.5 16.5 44.5s13.166 26.167 20.499 36.5s14.666 17.5 21.999 21.5c16 8 36 9.66699 60 5s49.667 -13.667 77 -27
c0.666992 6.66699 3.66699 14 9 22s11.5 15.167 18.5 21.5s14.167 11 21.5 14s13 3.16699 17 0.5c2 -1.33301 3.66699 -10.5 5 -27.5s2.5 -39 3.5 -66s1.66699 -57.667 2 -92s0.333008 -69.666 0 -105.999l-1 -107.5c-0.333008 -35.333 -1 -67.666 -2 -96.999s-2 -54 -3 -74
s-2.16699 -33 -3.5 -39zM216.006 442.992c-4 2.66699 -8.66504 5.32812 -13.998 7.99512c-4.66699 2.66699 -10 5.33398 -16 8.00098s-12.667 5 -20 7c-3.33301 1.33301 -7.83301 0 -13.5 -4s-11.334 -9.66699 -17.001 -17s-10.5 -16.166 -14.5 -26.499
s-6 -21.166 -6 -32.499c0 -1.33301 0.333008 -7.66602 1 -18.999s1.66699 -25 3 -41s2.66602 -33.333 3.99902 -52s2.83301 -36 4.5 -52s3.16699 -29.5 4.5 -40.5s2.33301 -16.833 3 -17.5c2.66699 -2.66699 6.5 -4 11.5 -4s10 0.666992 15 2s9.5 3 13.5 5s7 3.66699 9 5
c8.66699 6 14 17.667 16 35c1.33301 1.33301 2 5 2 11c2 44 4 83.833 6 119.5s4.66699 70.834 8 105.501z" />
    <glyph glyph-name="h" unicode="h" horiz-adv-x="341" 
d="M266 455c6.66699 -4 13.1641 -11.332 19.4971 -21.999s12.166 -22.834 17.499 -36.501s9.66602 -28.334 12.999 -44.001s5 -30.5 5 -44.5c0 -9.33301 -1.33301 -23.166 -4 -41.499s-6 -38.333 -10 -60s-8.33301 -43.834 -13 -66.501l-13 -62
c-4 -18.667 -7.66699 -34.334 -11 -47.001s-5.33301 -19.667 -6 -21c-1.33301 -2 -5.16602 -3.33301 -11.499 -4s-13 -0.333984 -20 0.999023s-13.5 3.33301 -19.5 6s-9.66699 6 -11 10c-0.666992 2.66699 -0.833984 11.167 -0.500977 25.5s1 31.5 2 51.5
s2.33301 41.667 4 65l4.5 65.5l3.5 52.5c1 14.667 1.5 23.334 1.5 26.001c0.666992 10.667 -0.166016 21.167 -2.49902 31.5s-5.33301 19.166 -9 26.499s-7.66699 13 -12 17s-8.5 5.33301 -12.5 4c-6 -1.33301 -11.833 -3 -17.5 -5l-14.5 -5c-5.33301 -2 -10 -4 -14 -6
c-0.666992 -49.333 -1.66699 -97.666 -3 -144.999s-3 -89.833 -5 -127.5s-4.16699 -68 -6.5 -91s-4.83301 -34.833 -7.5 -35.5c-5.33301 -0.666992 -11.166 1.66602 -17.499 6.99902s-12.5 11.833 -18.5 19.5s-11.167 15.834 -15.5 24.501s-7.16602 16 -8.49902 22
c-5.33301 65.333 -9.66602 123.833 -12.999 175.5s-6 97.5 -8 137.5s-3.5 74.667 -4.5 104s-1.5 54.333 -1.5 75c-0.666992 48.667 0 82.334 2 101.001c2.66699 14 8.66699 27.5 18 40.5s19.5 24.5 30.5 34.5s21.333 17.5 31 22.5s16.167 6.16699 19.5 3.5
c2 -2 3.83301 -11.167 5.5 -27.5s2.83398 -38 3.50098 -65s1 -58 1 -93s-0.333008 -71.833 -1 -110.5c26.667 10.667 51.5 17.334 74.5 20.001s41.5 -0.333008 55.5 -9z" />
    <glyph glyph-name="i" unicode="i" horiz-adv-x="180" 
d="M136 430c1.33301 -3.33301 2.16504 -13.833 2.49805 -31.5s0.333008 -39 0 -64s-1.16602 -51.667 -2.49902 -80s-2.83301 -55 -4.5 -80s-3.5 -46.333 -5.5 -64s-4 -28.167 -6 -31.5c-6 -9.33301 -15 -15.166 -27 -17.499s-20.667 -2.83301 -26 -1.5
c-2.66699 0 -5.5 7.66699 -8.5 23s-5.83301 34.666 -8.5 57.999s-5 48.666 -7 75.999s-3.66699 53.5 -5 78.5s-2 46.833 -2 65.5s0.666992 30.667 2 36c2 8.66699 7.83301 16.334 17.5 23.001s20 11.667 31 15s21.333 4.83301 31 4.5s15.834 -3.5 18.501 -9.5zM140.999 592
c2.66699 -5.33301 3.83203 -12.6709 3.49902 -22.0039s-1.5 -19 -3.5 -29s-4.66699 -19.667 -8 -29s-6.66602 -16.666 -9.99902 -21.999c-6.66699 -9.33301 -16.5 -15.166 -29.5 -17.499s-22.5 -2.83301 -28.5 -1.5c-4.66699 0.666992 -9.33398 3.83398 -14.001 9.50098
s-8.66699 12.667 -12 21s-5.66602 17.5 -6.99902 27.5s-1 19.333 1 28s8.33301 16.5 19 23.5s22 12.333 34 16s23.333 5.33398 34 5.00098s17.667 -3.5 21 -9.5z" />
    <glyph glyph-name="j" unicode="j" horiz-adv-x="170" 
d="M-110 -62c-2 4 -3.83496 10.5 -5.50195 19.5s-2.66699 18 -3 27s0 17 1 24s3.16699 10.5 6.5 10.5s11.333 -3.16699 24 -9.5l41 -20c14.667 -7 28.167 -12.667 40.5 -17s19.833 -4.16602 22.5 0.500977c3.33301 5.33301 6.33301 18.833 9 40.5s5 47.334 7 77.001
s3.83301 61.667 5.5 96s3 66.666 4 96.999s1.83301 56.833 2.5 79.5s1.33398 37.334 2.00098 44.001c0.666992 6 4 13.167 10 21.5s13 15.666 21 21.999s16 11.166 24 14.499s14 3.66602 18 0.999023c2.66699 -2 4.83398 -15.167 6.50098 -39.5s2.66699 -54.333 3 -90
s0.333008 -74.5 0 -116.5s-1 -81.667 -2 -119s-2.33301 -70 -4 -98s-3.16699 -45.667 -4.5 -53c-1.33301 -4 -5.66602 -10.5 -12.999 -19.5s-15.833 -18.167 -25.5 -27.5s-19.334 -17.666 -29.001 -24.999s-17.5 -12 -23.5 -14c-13.333 -4 -27.333 -3.33301 -42 2
s-28.667 12.5 -42 21.5s-25 18.5 -35 28.5s-16.333 17.333 -19 22zM140.998 637c2.66699 -5.33301 3.83008 -12.6709 3.49707 -22.0039s-1.5 -19.166 -3.5 -29.499s-4.66699 -20.166 -8 -29.499s-6.66602 -16.666 -9.99902 -21.999c-6.66699 -10 -16.667 -16.167 -30 -18.5
s-23.333 -2.83301 -30 -1.5c-4.66699 0.666992 -9.33398 4 -14.001 10s-8.66699 13.167 -12 21.5s-5.66602 17.5 -6.99902 27.5s-1 19.667 1 29c2 8.66699 8.33301 16.667 19 24s22.334 12.833 35.001 16.5s24.334 5.33398 35.001 5.00098s17.667 -3.83301 21 -10.5z" />
    <glyph glyph-name="k" unicode="k" horiz-adv-x="325" 
d="M186 347l24.4932 -42.002l35.5 -62l39 -70c13.333 -24 25 -46 35 -66s17.833 -36.667 23.5 -50s7.5 -20.666 5.5 -21.999c-3.33301 -2 -8.33301 -2.83301 -15 -2.5s-13.667 1.33301 -21 3s-14.166 4 -20.499 7s-10.833 5.83301 -13.5 8.5l-60.5 85l-46.5 68l-41 61
c-2 -31.333 -4 -61 -6 -89s-4 -52.833 -6 -74.5s-4.16699 -39 -6.5 -52s-4.5 -19.833 -6.5 -20.5c-5.33301 -0.666992 -11 1.5 -17 6.5s-11.667 11.333 -17 19s-10.166 15.667 -14.499 24s-6.83301 15.5 -7.5 21.5c-4 60.667 -7.16699 115.167 -9.5 163.5l-6 128.5
c-1.66699 37.333 -2.66699 69.833 -3 97.5s-0.5 51.167 -0.5 70.5c0 46 1.33301 77.667 4 95c2.66699 13.333 8.83398 26.166 18.501 38.499s20.167 23.166 31.5 32.499s22 16.333 32 21s16.667 6 20 4c2.66699 -2 4.33398 -13.667 5.00098 -35
s0.833984 -48.5 0.500977 -81.5s-1.16602 -69.833 -2.49902 -110.5l-4 -122l35 54.5l32 50c10 15 18.833 27.5 26.5 37.5s13.5 16 17.5 18c4.66699 2.66699 12.167 4.83398 22.5 6.50098s20.833 2.83398 31.5 3.50098s20.5 0.333984 29.5 -0.999023
s14.5 -3.66602 16.5 -6.99902c2 -2 -1.66699 -10.167 -11 -24.5s-21.666 -31.833 -36.999 -52.5s-33 -43.334 -53 -68.001z" />
    <glyph glyph-name="l" unicode="l" horiz-adv-x="180" 
d="M117 6c-4.66699 -1.33301 -10.001 0.335938 -16.001 5.00293s-11.833 10.5 -17.5 17.5s-10.5 14.5 -14.5 22.5s-6.66699 14.667 -8 20c-4.66699 58.667 -8.5 111.167 -11.5 157.5s-5.5 87.5 -7.5 123.5s-3.5 67.167 -4.5 93.5s-1.5 48.833 -1.5 67.5
c-0.666992 43.333 0 73.333 2 90c2 12 7.5 24 16.5 36s18.667 22.333 29 31s20 15.334 29 20.001s14.833 6 17.5 4s4.66699 -13.167 6 -33.5s2.33301 -46.833 3 -79.5s0.833984 -69.334 0.500977 -110.001s-1 -82.334 -2 -125.001s-2.16699 -84.334 -3.5 -125.001
s-3 -76.834 -5 -108.501s-4 -57.167 -6 -76.5s-4 -29.333 -6 -30z" />
    <glyph glyph-name="m" unicode="m" horiz-adv-x="494" 
d="M438 592c12.667 -10.667 22.0078 -31.8369 28.0078 -63.5039s8.33301 -66.834 7 -105.501c-0.666992 -12 -2.33398 -28.5 -5.00098 -49.5s-5.83398 -44 -9.50098 -69s-7.66699 -50.5 -12 -76.5l-12.5 -72c-4 -22 -7.5 -40.5 -10.5 -55.5s-4.83301 -23.833 -5.5 -26.5
c-1.33301 -4.66699 -5 -9.33398 -11 -14.001s-12.167 -8.5 -18.5 -11.5s-12.5 -5 -18.5 -6s-9.66699 0.166992 -11 3.5c-0.666992 2 -0.666992 12.333 0 31s1.66699 41.834 3 69.501l4.5 89c1.66699 31.667 3.16699 61.5 4.5 89.5s2.66602 51.833 3.99902 71.5
s2 31.5 2 35.5c0.666992 20.667 -1 38.834 -5 54.501s-10.667 23.5 -20 23.5c-3.33301 0 -7.33301 -1.5 -12 -4.5s-9.16699 -6.5 -13.5 -10.5s-8.33301 -8.33301 -12 -13s-5.5 -9 -5.5 -13c-0.666992 -12 -1.5 -29.667 -2.5 -53s-2 -49 -3 -77l-3 -86
c-1 -29.333 -2 -56.333 -3 -81l-2.5 -61.5c-0.666992 -16.333 -1.33398 -25.5 -2.00098 -27.5c-1.33301 -2.66699 -5.5 -4.5 -12.5 -5.5s-14.833 -1.16699 -23.5 -0.5s-16.5 2.33398 -23.5 5.00098s-11.167 6.33398 -12.5 11.001c-1.33301 3.33301 -2.33301 13.5 -3 30.5
l-2.5 61.5c-1 24 -1.83301 49.833 -2.5 77.5s-1.33398 53.5 -2.00098 77.5s-1.16699 44.667 -1.5 62s-0.5 28 -0.5 32c0 16 -1.33301 28.833 -4 38.5s-5.83398 17.334 -9.50098 23.001s-7.83398 9.33398 -12.501 11.001s-9.33398 2.5 -14.001 2.5c-2 0 -5 -1.5 -9 -4.5
s-8 -7.33301 -12 -13s-7.33301 -12 -10 -19s-3.66699 -14.5 -3 -22.5c0 -3.33301 0.333008 -15.666 1 -36.999s1.16699 -47 1.5 -77s0.833008 -62.333 1.5 -97s1.16699 -66.834 1.5 -96.501s0.5 -54.667 0.5 -75v-32.5c-1.33301 -3.33301 -5 -5.16602 -11 -5.49902
s-12.667 0.833984 -20 3.50098s-14.333 6.5 -21 11.5s-11.334 11.167 -14.001 18.5c-1.33301 5.33301 -3.33301 17 -6 35s-5.66699 39.5 -9 64.5s-6.66602 52 -9.99902 81l-10 84c-3.33301 27 -6.16602 51.5 -8.49902 73.5s-4.16602 38.667 -5.49902 50l-6.5 52.5
c-2.33301 19 -4.33301 37.333 -6 55s-2.83398 33 -3.50098 46s0 21.167 2 24.5c1.33301 2.66699 6.16602 3.66699 14.499 3s17.333 -2.5 27 -5.5s19 -7 28 -12s14.833 -10.167 17.5 -15.5c2 -4 4.16699 -8.83301 6.5 -14.5s4.83301 -14.5 7.5 -26.5
c11.333 8.66699 23 16.834 35 24.501s24 13.667 36 18s23.5 6.66602 34.5 6.99902s21.5 -2.83398 31.5 -9.50098c8.66699 -6.66699 17 -18.334 25 -35.001c32 18 62.833 30.5 92.5 37.5s53.167 4.16699 70.5 -8.5z" />
    <glyph glyph-name="n" unicode="n" horiz-adv-x="344" 
d="M318 419c0 -10.667 -1.16797 -26.0068 -3.50098 -46.0068s-5.5 -41.833 -9.5 -65.5l-12.5 -73c-4.33301 -25 -8.66602 -47.833 -12.999 -68.5l-11 -52c-3 -14 -4.83301 -21.667 -5.5 -23c-1.33301 -2 -4.83301 -3.16699 -10.5 -3.5s-12 0.166992 -19 1.5
s-13.333 3.33301 -19 6s-9.16699 6 -10.5 10c-0.666992 2.66699 -0.833984 12 -0.500977 28s1 35.167 2 57.5s2.16699 46.333 3.5 72s2.83301 49.667 4.5 72s3 41.5 4 57.5s1.5 25.667 1.5 29c0 12 -1.16699 23.5 -3.5 34.5s-5.16602 20.5 -8.49902 28.5
s-7.16602 14.167 -11.499 18.5s-8.16602 5.83301 -11.499 4.5c-8.66699 -1.33301 -16 -3.5 -22 -6.5s-11 -6.16699 -15 -9.5c-4.66699 -4 -8.33398 -8.66699 -11.001 -14c-0.666992 -1.33301 -1.83398 -5.33301 -3.50098 -12s-2.5 -14.334 -2.5 -23.001v-28.5
c0 -16.333 -0.166992 -35.833 -0.5 -58.5s-0.666016 -47.167 -0.999023 -73.5s-0.666016 -50.666 -0.999023 -72.999s-0.833008 -41.5 -1.5 -57.5s-1.33398 -25 -2.00098 -27c-1.33301 -4 -4.66602 -9.5 -9.99902 -16.5s-11.333 -13.5 -18 -19.5s-13 -10.5 -19 -13.5
s-10 -2.5 -12 1.5c-2 2 -4 11.833 -6 29.5s-4.16699 39.334 -6.5 65.001l-7.5 84c-2.66699 30.333 -5 59.5 -7 87.5s-3.66699 53.333 -5 76s-2.33301 39 -3 49c-0.666992 14 -1.33398 29.833 -2.00098 47.5s-1.16699 34.334 -1.5 50.001s-0.333008 29.334 0 41.001
s1.5 18.834 3.5 21.501c1.33301 2.66699 5.83301 3.33398 13.5 2.00098s16 -3.83301 25 -7.5s17.5 -8 25.5 -13s13.333 -9.83301 16 -14.5c1.33301 -4 3 -8.5 5 -13.5s3.66699 -13.167 5 -24.5c11.333 6.66699 23.666 12.834 36.999 18.501s26.5 10 39.5 13s25.5 4 37.5 3
s22.667 -4.5 32 -10.5c6 -4.66699 12.167 -12.667 18.5 -24s12 -24.666 17 -39.999s9 -31.5 12 -48.5s4.5 -33.167 4.5 -48.5z" />
    <glyph glyph-name="o" unicode="o" horiz-adv-x="318" 
d="M249 547c4.66699 -4 9.16699 -11.6641 13.5 -22.9971s8.16602 -25 11.499 -41s6.33301 -33.333 9 -52s5 -37 7 -55s3.5 -34.833 4.5 -50.5l2.5 -38.5c0.666992 -12 1.16699 -24.5 1.5 -37.5s0.333008 -25.333 0 -37s-1 -22.167 -2 -31.5s-2.5 -16.333 -4.5 -21
c-4 -10 -10.833 -16.833 -20.5 -20.5s-20.5 -6.16699 -32.5 -7.5c-6 -0.666992 -16.167 -0.833984 -30.5 -0.500977s-29.666 1 -45.999 2s-31.833 2.16699 -46.5 3.5s-25.667 2.66602 -33 3.99902c-14.667 3.33301 -25.167 7.66602 -31.5 12.999s-12.5 13 -18.5 23
c-2 4 -3.66699 14.167 -5 30.5s-2.16602 36 -2.49902 59s-0.166016 47.833 0.500977 74.5s1.83398 52 3.50098 76s3.66699 45 6 63s5.5 30 9.5 36c6.66699 9.33301 18.167 18 34.5 26s31.166 14.333 44.499 19c6.66699 2 15.5 3.5 26.5 4.5s22.667 1 35 0
s24.166 -3 35.499 -6s20.666 -7.16699 27.999 -12.5zM193 237.003c1.33301 2.66699 2.83398 10.833 4.50098 24.5s3 30.167 4 49.5s1.66699 40 2 62s0.5 42.333 0.5 61s-0.666992 34.5 -2 47.5s-3 20.5 -5 22.5c-3.33301 2.66699 -8.16602 3.83398 -14.499 3.50098
s-12.833 -1.33301 -19.5 -3s-12.667 -3.66699 -18 -6s-9 -4.5 -11 -6.5c-8.66699 -7.33301 -13.334 -19.333 -14.001 -36c0 -4.66699 -0.5 -17.834 -1.5 -39.501s-1.5 -45 -1.5 -70s0.5 -48.167 1.5 -69.5s3.16699 -34.333 6.5 -39s8.16602 -8.16699 14.499 -10.5
s13 -3.5 20 -3.5s13.667 1.16699 20 3.5s10.833 5.5 13.5 9.5z" />
    <glyph glyph-name="p" unicode="p" horiz-adv-x="338" 
d="M273 611c6.66699 -4 13.1719 -11.165 19.5049 -21.498s12.166 -22.333 17.499 -36s9.66602 -28.334 12.999 -44.001s5 -30.5 5 -44.5c0 -14.667 -2.5 -34.834 -7.5 -60.501s-10.833 -51.5 -17.5 -77.5s-13 -49.333 -19 -70s-10 -33 -12 -37
c-4 -15.333 -9.33301 -26.333 -16 -33c-6.66699 -5.33301 -15.5 -9.16602 -26.5 -11.499s-22.167 -3.83301 -33.5 -4.5s-22.333 -0.5 -33 0.5s-19 2.5 -25 4.5c-0.666992 0 -3 0.666992 -7 2c0 -26.667 -0.333008 -54 -1 -82c-0.666992 -24 -1.33398 -50.833 -2.00098 -80.5
l-2 -89.5c-1.33301 -6 -3.83301 -13 -7.5 -21s-8.16699 -15.5 -13.5 -22.5s-10.833 -12.833 -16.5 -17.5s-10.834 -6.33398 -15.501 -5.00098c-2.66699 0.666992 -5.5 12.167 -8.5 34.5s-6 51.666 -9 87.999s-6.16699 77.833 -9.5 124.5s-6.33301 94.334 -9 143.001
s-4.83398 96.5 -6.50098 143.5s-3 89 -4 126s-1.16699 67.333 -0.5 91s2.33398 36.5 5.00098 38.5c2 2 6 1.83301 12 -0.5s12.833 -6.33301 20.5 -12s15.667 -12.667 24 -21s15.833 -17.5 22.5 -27.5c32.667 14.667 63.667 25 93 31s52.666 3.33301 69.999 -8z
M231.005 464.002c0 10.667 -1.49902 21.165 -4.49902 31.498s-6.83301 19.333 -11.5 27s-9.5 13.667 -14.5 18s-9.5 5.83301 -13.5 4.5c-16.667 -4 -30.667 -8.66699 -42 -14c-6 -2.66699 -11 -5.66699 -15 -9c1.33301 -21.333 2.16602 -50.5 2.49902 -87.5
s0.5 -77.5 0.5 -121.5c0 -19.333 0.666992 -32.333 2 -39c0.666992 -16 4.66699 -27 12 -33c2 -2 5 -4.16699 9 -6.5s8.33301 -4.33301 13 -6s9.33398 -2.66699 14.001 -3s8.66699 0.833984 12 3.50098c0.666992 0.666992 2.16699 6.83398 4.5 18.501s4.83301 26 7.5 43
l8.5 55c3 19.667 5.66699 38 8 55s4.16602 31.5 5.49902 43.5s2 18.667 2 20z" />
    <glyph glyph-name="q" unicode="q" horiz-adv-x="343" 
d="M359 -62c2.66699 -0.666992 4.15918 -3.83398 4.49219 -9.50098s-0.166992 -12 -1.5 -19s-3.16602 -14.167 -5.49902 -21.5s-4.83301 -13.333 -7.5 -18c-2 -4.66699 -6.83301 -10.5 -14.5 -17.5s-16.5 -13.333 -26.5 -19s-20.5 -9.33398 -31.5 -11.001
s-21.5 0.5 -31.5 6.5c-4.66699 2.66699 -9.83398 7.5 -15.501 14.5s-11.167 14.833 -16.5 23.5s-9.83301 17 -13.5 25s-5.5 14.333 -5.5 19c-0.666992 3.33301 -1 12 -1 26c-1.33301 18 -1.66602 40.5 -0.999023 67.5s1.66699 56.5 3 88.5l-9 -3
c-6 -1.33301 -14 -2.16602 -24 -2.49902s-20.667 0.333984 -32 2.00098s-22.166 4.16699 -32.499 7.5s-18.5 8 -24.5 14c-7.33301 6 -12.333 16.667 -15 32c-1.33301 2.66699 -3.16602 9.16699 -5.49902 19.5s-5 23 -8 38l-9.5 49c-3.33301 17.667 -6.16602 35 -8.49902 52
s-4.16602 33 -5.49902 48s-1.66602 27.167 -0.999023 36.5c1.33301 14 4.16602 28.5 8.49902 43.5s9.5 29 15.5 42s12.5 24.333 19.5 34s13.833 16.167 20.5 19.5c15.333 8.66699 34.833 10.5 58.5 5.5s48.834 -13.833 75.501 -26.5c4 31.333 7.66699 48.333 11 51
c2.66699 2 8.33398 0 17.001 -6s17.667 -14.333 27 -25s17.833 -23 25.5 -37s12.167 -28 13.5 -42c0.666992 -10.667 -0.166016 -31.167 -2.49902 -61.5s-5.5 -65 -9.5 -104s-8.5 -80 -13.5 -123l-14 -118l-11 -89.5c-3 -24 -4.16699 -36.667 -3.5 -38
c1.33301 -5.33301 7 -6.83301 17 -4.5s20.833 5.83301 32.5 10.5s22.667 9.5 33 14.5s16.5 7.16699 18.5 6.5zM196.992 187c0 0.666992 0.166016 2.00391 0.499023 4.00391s0.5 4.33301 0.5 7l6 124c2 40.667 4.33301 77.667 7 111c-4 2.66699 -8.33301 5.33398 -13 8.00098
c-4 2 -9 4.16699 -15 6.5l-19 7.5c-3.33301 1.33301 -7.66602 0.166016 -12.999 -3.50098s-10.5 -9 -15.5 -16s-9.5 -15.5 -13.5 -25.5s-6.33301 -20.333 -7 -31c0 -1.33301 0.333008 -8 1 -20s1.66699 -26.333 3 -43s2.66602 -34.834 3.99902 -54.501
s2.83301 -37.834 4.5 -54.501s3.16699 -30.834 4.5 -42.501s2.33301 -17.834 3 -18.501c2.66699 -2.66699 6.33398 -4 11.001 -4s9.16699 0.666992 13.5 2s8.5 3 12.5 5s7 4 9 6c3.33301 2.66699 6.5 6.66699 9.5 12s5.16699 12 6.5 20z" />
    <glyph glyph-name="r" unicode="r" horiz-adv-x="305" 
d="M251 545c5.33301 -3.33301 10.4941 -9.83398 15.4941 -19.501s9.66699 -20.667 14 -33s8 -25.5 11 -39.5s5.66699 -27 8 -39s3.83301 -22.167 4.5 -30.5s0.666992 -13.5 0 -15.5c-1.33301 -2.66699 -5.33301 -5.33398 -12 -8.00098c-6 -2.66699 -15 -5.66699 -27 -9
s-28.667 -7 -50 -11c-1.33301 36.667 -4 64.5 -8 83.5s-8.33301 32.5 -13 40.5c-5.33301 9.33301 -11 14 -17 14c-6 -2.66699 -11.333 -5.83398 -16 -9.50098s-8.66699 -7.5 -12 -11.5c-4 -4.66699 -7.66699 -9.66699 -11 -15c-1.33301 -2 -2.66602 -6.66699 -3.99902 -14
s-2.66602 -18.333 -3.99902 -33c0 -4.66699 -0.166992 -14.334 -0.5 -29.001s-0.666016 -31.667 -0.999023 -51l-1 -61c-0.333008 -21.333 -0.666016 -41.166 -0.999023 -59.499s-0.666016 -33.833 -0.999023 -46.5s-0.833008 -20 -1.5 -22
c-1.33301 -3.33301 -4.66602 -8 -9.99902 -14s-11.333 -11.5 -18 -16.5s-13 -9 -19 -12s-10 -2.83301 -12 0.5c-2 2 -4 10.667 -6 26s-4.16699 34.166 -6.5 56.499l-7.5 73.5c-2.66699 26.667 -5 52.334 -7 77.001s-3.66699 46.834 -5 66.501s-2.33301 33.834 -3 42.501
c-0.666992 12.667 -1.33398 26.667 -2.00098 42s-1.16699 29.833 -1.5 43.5s-0.333008 25.667 0 36s1.5 16.5 3.5 18.5c1.33301 2 5.83301 2.5 13.5 1.5s16 -3 25 -6s17.5 -6.83301 25.5 -11.5s13.333 -9 16 -13c2 -3.33301 4 -8.33301 6 -15l36.5 18.5
c11.667 5.66699 23 9.83398 34 12.501s21.833 3.5 32.5 2.5s21.334 -4.5 32.001 -10.5z" />
    <glyph glyph-name="s" unicode="s" horiz-adv-x="329" 
d="M324 492c0.666992 -7.33301 -0.500977 -18.6709 -3.50098 -34.0039s-7.33301 -30.666 -13 -45.999s-13 -28.666 -22 -39.999s-19.167 -17 -30.5 -17c-8 0 -14.5 6.33301 -19.5 19s-8.66699 27.5 -11 44.5s-4.16602 33.833 -5.49902 50.5s-2.66602 28.334 -3.99902 35.001
c-2 3.33301 -5.83301 6.5 -11.5 9.5s-11.167 4.5 -16.5 4.5s-11.333 -4.33301 -18 -13s-13.167 -18.667 -19.5 -30s-11.666 -22.666 -15.999 -33.999s-6.16602 -19.666 -5.49902 -24.999c0 -4 4.33301 -11 13 -21s19.5 -21.833 32.5 -35.5l42 -44
c15 -15.667 28.833 -31.334 41.5 -47.001s23.5 -30.5 32.5 -44.5s13.833 -26 14.5 -36c0.666992 -12 -2.5 -27.333 -9.5 -46s-15.833 -36.667 -26.5 -54s-22 -32.333 -34 -45s-22.667 -19.334 -32 -20.001s-22.833 4.5 -40.5 15.5s-35.334 24 -53.001 39
s-33.334 29.833 -47.001 44.5s-21.5 25.334 -23.5 32.001c-2 6 -3.16699 14 -3.5 24s0 20 1 30s2.83301 18.5 5.5 25.5s6 10.5 10 10.5s12 -6.83301 24 -20.5l39 -46c14 -17 27.667 -32.333 41 -46s23 -20.5 29 -20.5c3.33301 0 7 2.5 11 7.5s7.66699 10.833 11 17.5
s6.16602 13.5 8.49902 20.5s3.5 12.5 3.5 16.5c-0.666992 6 -6 14.667 -16 26s-22.667 24 -38 38l-50 44.5l-50 44.5c-15.333 14 -28 26.667 -38 38s-15.333 20 -16 26s1.33301 15.5 6 28.5s10.667 27.333 18 43s15.833 31.834 25.5 48.501s19.5 32 29.5 46
s19.833 25.5 29.5 34.5s18.167 13.5 25.5 13.5c14.667 0 32.167 -4 52.5 -12s39.833 -17.833 58.5 -29.5s34.667 -23.834 48 -36.501s20.333 -24 21 -34z" />
    <glyph glyph-name="t" unicode="t" horiz-adv-x="248" 
d="M247 514c0.666992 -2 0.667969 -7.50293 0.000976562 -16.5029s-1.83398 -19 -3.50098 -30s-3.5 -21 -5.5 -30s-3.66699 -14.5 -5 -16.5c-6.66699 -0.666992 -13.334 -0.833984 -20.001 -0.500977s-13 0.5 -19 0.5h-21c-0.666992 -44 -1.66699 -87.667 -3 -131
s-3 -82.166 -5 -116.499s-4.16699 -62.166 -6.5 -83.499s-4.5 -32.333 -6.5 -33c-4.66699 -0.666992 -10 1.33301 -16 6s-11.833 10.5 -17.5 17.5s-10.667 14.333 -15 22s-6.83301 14.5 -7.5 20.5c-3.33301 40.667 -6.33301 79.5 -9 116.5s-4.66699 69.833 -6 98.5
c-2.66699 33.333 -4.33398 64.333 -5.00098 93c-7.33301 0.666992 -14.666 1.66699 -21.999 3l-20.5 4l-21.5 4c-1.33301 1.33301 -3 4.5 -5 9.5s-3.83301 10.5 -5.5 16.5s-3.16699 11.833 -4.5 17.5s-2 9.83398 -2 12.501c0 2 7.5 4 22.5 6s33.5 3.66699 55.5 5
c-1.33301 35.333 -2.16602 66.166 -2.49902 92.499s0.5 44.166 2.5 53.499c2 12.667 7.5 24.834 16.5 36.501s18.667 21.834 29 30.501s20 15.167 29 19.5s14.833 5.5 17.5 3.5c2 -1.33301 3.66699 -8.16602 5 -20.499s2.33301 -28.833 3 -49.5s1 -44.834 1 -72.501v-87.5
c20 1.33301 37 1.83301 51 1.5s21.333 -1.16602 22 -2.49902z" />
    <glyph glyph-name="u" unicode="u" horiz-adv-x="325" 
d="M256 535c1.33301 -2 3.33789 -11.332 6.00488 -27.999s5.5 -37.334 8.5 -62.001s6 -51.334 9 -80.001l9 -82c3 -26 5.5 -49.333 7.5 -70s3.66699 -34.667 5 -42c2 -12 4.33301 -25.167 7 -39.5s5 -28 7 -41s3.5 -24.167 4.5 -33.5s0.5 -15 -1.5 -17
c-1.33301 -2 -6.66602 -2.5 -15.999 -1.5s-19.5 3 -30.5 6s-21.333 6.66699 -31 11s-15.834 8.5 -18.501 12.5c-2.66699 3.33301 -5.16699 8.33301 -7.5 15s-5.16602 18.334 -8.49902 35.001l-23.5 -31.5c-8.33301 -11 -16.5 -21 -24.5 -30s-15.333 -16.167 -22 -21.5
s-11.667 -8 -15 -8c-5.33301 0 -13.333 5.5 -24 16.5s-21.334 23.5 -32.001 37.5s-20.334 27.333 -29.001 40s-13.334 21 -14.001 25c-1.33301 4 -1.83301 15 -1.5 33s1 38.167 2 60.5s2.16699 44.666 3.5 66.999s2.66602 40.166 3.99902 53.499l4.5 44.5
c1.66699 16.333 3.5 31.666 5.5 45.999s3.83301 26.833 5.5 37.5s3.16699 17 4.5 19s5.16602 3.16699 11.499 3.5s13 0 20 -1s13.5 -2.66699 19.5 -5s10 -5.16602 12 -8.49902c1.33301 -2.66699 2.16602 -11.167 2.49902 -25.5s0.5 -31.666 0.5 -51.999v-66
c0 -23.667 -0.166992 -45.667 -0.5 -66s-0.666016 -37.666 -0.999023 -51.999s-0.5 -22.833 -0.5 -25.5c0 -5.33301 3.16699 -15.666 9.5 -30.999s12.833 -30 19.5 -44l52 62c-0.666992 12 -1.16699 27.333 -1.5 46s-0.833008 38.334 -1.5 59.001l-2 63
c-0.666992 21.333 -1 40.666 -1 57.999v43c0 11.333 0.333008 18 1 20c2 4 6 9.33301 12 16s12.667 13 20 19s14.166 10.667 20.499 14s10.833 3.66602 13.5 0.999023z" />
    <glyph glyph-name="v" unicode="v" horiz-adv-x="271" 
d="M96 125c-9.33301 34 -19.6719 74.002 -31.0049 120.002l-33.5 143.5c-13 56.333 -26.833 120.833 -41.5 193.5c0 4.66699 2.83301 10.5 8.5 17.5s12.5 13.667 20.5 20s16.333 11.666 25 15.999s16.334 6.5 23.001 6.5c2.66699 -4 7.33398 -21.667 14.001 -53
c2.66699 -13.333 5.83398 -30.166 9.50098 -50.499s7.83398 -45.5 12.501 -75.5s9.83398 -65.167 15.501 -105.5l19.5 -139.5l15.5 102l13.5 85l13 80c2 15.333 4.33301 31.5 7 48.5s5.5 32.5 8.5 46.5s6.33301 25.833 10 35.5s7.5 14.5 11.5 14.5s10 -0.833008 18 -2.5
s16.167 -3.83398 24.5 -6.50098s15.833 -5.83398 22.5 -9.50098s10 -7.5 10 -11.5c0 -2 -2 -11.833 -6 -29.5l-16 -67.5l-23 -92.5l-26.5 -104.5l-27.5 -104l-25.5 -90.5c-7.66699 -26.333 -14.167 -47.666 -19.5 -63.999s-9 -24.5 -11 -24.5s-7.5 9.16699 -16.5 27.5
s-17.167 43.166 -24.5 74.499z" />
    <glyph glyph-name="w" unicode="w" horiz-adv-x="378" 
d="M371 634c2 -2 2.49707 -12.333 1.49707 -31s-3 -42.667 -6 -72s-6.83301 -62.333 -11.5 -99s-9.66699 -73.834 -15 -111.501l-16.5 -111c-5.66699 -36.333 -11 -68.5 -16 -96.5s-9.5 -50.667 -13.5 -68s-7 -26 -9 -26c-4 0 -8.5 2.16699 -13.5 6.5s-9.66699 9.5 -14 15.5
s-8.33301 12 -12 18s-5.83398 11 -6.50098 15c-1.33301 7.33301 -4.5 20.666 -9.5 39.999s-9.16699 43 -12.5 71c-2.66699 18.667 -5.33398 38.667 -8.00098 60c-2.66699 17.333 -5.33398 37 -8.00098 59l-8 65c-2.66699 -14 -5.5 -30.333 -8.5 -49
s-6.16699 -36.667 -9.5 -54c-3.33301 -20 -7.33301 -40.667 -12 -62c-4 -22 -8.16699 -43.667 -12.5 -65s-8.66602 -40.5 -12.999 -57.5s-8.33301 -30.833 -12 -41.5s-6.5 -16 -8.5 -16c-4 -1.33301 -8.66699 -0.333008 -14 3s-10.666 7.83301 -15.999 13.5
s-10 11.667 -14 18s-6.33301 12.166 -7 17.499c-7.33301 51.333 -13.666 97.5 -18.999 138.5s-9.83301 77.333 -13.5 109s-6.66699 59.167 -9 82.5s-4.16602 43.333 -5.49902 60c-3.33301 38.667 -4.66602 65.667 -3.99902 81c2 11.333 6.66699 22.666 14 33.999
s15.166 21.333 23.499 30s16.333 15.5 24 20.5s12.834 6.83301 15.501 5.5c1.33301 -0.666992 2.66602 -7.5 3.99902 -20.5s2.5 -29.833 3.5 -50.5s2 -44.5 3 -71.5l3 -84l3 -88c1 -29.667 2.16699 -57.167 3.5 -82.5c3.33301 19.333 7 42.833 11 70.5l12 81.5
c4 26.667 7.83301 50.5 11.5 71.5s6.83398 34.5 9.50098 40.5c5.33301 12 11.5 22.667 18.5 32s14 16.833 21 22.5s13.333 9.83398 19 12.501s9.5 3.66699 11.5 3c0.666992 0 1.66699 -5.33301 3 -16l5 -42c2 -17.333 4.16699 -37.166 6.5 -59.499l7.5 -69l8 -70.5
c2.66699 -23.333 5.66699 -44.666 9 -63.999c1.33301 26.667 3 56.834 5 90.501l6 97c2 31 4 58.333 6 82s4 38.5 6 44.5c3.33301 10.667 9 20.5 17 29.5s16.5 16.667 25.5 23s17.333 10.833 25 13.5s12.834 3 15.501 1z" />
    <glyph glyph-name="x" unicode="x" horiz-adv-x="286" 
d="M322 573c2 -1.33301 -0.666016 -9.83594 -7.99902 -25.5029s-17.5 -35.667 -30.5 -60s-28.333 -51.666 -46 -81.999l-54.5 -92.5l38.5 -89.5c12.333 -29 22.833 -54.833 31.5 -77.5s15 -40.834 19 -54.501s5 -20.5 3 -20.5c-4.66699 0 -10.834 2 -18.501 6
s-15.5 8.83301 -23.5 14.5s-15.5 11.667 -22.5 18s-11.833 11.5 -14.5 15.5c-7.33301 11.333 -14.5 23.333 -21.5 36l-19.5 35c-7.33301 12 -14 24 -20 36l-37.5 -59.5l-31.5 -48.5c-9.33301 -14 -17 -25 -23 -33s-10 -12 -12 -12c-5.33301 0 -10.166 1.83301 -14.499 5.5
s-8 8.33398 -11 14.001s-5 11.5 -6 17.5s-0.833008 11 0.5 15l31 69l28 61c9.33301 21.333 18.666 41.333 27.999 60l-34.5 64.5l-29.5 58l-22 45.5c-6 12.667 -9.33301 21.667 -10 27c-2 8.66699 -0.333008 16.834 5 24.501s11.833 14 19.5 19s15.334 8.66699 23.001 11
s13.5 2.5 17.5 0.5c2.66699 -1.33301 6.5 -6 11.5 -14s11 -18.667 18 -32s14.667 -28.833 23 -46.5l26.5 -57.5l34 63.5c10 18.333 18 30.833 24 37.5c7.33301 8.66699 17.666 16.667 30.999 24s26.833 13.333 40.5 18s26 7.83398 37 9.50098s17.833 1.5 20.5 -0.5z" />
    <glyph glyph-name="y" unicode="y" horiz-adv-x="309" 
d="M263 560c2 -1.33301 3.66992 -10 5.00293 -26s2.5 -36.833 3.5 -62.5s1.5 -54.834 1.5 -87.501v-101c0 -34.667 -0.166992 -68.834 -0.5 -102.501s-1 -64.334 -2 -92.001s-2 -51.167 -3 -70.5s-2.16699 -31.666 -3.5 -36.999c-1.33301 -4 -5.16602 -10.167 -11.499 -18.5
s-13.833 -16.833 -22.5 -25.5s-17.5 -16.5 -26.5 -23.5s-16.5 -11.5 -22.5 -13.5c-12 -4 -25.333 -3.33301 -40 2s-28.5 12.333 -41.5 21s-24.333 17.834 -34 27.501s-15.5 16.5 -17.5 20.5s-3.83301 9.83301 -5.5 17.5s-2.83398 15.334 -3.50098 23.001
s-0.5 14.334 0.5 20.001s3.16699 8.5 6.5 8.5c2.66699 0 9.83398 -3 21.501 -9l37.5 -18.5c13.333 -6.33301 25.666 -11.5 36.999 -15.5s18.333 -3.66699 21 1c2.66699 5.33301 5.33398 19.833 8.00098 43.5s5.33398 52.5 8.00098 86.5
c-23.333 -8 -44.5 -13.167 -63.5 -15.5s-34.833 0.833984 -47.5 9.50098c-6 4 -12.167 11 -18.5 21s-12 21.5 -17 34.5s-9.16699 27 -12.5 42s-5 29.167 -5 42.5c0 9.33301 1.16699 22.666 3.5 39.999s5.5 36.333 9.5 57l12.5 64c4.33301 22 8.66602 42 12.999 60l11 45.5
c3 12.333 4.83301 19.166 5.5 20.499c1.33301 2 4.66602 3.16699 9.99902 3.5s11 0 17 -1s11.667 -2.83301 17 -5.5s8.66602 -5.66699 9.99902 -9c0.666992 -2.66699 0.833984 -11 0.500977 -25s-1.33301 -30.667 -3 -50s-3.33398 -40.166 -5.00098 -62.499
s-3.33398 -43.333 -5.00098 -63s-3.16699 -36.5 -4.5 -50.5s-2 -22.333 -2 -25c0 -10.667 1.16699 -20.834 3.5 -30.501s5.33301 -18 9 -25s7.5 -12.5 11.5 -16.5s7.66699 -5.33301 11 -4c11.333 2 21.666 4.66699 30.999 8c4.66699 2 9 4 13 6l6 100.5
c2 34.333 3.66699 65.833 5 94.5l3.5 73c1 20 1.5 32.667 1.5 38c0 6 2.66699 12.833 8 20.5s11.333 14.5 18 20.5s13.5 10.5 20.5 13.5s12.5 3.16699 16.5 0.5z" />
    <glyph glyph-name="z" unicode="z" horiz-adv-x="225" 
d="M251 611c0 -2.66699 -3.66797 -13.3311 -11.001 -31.998l-28 -69l-38 -89.5l-39.5 -92.5l-32.5 -77c-9.33301 -22 -15.333 -36.667 -18 -44c15.333 2 30.666 3.83301 45.999 5.5s29.166 3 41.499 4s22.5 1.66699 30.5 2s12.333 0.166016 13 -0.500977
c2 -2.66699 2 -8.16699 0 -16.5s-5 -17.5 -9 -27.5s-8.5 -19.667 -13.5 -29s-9.16699 -16 -12.5 -20c-1.33301 -2 -8.5 -3.66699 -21.5 -5s-27.5 -2.33301 -43.5 -3s-31.333 -1 -46 -1s-24 0.333008 -28 1c-7.33301 1.33301 -14.166 8.33301 -20.499 21
s-10.166 24.667 -11.499 36c-0.666992 5.33301 1.16602 16 5.49902 32s10.166 34.833 17.499 56.5s15.833 45 25.5 70l28 73.5l24.5 66.5c7.33301 20.333 13 36.833 17 49.5c-27.333 -2 -48.333 -3.66699 -63 -5l-32.5 -3c-7 -0.666992 -11.5 -0.833984 -13.5 -0.500977
s-3.33301 1.16602 -4 2.49902c-2.66699 4 -5.16699 11.333 -7.5 22s-4 22 -5 34s-1.33301 23.167 -1 33.5s1.83301 17.166 4.5 20.499c1.33301 2 8.33301 3.66699 21 5s28.167 2.33301 46.5 3s37.833 0.833984 58.5 0.500977s39.834 -1.33301 57.501 -3
s32.334 -4.16699 44.001 -7.5s17.834 -7.66602 18.501 -12.999z" />
    <glyph glyph-name="braceleft" unicode="{" horiz-adv-x="242" 
d="M165 507c-17.333 -22 -30.834 -40.1621 -40.501 -54.4951s-17.167 -25.833 -22.5 -34.5c-6 -10 -9.66699 -17.667 -11 -23c0 -4 2.66699 -11 8 -21c4 -8.66699 10.833 -21 20.5 -37s23.834 -36.667 42.501 -62c-0.666992 -23.333 -1.16699 -46.833 -1.5 -70.5
s-0.833008 -45.5 -1.5 -65.5s-1.16699 -37.167 -1.5 -51.5s-0.5 -23.5 -0.5 -27.5c6 0.666992 13.833 1.33398 23.5 2.00098l28 2c9 0.666992 17 0.833984 24 0.500977s11.167 -1.16602 12.5 -2.49902c2.66699 -2.66699 4.33398 -8.33398 5.00098 -17.001
s0.5 -18.167 -0.5 -28.5s-2.5 -20.5 -4.5 -30.5s-4.33301 -18 -7 -24c-1.33301 -2.66699 -6.16602 -4.5 -14.499 -5.5s-17.833 -1.5 -28.5 -1.5s-20.834 0.5 -30.501 1.5s-16.5 2.16699 -20.5 3.5c-9.33301 3.33301 -17.833 7.66602 -25.5 12.999s-14.5 14 -20.5 26
c-1.33301 2 -2.5 10 -3.5 24s-2.16699 32.167 -3.5 54.5s-2.66602 48 -3.99902 77s-2.33301 59.833 -3 92.5c-21.333 28.667 -37.666 51.667 -48.999 69s-19.666 31 -24.999 41c-6 11.333 -9.33301 19.666 -10 24.999c0.666992 6 4 15 10 27
c5.33301 10.667 13.166 25 23.499 43s25.166 42 44.499 72c-0.666992 35.333 -1 69.166 -1 101.499s0.166992 61.166 0.5 86.499s1 46 2 62s2.16699 25.667 3.5 29c2.66699 6 9.16699 11 19.5 15s22.666 7.5 36.999 10.5s29.5 5.16699 45.5 6.5s31 2.16602 45 2.49902
s26 0.166016 36 -0.500977s16 -2 18 -4c2.66699 -3.33301 4 -10.333 4 -21s-1.16699 -22.334 -3.5 -35.001s-5.33301 -24.834 -9 -36.501s-7.5 -19.5 -11.5 -23.5c-1.33301 -2 -5 -3 -11 -3s-13.167 0.333008 -21.5 1s-17.833 1.33398 -28.5 2.00098s-21.334 1 -32.001 1
c0 -4 -0.333008 -12.667 -1 -26s-1.16699 -29.833 -1.5 -49.5s-0.833008 -41.167 -1.5 -64.5z" />
    <glyph glyph-name="bar" unicode="|" horiz-adv-x="184" 
d="M146 734c1.33301 -2.66699 1.99902 -14.6641 1.99902 -35.9971s-0.333008 -48.666 -1 -81.999s-1.66699 -70.833 -3 -112.5s-3 -84.167 -5 -127.5l-6 -127c-2 -41.333 -4.16699 -78.666 -6.5 -111.999s-4.66602 -60.833 -6.99902 -82.5s-4.5 -33.834 -6.5 -36.501
c-7.33301 -10 -15.833 -15.833 -25.5 -17.5s-17.834 -1.83398 -24.501 -0.500977c-2 0.666992 -4 10.5 -6 29.5s-3.83301 44.333 -5.5 76s-3.16699 67.667 -4.5 108s-2.33301 81.666 -3 123.999l-2 126c-0.666992 41.667 -1 79.167 -1 112.5s0.333008 61.166 1 83.499
s1.66699 35.833 3 40.5c2.66699 9.33301 8.83398 17.666 18.501 24.999s20.167 12.833 31.5 16.5s22 5 32 4s16.333 -4.83301 19 -11.5z" />
    <glyph glyph-name="braceright" unicode="}" horiz-adv-x="283" 
d="M97 507l-2.00195 70.9951c-0.666992 23.333 -1.16699 44.833 -1.5 64.5s-0.833008 36.167 -1.5 49.5s-1 22 -1 26c-11.333 0 -22.166 -0.333008 -32.499 -1s-19.833 -1.33398 -28.5 -2.00098s-15.834 -1 -21.501 -1s-9.16699 1 -10.5 3c-4 4 -7.83301 11.833 -11.5 23.5
s-6.66699 23.834 -9 36.501s-3.66602 24.334 -3.99902 35.001s1.16699 17.667 4.5 21c2 2 8 3.33301 18 4s22 0.833984 36 0.500977s29 -1.16602 45 -2.49902s31.167 -3.5 45.5 -6.5s26.666 -6.5 36.999 -10.5s16.833 -9 19.5 -15c1.33301 -3.33301 2.5 -13 3.5 -29
s1.66699 -36.667 2 -62s0.5 -54.166 0.5 -86.499s-0.333008 -66.166 -1 -101.499c19.333 -30 34.166 -54 44.499 -72s18.166 -32.333 23.499 -43c6 -12 9.33301 -21 10 -27c-0.666992 -5.33301 -4 -13.666 -10 -24.999c-5.33301 -10 -13.666 -23.667 -24.999 -41
s-27.666 -40.333 -48.999 -69c-1.33301 -32.667 -2.5 -63.5 -3.5 -92.5s-2.16699 -54.667 -3.5 -77s-2.66602 -40.5 -3.99902 -54.5s-2.33301 -22 -3 -24c-5.33301 -12 -12 -20.667 -20 -26s-16.667 -9.66602 -26 -12.999c-4 -1.33301 -10.833 -2.5 -20.5 -3.5
s-19.834 -1.5 -30.501 -1.5s-20.167 0.5 -28.5 1.5s-12.833 2.83301 -13.5 5.5c-3.33301 6 -6 14 -8 24s-3.5 20.167 -4.5 30.5s-1.16699 19.833 -0.5 28.5s2.33398 14.334 5.00098 17.001c1.33301 1.33301 5.5 2.16602 12.5 2.49902s15.167 0.166016 24.5 -0.500977l28 -2
c9.33301 -0.666992 17 -1.33398 23 -2.00098c0 4 -0.166992 13.167 -0.5 27.5s-0.833008 31.5 -1.5 51.5s-1.16699 41.833 -1.5 65.5s-0.833008 47.167 -1.5 70.5c18.667 25.333 32.667 46 42 62s16.333 28.333 21 37c4.66699 10 7.33398 17 8.00098 21
c-1.33301 5.33301 -5 13 -11 23c-5.33301 8.66699 -12.833 20.167 -22.5 34.5s-23.167 32.5 -40.5 54.5z" />
    <glyph glyph-name="asciitilde" unicode="~" horiz-adv-x="396" 
d="M338 365c3.33301 3.33301 8.16504 3.00586 14.498 -0.994141s12.333 -9.5 18 -16.5s10 -14.333 13 -22s3.16699 -13.5 0.5 -17.5c-3.33301 -4 -9.66602 -10.667 -18.999 -20s-19.5 -19 -30.5 -29s-21.833 -18.833 -32.5 -26.5s-18.667 -11.834 -24 -12.501
c-6 -0.666992 -15.667 3.66602 -29 12.999s-27.333 19.666 -42 30.999s-28.667 21.666 -42 30.999s-23 13.666 -29 12.999c-2.66699 0 -7.33398 -3 -14.001 -9s-13.667 -12.667 -21 -20l-21.5 -22c-7 -7.33301 -12.5 -12.666 -16.5 -15.999
c-3.33301 -4 -8.16602 -4.33301 -14.499 -1s-12.666 8.16602 -18.999 14.499s-11.5 13 -15.5 20s-5 12.167 -3 15.5c1.33301 2.66699 6.83301 9.66699 16.5 21s20.667 23.166 33 35.499s24.833 23.5 37.5 33.5s23 15.333 31 16c9.33301 0.666992 21.5 -3 36.5 -11
s30 -17.333 45 -28l40.5 -29c12 -8.66699 20 -13 24 -13c2 0 5.66699 1.83301 11 5.5s11.333 8.16699 18 13.5s13 10.833 19 16.5z" />
    <glyph glyph-name="uni00A0" unicode="&#xa0;" horiz-adv-x="195" 
 />
    <glyph glyph-name="exclamdown" unicode="&#xa1;" horiz-adv-x="195" 
d="M38.0098 7.04492c-1.33301 4 -1.83301 19.499 -1.5 46.4971s1.33301 59.9961 3 98.9941c1.66699 38.9971 3.83301 80.6611 6.49902 124.992c2.66699 44.3311 5.5 85.9951 8.5 124.992c2.99902 38.998 5.99902 71.9961 8.99902 98.9941s5.83301 42.4971 8.5 46.4971
c6.66602 10.666 16.665 16.832 29.998 18.499s23.332 1.83398 29.998 0.500977c2 -0.666992 4 -8 6 -21.999c1.99902 -13.999 3.83203 -32.6641 5.49902 -55.9961s3.16699 -49.9971 4.5 -79.9951s2.33301 -60.8291 3 -92.4941l2 -93.9951
c0.666992 -30.998 1 -59.1631 1 -84.4941c0 -25.332 -0.333008 -46.6641 -1 -63.9961c-0.666992 -17.333 -1.66699 -28.332 -3 -32.998c-2.66699 -9.33301 -9.33301 -17.666 -19.999 -24.999s-22.332 -12.833 -34.998 -16.5
c-12.666 -3.66602 -24.499 -4.99902 -35.498 -3.99902c-10.999 0.999023 -18.165 4.83203 -21.498 11.499zM55.0088 637.006c-2.66699 4.66699 -3.83496 11.166 -3.50195 19.499s1.33301 16.999 3 25.999c1.66699 8.99902 4 17.665 6.99902 25.998
c3 8.33301 6.16699 15.166 9.5 20.499c2.66699 3.99902 6.33301 7.33203 10.999 9.99902c4.66699 2.66699 9.66699 4.5 15 5.5s10.333 1.5 14.999 1.5h10.999c4 -0.666992 8.16699 -3.66699 12.5 -9s7.99902 -11.832 10.999 -19.498c3 -7.66699 5.16699 -16 6.5 -24.999
s1 -17.498 -0.999023 -25.4971c-2 -7.33301 -7.66602 -14.166 -16.999 -20.499s-19.499 -11.166 -30.498 -14.499s-21.332 -4.83301 -30.998 -4.5c-9.66699 0.333008 -15.833 3.49902 -18.499 9.49805z" />
    <glyph glyph-name="cent" unicode="&#xa2;" horiz-adv-x="296" 
d="M281 562c0.666992 -7.33301 0.00488281 -17.4932 -1.99512 -30.4932s-4.5 -26.167 -7.5 -39.5s-6.33301 -25.333 -10 -36s-6.5 -17 -8.5 -19c-5.33301 -4.66699 -11.833 -9.5 -19.5 -14.5s-14.834 -5.83301 -21.501 -2.5c-3.33301 1.33301 -6.5 9.33301 -9.5 24
s-5.66699 30.5 -8 47.5s-4.33301 32.667 -6 47s-2.83398 22.166 -3.50098 23.499c-0.666992 0.666992 -2.5 1.66699 -5.5 3s-6.16699 2.5 -9.5 3.5s-6.66602 1.33301 -9.99902 1s-5.66602 -1.5 -6.99902 -3.5c-2 -2 -5.33301 -8.66699 -10 -20s-9.16699 -26 -13.5 -44
s-8.33301 -38.333 -12 -61s-5.5 -46.334 -5.5 -71.001c0 -18 0.833008 -35 2.5 -51s4 -30 7 -42s6.5 -21.5 10.5 -28.5s8 -10.5 12 -10.5c4.66699 0 9.66699 3.66699 15 11s10.666 15.666 15.999 24.999s10 18.333 14 27s7 14 9 16c5.33301 7.33301 12 13.5 20 18.5
s15.333 7.5 22 7.5c2.66699 0 5 -1.83301 7 -5.5s3.33301 -8 4 -13s1.16699 -10.167 1.5 -15.5s0.5 -9.66602 0.5 -12.999c0 -6 -1.5 -16.833 -4.5 -32.5s-6.83301 -31.5 -11.5 -47.5s-10.167 -30.167 -16.5 -42.5s-12.833 -18.5 -19.5 -18.5
c-2.66699 0.666992 -5.83398 1.33398 -9.50098 2.00098s-7.83398 1.66699 -12.501 3c-1.33301 -30 -2.83301 -54.667 -4.5 -74s-3.16699 -30 -4.5 -32c-2.66699 -4.66699 -6.5 -7.83398 -11.5 -9.50098s-10.167 -2.5 -15.5 -2.5s-10.333 0.333008 -15 1s-8 1.66699 -10 3
s-3.66699 15 -5 41s-2.66602 59.667 -3.99902 101c-10.667 5.33301 -19.834 10.166 -27.501 14.499s-12.5 8.16602 -14.5 11.499c-2.66699 4 -6.66699 13.167 -12 27.5s-10.5 31.833 -15.5 52.5s-9.5 43.5 -13.5 68.5s-6 50.167 -6 75.5s0.833008 50.166 2.5 74.499
s4.5 46.166 8.5 65.499s9 35 15 47s13.333 18.333 22 19c14 1.33301 27.333 1 40 -1c0.666992 18.667 1.16699 33.834 1.5 45.501s1.16602 19.167 2.49902 22.5c1.33301 7.33301 5.83301 13.5 13.5 18.5s16 8.33301 25 10s17.5 1.5 25.5 -0.5s13 -6 15 -12
c1.33301 -2.66699 2.16602 -13.334 2.49902 -32.001s0.5 -42.334 0.5 -71.001c24.667 -10 45 -20.833 61 -32.5s24.667 -21.5 26 -29.5z" />
    <glyph glyph-name="sterling" unicode="&#xa3;" horiz-adv-x="326" 
d="M329 191c2.66699 -2.66699 2.66992 -8.83301 0.00292969 -18.5s-6.66699 -20.167 -12 -31.5s-11 -22.166 -17 -32.499s-11 -17.5 -15 -21.5c-1.33301 -1.33301 -7 -2.5 -17 -3.5s-22.5 -1.83301 -37.5 -2.5s-31.333 -1.33398 -49 -2.00098s-34.334 -1.16699 -50.001 -1.5
s-29.167 -0.5 -40.5 -0.5s-18.666 0.333008 -21.999 1c-5.33301 0.666992 -10.333 3.5 -15 8.5s-8.83398 10.667 -12.501 17s-6.66699 13.166 -9 20.499s-3.5 14 -3.5 20s2.16699 17 6.5 33l15.5 55l19 63l18 57c-17.333 1.33301 -31.833 2.66602 -43.5 3.99902
s-18.5 3 -20.5 5c-6 5.33301 -9 13 -9 23s0.666992 17.667 2 23c1.33301 2.66699 8.16602 5.33398 20.499 8.00098s27.833 5.33398 46.5 8.00098c-12 32.667 -22 63.167 -30 91.5s-14.333 53.166 -19 74.499s-7.83398 38.5 -9.50098 51.5s-1.83398 21.167 -0.500977 24.5
c0.666992 3.33301 4.66699 9 12 17s15.666 16.333 24.999 25s18.666 16.5 27.999 23.5s16.666 11.167 21.999 12.5c10.667 2 25 -1.5 43 -10.5s35.667 -19.833 53 -32.5s32.833 -25 46.5 -37s21.5 -20 23.5 -24s3.33301 -10.833 4 -20.5s1 -19.334 1 -29.001
s-0.833008 -18.167 -2.5 -25.5s-3.83398 -11 -6.50098 -11s-10.5 4.66699 -23.5 14l-43 29.5c-15.667 10.333 -30.167 19.166 -43.5 26.499s-21.333 9.33301 -24 6c-1.33301 -2.66699 -0.666016 -11 2.00098 -25s6.33398 -30.667 11.001 -50s9.83398 -39.666 15.501 -60.999
s10.5 -40.666 14.5 -57.999c17.333 1.33301 32.833 2.16602 46.5 2.49902s22.167 -0.166992 25.5 -1.5c6 -1.33301 10.667 -6.16602 14 -14.499s5.5 -17.166 6.5 -26.499s0.833008 -18.333 -0.5 -27s-4.33301 -14 -9 -16c-3.33301 -1.33301 -12.666 -2.33301 -27.999 -3
s-33 -1 -53 -1c-3.33301 -12 -7.66602 -26.667 -12.999 -44l-17.5 -54l-24.5 -74l149 14.5c31.333 3 48 3.16699 50 0.5z" />
    <glyph glyph-name="currency" unicode="&#xa4;" horiz-adv-x="357" 
d="M278 227c15.333 -32 27.333 -58.3311 36 -78.998s11.667 -31.334 9 -32.001c-4 -0.666992 -9.83301 0.666016 -17.5 3.99902s-15.5 7.5 -23.5 12.5s-15.667 10.333 -23 16s-12.333 10.5 -15 14.5c-3.33301 4 -6.66602 8.66699 -9.99902 14s-6.66602 10.333 -9.99902 15
l-10 16c-12.667 0 -27.334 0.5 -44.001 1.5s-31.667 2.16699 -45 3.5l-48.5 -69c-13 -18 -20.833 -27 -23.5 -27c-4.66699 0 -8.83398 2.16699 -12.501 6.5s-6.66699 9.33301 -9 15s-3.83301 11.667 -4.5 18s-0.333984 11.5 0.999023 15.5l10.5 23l10.5 23l12 24
c0 0.666992 -0.166992 1 -0.5 1s-0.5 0.333008 -0.5 1c-2 2.66699 -3.66699 11.667 -5 27s-2 33.5 -2 54.5s0.5 43.167 1.5 66.5s2.5 44 4.5 62l-32 55.5c-8.66699 15.667 -14 26.834 -16 33.501c-2 8.66699 -1 17.167 3 25.5s9.5 15.666 16.5 21.999s14 11 21 14
s12.5 3.83301 16.5 2.5c3.33301 -1.33301 9.33301 -9 18 -23l33 -55c4 1.33301 8 2.83301 12 4.5l11 4.5c8.66699 2 19.5 3.16699 32.5 3.5s25.833 -1.16699 38.5 -4.5l18 27c8 8.66699 18.667 16.167 32 22.5s26.5 11.5 39.5 15.5s24.667 6.5 35 7.5s16.5 0.5 18.5 -1.5
c1.33301 -1.33301 0 -6.5 -4 -15.5s-10 -21 -18 -36l-29 -52l-37 -62.5c4 -21.333 7.16699 -42.833 9.5 -64.5l5.5 -50.5c1.33301 -18.667 1.83301 -37.667 1.5 -57s-2.16602 -33 -5.49902 -41c0 -0.666992 -0.166992 -1 -0.5 -1s-0.5 -0.333008 -0.5 -1zM201 483.002
c-3.33301 2.66699 -7.49902 3.83398 -12.499 3.50098s-10.167 -1.16602 -15.5 -2.49902s-10.333 -3 -15 -5s-8 -3.66699 -10 -5c-8 -5.33301 -12.333 -15 -13 -29c0 -3.33301 -0.5 -13.5 -1.5 -30.5s-1.5 -35.5 -1.5 -55.5s0.5 -38.5 1.5 -55.5s3.16699 -27.5 6.5 -31.5
c3.33301 -3.33301 7.66602 -5.83301 12.999 -7.5s10.833 -2.5 16.5 -2.5s11 0.666992 16 2s8.83301 3.66602 11.5 6.99902c1.33301 2 2.83301 8.66699 4.5 20s3 24.5 4 39.5s1.66699 31.167 2 48.5s0.333008 33.5 0 48.5s-1 27.667 -2 38s-2.5 16.166 -4.5 17.499z" />
    <glyph glyph-name="yen" unicode="&#xa5;" horiz-adv-x="330" 
d="M278 328c-3.33301 -1.33301 -11.333 -2.16602 -24 -2.49902s-27.667 -0.833008 -45 -1.5c-0.666992 -5.33301 -1 -10.166 -1 -14.499s-0.333008 -9.16602 -1 -14.499c15.333 1.33301 28.333 2.33301 39 3s17.667 0.333984 21 -0.999023
c6 -1.33301 10.667 -5.66602 14 -12.999s5.5 -15.333 6.5 -24s0.666992 -16.667 -1 -24s-4.5 -12 -8.5 -14c-3.33301 -1.33301 -11.833 -2.33301 -25.5 -3s-29.834 -1.33398 -48.501 -2.00098c-2 -40.667 -4.16699 -73.334 -6.5 -98.001s-4.5 -37.667 -6.5 -39
c-2.66699 -2 -7.16699 -1.16699 -13.5 2.5s-13 8.66699 -20 15s-13.333 13 -19 20s-9.16699 13.167 -10.5 18.5c-1.33301 2 -2.66602 10.333 -3.99902 25s-2.66602 34 -3.99902 58c-21.333 0.666992 -40 1.66699 -56 3s-25.333 3 -28 5c-5.33301 4.66699 -8 11.5 -8 20.5
s0.666992 15.5 2 19.5c1.33301 2.66699 10.166 5.66699 26.499 9s35.833 6.66602 58.5 9.99902c-1.33301 13.333 -2.33301 26.666 -3 39.999c-19.333 0.666992 -36.333 1.66699 -51 3s-23 2.66602 -25 3.99902c-5.33301 4.66699 -8 11.667 -8 21s0.666992 16 2 20
c1.33301 2 8.33301 4.33301 21 7s28.667 5.66699 48 9c-10 23.333 -20.667 50.333 -32 81l-32 93.5c-12 36.333 -23.667 77.166 -35 122.499c0 4.66699 3.16699 9.66699 9.5 15s14 10 23 14s18.833 7 29.5 9s20 2.33301 28 1c2 -3.33301 6.33301 -16 13 -38
c2.66699 -9.33301 5.83398 -21.333 9.50098 -36l13 -53.5c5 -21 10.5 -45.5 16.5 -73.5l21 -97l23.5 95l18.5 72c5.33301 20.667 10.166 38.167 14.499 52.5s8.16602 26.166 11.499 35.499c7.33301 22 13 35.333 17 40c4 2 10.833 2.66699 20.5 2
s19.334 -2.16699 29.001 -4.5s18.167 -5.5 25.5 -9.5s11.333 -8 12 -12c0 -1.33301 -3.33301 -12 -10 -32l-25.5 -73.5l-34.5 -94.5l-37 -96c21.333 1.33301 34.333 1.33301 39 0c6 -1.33301 10.667 -5.66602 14 -12.999s5.5 -15.166 6.5 -23.499s0.666992 -16.333 -1 -24
s-4.5 -12.5 -8.5 -14.5z" />
    <glyph glyph-name="brokenbar" unicode="&#xa6;" horiz-adv-x="179" 
d="M132 324c1.33301 -3.33301 1.99805 -12.8301 1.99805 -28.4971s-0.666992 -34.334 -2 -56.001l-4.5 -70c-1.66699 -25 -3.66699 -48.333 -6 -70s-4.66602 -40.334 -6.99902 -56.001s-4.5 -25.167 -6.5 -28.5c-5.33301 -8 -13.166 -13 -23.499 -15
s-18.166 -2.33301 -23.499 -1c-2 0.666992 -4 7.66699 -6 21s-3.66699 30 -5 50s-2.5 42.167 -3.5 66.5s-1.66699 47.333 -2 69s-0.333008 40.667 0 57s1.16602 27.166 2.49902 32.499c2 7.33301 7.16699 13.833 15.5 19.5s17.333 10 27 13s18.667 4.33301 27 4
s13.5 -2.83301 15.5 -7.5zM139.998 735.003c1.33301 -3.33301 2.16895 -12.6631 2.50195 -27.9961s0.333008 -33.833 0 -55.5s-1.16602 -44.834 -2.49902 -69.501s-2.83301 -47.834 -4.5 -69.501s-3.5 -40.334 -5.5 -56.001s-4 -24.834 -6 -27.501
c-4.66699 -6.66699 -10.334 -12 -17.001 -16s-13.5 -6.5 -20.5 -7.5s-13.667 -0.833008 -20 0.5s-11.5 3.66602 -15.5 6.99902c-2 1.33301 -3.66699 8.83301 -5 22.5s-2.33301 30.667 -3 51s-1.33398 42.333 -2.00098 66s-0.833984 46 -0.500977 67s1 39.5 2 55.5
s2.16699 26.667 3.5 32c2 6.66699 7.66699 13 17 19s19.333 10.5 30 13.5s20.667 4.33301 30 4s15 -3.16602 17 -8.49902z" />
    <glyph glyph-name="section" unicode="&#xa7;" horiz-adv-x="390" 
d="M367 353c0.666992 -10 -1.16504 -21.833 -5.49805 -35.5s-10.333 -27.834 -18 -42.501s-16.167 -29 -25.5 -43s-19 -26 -29 -36c19.333 -20.667 35.666 -40.334 48.999 -59.001s20.666 -34.334 21.999 -47.001c1.33301 -13.333 -2 -30.166 -10 -50.499
s-18.167 -40.166 -30.5 -59.499s-25.5 -36 -39.5 -50s-26.333 -21 -37 -21c-7.33301 0 -16.833 2.83301 -28.5 8.5s-24.167 13 -37.5 22s-27 19.167 -41 30.5s-26.833 22.333 -38.5 33s-21.667 20.5 -30 29.5s-13.166 15.833 -14.499 20.5
c-2 6.66699 -3.16699 15.667 -3.5 27s0.166992 22.333 1.5 33s3.5 19.834 6.5 27.501s6.83301 11.5 11.5 11.5c2.66699 0 7.83398 -3.5 15.501 -10.5s16.334 -16 26.001 -27l31 -36c11 -13 21.667 -24.833 32 -35.5s19.833 -19.667 28.5 -27s15.334 -10.666 20.001 -9.99902
c4 0 8.16699 2.66699 12.5 8s8.5 11.5 12.5 18.5s7.33301 14.333 10 22s4 14.167 4 19.5c-0.666992 6.66699 -6.83398 16.167 -18.501 28.5s-26.334 26.166 -44.001 41.499l-57.5 48.5l-57.5 48.5c-17.667 15.333 -32.5 29.333 -44.5 42s-18.333 22.334 -19 29.001
c-0.666992 6 1.5 15.833 6.5 29.5s11.5 28.834 19.5 45.501s17.5 33.834 28.5 51.501s22.167 34.167 33.5 49.5c-22.667 19.333 -41.667 36.666 -57 51.999s-23.333 26.666 -24 33.999c-0.666992 6.66699 1.5 17 6.5 31s11.833 29.667 20.5 47s18.5 35.333 29.5 54
s22.167 35.5 33.5 50.5s22.5 27.333 33.5 37s20.833 14.5 29.5 14.5c16.667 0 36.5 -4.5 59.5 -13.5s45.167 -19.833 66.5 -32.5s39.666 -26.167 54.999 -40.5s23.333 -26.833 24 -37.5c0.666992 -8 -0.5 -20.333 -3.5 -37s-7.66699 -33.334 -14 -50.001
s-14.5 -31.167 -24.5 -43.5s-21.667 -18.5 -35 -18.5c-9.33301 0 -16.833 7.16699 -22.5 21.5s-10 30.666 -13 48.999s-5.33301 36.5 -7 54.5s-3.16699 30.667 -4.5 38c-2 3.33301 -6.33301 6.83301 -13 10.5s-13 5.5 -19 5.5s-12.833 -4.66699 -20.5 -14
s-15 -20.166 -22 -32.499s-13 -24.833 -18 -37.5s-7.16699 -22 -6.5 -28c0 -4 5 -11.5 15 -22.5s22.5 -23.833 37.5 -38.5l48.5 -48.5c17.333 -17.667 33.5 -35 48.5 -52s27.667 -33.167 38 -48.5s16.166 -28.333 17.499 -39zM156.001 339
c0.666992 -3.33301 4.16699 -8.99902 10.5 -16.999s14.5 -17.333 24.5 -28c8 -7.33301 15.167 -13.5 21.5 -18.5s11.5 -7.5 15.5 -7.5s8.16699 2.66699 12.5 8s8.5 11.666 12.5 18.999s7.33301 14.833 10 22.5s4 14.167 4 19.5c-0.666992 7.33301 -8.5 18.333 -23.5 33
s-33.167 31.334 -54.5 50.001c-4.66699 -7.33301 -9 -14.833 -13 -22.5s-7.5 -15.334 -10.5 -23.001s-5.33301 -14.5 -7 -20.5s-2.5 -11 -2.5 -15z" />
    <glyph glyph-name="dieresis" unicode="&#xa8;" 
d="M163 744c2 -5.33301 2.99805 -12.168 2.99805 -20.501s-1 -17.166 -3 -26.499s-4.66699 -18.333 -8 -27s-6.66602 -15.667 -9.99902 -21c-3.33301 -4.66699 -7.5 -8.33398 -12.5 -11.001s-10.167 -4.5 -15.5 -5.5s-10.5 -1.66699 -15.5 -2
s-8.83301 -0.166016 -11.5 0.500977c-4 0.666992 -8.16699 3.66699 -12.5 9s-8.16602 12 -11.499 20s-5.66602 16.667 -6.99902 26s-1 18.333 1 27c2.66699 8 9 15.167 19 21.5s20.667 11.333 32 15s22.166 5.16699 32.499 4.5s16.833 -4 19.5 -10zM333.998 743.998
c2 -5.33301 2.99902 -12.168 2.99902 -20.501s-1 -17.166 -3 -26.499s-4.66699 -18.333 -8 -27s-6.66602 -15.667 -9.99902 -21c-3.33301 -4.66699 -7.33301 -8.33398 -12 -11.001s-9.83398 -4.5 -15.501 -5.5s-11 -1.66699 -16 -2s-8.83301 -0.166016 -11.5 0.500977
c-4 0.666992 -8.16699 3.66699 -12.5 9s-8.16602 12 -11.499 20s-5.66602 16.667 -6.99902 26s-1 18.333 1 27c2.66699 8 9 15.167 19 21.5s20.667 11.333 32 15s22.166 5.16699 32.499 4.5s16.833 -4 19.5 -10z" />
    <glyph glyph-name="copyright" unicode="&#xa9;" horiz-adv-x="423" 
d="M328 247c-17.333 -14 -39.0049 -23.167 -65.0049 -27.5s-52.667 -4.16602 -80 0.500977s-53.5 13.334 -78.5 26.001s-44.833 29 -59.5 49c-3.33301 4.66699 -6.66602 15 -9.99902 31s-6.16602 35.333 -8.49902 58s-4 47.167 -5 73.5s-0.666992 52.333 1 78
s4.83398 49.667 9.50098 72s11.667 40.5 21 54.5s22.5 26 39.5 36s35.667 18.167 56 24.5s41.833 10.833 64.5 13.5s44.167 3.5 64.5 2.5s39 -3.66699 56 -8s30.167 -10.5 39.5 -18.5s15.833 -24.167 19.5 -48.5s5.33398 -52.5 5.00098 -84.5s-2.5 -66 -6.5 -102
s-9.16699 -69.833 -15.5 -101.5s-13.666 -59.334 -21.999 -83.001s-16.833 -38.834 -25.5 -45.501zM329.995 459c0 19.333 0.5 40.6729 1.5 64.0059s1 45.166 0 65.499s-3.33301 38.166 -7 53.499s-10.167 24.666 -19.5 27.999c-6 2 -15.5 3.83301 -28.5 5.5
s-27.333 2.66699 -43 3s-31.834 -0.333984 -48.501 -2.00098s-32.167 -4.83398 -46.5 -9.50098s-26.5 -11.167 -36.5 -19.5s-16 -18.833 -18 -31.5c-2 -13.333 -2.83301 -29.833 -2.5 -49.5s1.5 -41 3.5 -64s4.83301 -46.167 8.5 -69.5s7.66699 -45 12 -65
s8.83301 -37.333 13.5 -52s9.33398 -24.334 14.001 -29.001c6 -5.33301 14 -10.666 24 -15.999c8.66699 -4.66699 20 -9.16699 34 -13.5s31.667 -7.16602 53 -8.49902l13.5 5c9 3.33301 18.833 11.666 29.5 24.999s20.5 34.166 29.5 62.499s13.5 67.5 13.5 117.5z
M233.995 584.007c-1.33301 1.33301 -4.33008 2.99512 -8.99707 4.99512s-8 1.33301 -10 -2c-1.33301 -1.33301 -3.33301 -6.16602 -6 -14.499s-5.33398 -19 -8.00098 -32s-5.16699 -27.833 -7.5 -44.5s-3.5 -34 -3.5 -52c0 -12.667 0.5 -24.834 1.5 -36.501
s2.5 -21.834 4.5 -30.501s4.16699 -15.667 6.5 -21s4.83301 -8 7.5 -8s5.66699 2.66699 9 8s6.5 11.333 9.5 18s5.66699 13.167 8 19.5s4.16602 10.5 5.49902 12.5c3.33301 5.33301 7.33301 9.83301 12 13.5s8.66699 5.5 12 5.5c4 0 6.33301 -4.5 7 -13.5s1 -16.167 1 -21.5
c0 -4 -0.833008 -11.667 -2.5 -23s-3.83398 -22.833 -6.50098 -34.5s-5.83398 -22 -9.50098 -31s-7.5 -13.5 -11.5 -13.5c-4 0.666992 -10.167 2.83398 -18.5 6.50098s-16.833 7.83398 -25.5 12.501s-16.5 9.33398 -23.5 14.001s-11.167 8.33398 -12.5 11.001
s-3.66602 9.16699 -6.99902 19.5s-6.5 23 -9.5 38s-5.66699 31.5 -8 49.5s-3.5 36.333 -3.5 55c0 18 0.5 35.833 1.5 53.5s2.66699 33.5 5 47.5s5.16602 25.333 8.49902 34s7.66602 13.334 12.999 14.001c14.667 1.33301 29.5 0 44.5 -4s28.5 -9.33301 40.5 -16
s21.833 -13.667 29.5 -21s11.834 -13.333 12.501 -18c0.666992 -5.33301 0.5 -12.833 -0.5 -22.5s-2.5 -19.167 -4.5 -28.5s-4 -17.833 -6 -25.5s-4 -12.167 -6 -13.5c-3.33301 -4 -7.16602 -7.83301 -11.499 -11.5s-8.5 -4.5 -12.5 -2.5
c-2 0.666992 -3.83301 6.5 -5.5 17.5s-3.16699 22.667 -4.5 35s-2.5 23.833 -3.5 34.5s-1.83301 16.334 -2.5 17.001z" />
    <glyph glyph-name="ordfeminine" unicode="&#xaa;" horiz-adv-x="297" 
d="M253 589c2.66699 -4.66699 5.50098 -9.16992 8.50098 -13.5029s5.5 -10.166 7.5 -17.499s3.66699 -16.666 5 -27.999s2 -26.333 2 -45c0 -28.667 -0.5 -57.667 -1.5 -87s-1.83301 -55.666 -2.5 -78.999c-1.33301 -39.333 -2.66602 -72.833 -3.99902 -100.5
s-2.66602 -42.167 -3.99902 -43.5c-2 -1.33301 -5.66699 -0.333008 -11 3s-10.666 7.5 -15.999 12.5s-10.333 10.333 -15 16s-7.33398 10.5 -8.00098 14.5c0 2 -1 10 -3 24c-13.333 -8 -28.5 -13.5 -45.5 -16.5s-33.5 -4 -49.5 -3s-30.833 4 -44.5 9
s-24.167 11.833 -31.5 20.5c-2.66699 2.66699 -5.16699 7.5 -7.5 14.5s-4.16602 15 -5.49902 24s-2.66602 18.5 -3.99902 28.5s-2.33301 19.667 -3 29c-1.33301 22 1.66699 41.167 9 57.5s20.333 28.5 39 36.5c7.33301 3.33301 17.666 5.16602 30.999 5.49902
s26.833 -0.166992 40.5 -1.5s26 -3 37 -5s18.167 -3.66699 21.5 -5c-2 29.333 -3.66699 54.833 -5 76.5s-4 35.834 -8 42.501c-2.66699 4.66699 -6 8.66699 -10 12c-3.33301 3.33301 -8 6.5 -14 9.5s-13 5.5 -21 7.5c-6.66699 2 -12.334 -0.666992 -17.001 -8
c-4.66699 -6 -8.66699 -16.333 -12 -31s-5.66602 -37 -6.99902 -67c-19.333 -0.666992 -34.5 -0.5 -45.5 0.5s-19.167 2.16699 -24.5 3.5c-6.66699 1.33301 -10.334 2.66602 -11.001 3.99902c-1.33301 2.66699 -0.833008 11.334 1.5 26.001s5.83301 30.667 10.5 48
s10 33.666 16 48.999s12.667 25 20 29c13.333 8 29.666 10.833 48.999 8.5s38.166 -7.16602 56.499 -14.499s34.666 -15.5 48.999 -24.5s23.5 -16.167 27.5 -21.5zM200.001 336.997c0 2.66699 0.167969 6.33301 0.500977 11s0.5 9.66699 0.5 15s-0.166992 10.333 -0.5 15
s-0.833008 8 -1.5 10c-1.33301 3.33301 -6.33301 6.33301 -15 9s-18.167 4.5 -28.5 5.5s-20.333 1.16699 -30 0.5s-16.167 -2 -19.5 -4c-4.66699 -3.33301 -8 -7.5 -10 -12.5s-3 -13.167 -3 -24.5c-0.666992 -10 0.166016 -21.167 2.49902 -33.5
s5.16602 -19.5 8.49902 -21.5c4 -2.66699 11 -5 21 -7s20.333 -2.5 31 -1.5s20.334 4.33301 29.001 10s13.667 15.167 15 28.5z" />
    <glyph glyph-name="guillemotleft" unicode="&#xab;" horiz-adv-x="334" 
d="M180 346c3.33301 -2 6.16797 -8.67285 8.50098 -20.0059s1.83301 -21.666 -1.5 -30.999c-0.666992 -3.33301 -5.33398 -9.66602 -14.001 -18.999l-31 -32l-38 -38l-36 -37l33.5 -38.5l35 -38.5c11 -12 20.333 -22.667 28 -32s11.834 -15.333 12.501 -18
c2.66699 -9.33301 3 -19.666 1 -30.999s-5 -18 -9 -20c-2 -0.666992 -6.66699 1.5 -14 6.5s-15.833 11.667 -25.5 20l-31.5 27.5c-11.333 10 -21.833 20 -31.5 30l-25.5 27c-7.33301 8 -12 14 -14 18c-2.66699 4.66699 -4.5 12 -5.5 22s-1.5 20.5 -1.5 31.5
s0.5 20.833 1.5 29.5s2.16699 14 3.5 16c3.33301 6 12.666 16.333 27.999 31s32 29.334 50 44.001s34.667 27.334 50 38.001s24.333 15.334 27 14.001zM318.002 345.994c4.66699 -2 8.00098 -8.67285 10.001 -20.0059s1.66699 -21.666 -1 -30.999
c-1.33301 -3.33301 -6.33301 -9.66602 -15 -18.999l-31 -32l-38 -38l-36 -37l33.5 -38.5l34.5 -38.5l27.5 -32c7.66699 -9.33301 12.167 -15.333 13.5 -18c2.66699 -9.33301 2.83398 -19.666 0.500977 -30.999s-5.5 -18 -9.5 -20c-2 -0.666992 -6.5 1.5 -13.5 6.5
s-15.333 11.667 -25 20l-31.5 27.5c-11.333 10 -21.833 20 -31.5 30l-25.5 27c-7.33301 8 -12 14 -14 18c-2.66699 4.66699 -4.33398 12 -5.00098 22s-1 20.5 -1 31.5s0.333008 20.833 1 29.5s1.66699 14 3 16c3.33301 6 12.666 16.333 27.999 31s31.833 29.334 49.5 44.001
s34.167 27.334 49.5 38.001s24.333 15.334 27 14.001z" />
    <glyph glyph-name="logicalnot" unicode="&#xac;" horiz-adv-x="446" 
d="M431 296c-1.33301 -19.333 -2.49805 -38.166 -3.49805 -56.499s-2.16699 -35 -3.5 -50s-2.83301 -27.5 -4.5 -37.5s-3.16699 -16 -4.5 -18c-2.66699 -4 -6.33398 -7.33301 -11.001 -10s-9.33398 -4.5 -14.001 -5.5s-9.16699 -1.5 -13.5 -1.5h-10.5c-2 0 -4 4.33301 -6 13
s-4 19.834 -6 33.501s-3.83301 29.334 -5.5 47.001s-3.16699 35.834 -4.5 54.501c-26.667 0 -57.5 0.166992 -92.5 0.5s-68.667 1.16602 -101 2.49902s-60.333 2.83301 -84 4.5s-37.5 3.83398 -41.5 6.50098c-10 4.66699 -15 12 -15 22s1.33301 17.667 4 23
c0.666992 2 9.83398 4.33301 27.501 7s39.5 5.16699 65.5 7.5s54.333 4.66602 85 6.99902s60 4.16602 88 5.49902s52.5 2.16602 73.5 2.49902s34.833 0.166016 41.5 -0.500977c11.333 -2 20.166 -8.33301 26.499 -19s9.5 -21.667 9.5 -33v-1v-4z" />
    <glyph glyph-name="sfthyphen" unicode="&#xad;" horiz-adv-x="346" 
d="M322 273c-3.33301 -1.33301 -12.6689 -2.33008 -28.002 -2.99707s-33.666 -1 -54.999 -1s-44.166 0.5 -68.499 1.5s-47 2 -68 3s-39 2.33301 -54 4s-23.833 3.5 -26.5 5.5c-8 5.33301 -11.833 12.833 -11.5 22.5s1.16602 17.167 2.49902 22.5
c0.666992 2 7.83398 4.5 21.501 7.5s30.667 5.66699 51 8s42.333 4.66602 66 6.99902s46.334 4.16602 68.001 5.49902s40.667 2.16602 57 2.49902s26.833 -0.166992 31.5 -1.5c7.33301 -1.33301 13.166 -6 17.499 -14s7.33301 -16.833 9 -26.5s1.5 -18.667 -0.5 -27
s-6 -13.833 -12 -16.5z" />
    <glyph glyph-name="registered" unicode="&#xae;" horiz-adv-x="423" 
d="M328 247c-17.333 -14 -39.0049 -23.1699 -65.0049 -27.5029s-52.667 -4.16602 -80 0.500977s-53.5 13.334 -78.5 26.001s-44.833 29 -59.5 49c-3.33301 4.66699 -6.66602 15 -9.99902 31s-6.16602 35.333 -8.49902 58s-4 47.167 -5 73.5s-0.666992 52.333 1 78
s4.83398 49.667 9.50098 72s11.667 40.5 21 54.5s22.5 26 39.5 36s35.667 18.167 56 24.5s41.833 10.833 64.5 13.5s44.167 3.5 64.5 2.5s39 -3.66699 56 -8s30.167 -10.5 39.5 -18.5s15.833 -24.167 19.5 -48.5s5.33398 -52.5 5.00098 -84.5s-2.5 -66 -6.5 -102
s-9.16699 -69.833 -15.5 -101.5s-13.666 -59.167 -21.999 -82.5s-16.833 -38.666 -25.5 -45.999zM329.995 458.997c0 19.333 0.5 40.6729 1.5 64.0059s1 45.166 0 65.499s-3.33301 38.166 -7 53.499s-10.167 24.666 -19.5 27.999c-6 2 -15.5 3.83301 -28.5 5.5
s-27.333 2.66699 -43 3s-31.834 -0.333984 -48.501 -2.00098s-32.167 -4.83398 -46.5 -9.50098s-26.5 -11.167 -36.5 -19.5s-16 -18.833 -18 -31.5c-2 -13.333 -2.83301 -29.833 -2.5 -49.5s1.5 -41 3.5 -64s4.83301 -46.167 8.5 -69.5s7.66699 -45 12 -65
s8.83301 -37.333 13.5 -52s9.33398 -24.334 14.001 -29.001c6 -5.33301 14 -10.666 24 -15.999c8.66699 -4.66699 20 -9.16699 34 -13.5s31.667 -7.16602 53 -8.49902l13.5 5c9 3.33301 18.833 11.666 29.5 24.999s20.5 34.166 29.5 62.499s13.5 67.5 13.5 117.5z
M297.995 581.004c1.33301 -2 2.66602 -7.16699 3.99902 -15.5s2.33301 -17.166 3 -26.499s0.833984 -18.166 0.500977 -26.499s-1.5 -13.833 -3.5 -16.5c-1.33301 -2 -4.33301 -5.33301 -9 -10s-10.167 -9.66699 -16.5 -15s-13 -10.666 -20 -15.999l-18.5 -14l14 -29
l18 -37.5c6 -12.333 11.167 -23.5 15.5 -33.5s6.5 -15.667 6.5 -17c0 -3.33301 -2.5 -7.83301 -7.5 -13.5s-9.83301 -7.83398 -14.5 -6.50098c-2 0.666992 -6.16699 5.5 -12.5 14.5s-13.666 20 -21.999 33l-25.5 40l-22 34.5c-1.33301 -30.667 -2.5 -54.167 -3.5 -70.5
s-1.83301 -28.166 -2.5 -35.499c-0.666992 -8.66699 -1.33398 -13.667 -2.00098 -15c-1.33301 0 -3.5 1.33301 -6.5 4s-6.16699 5.66699 -9.5 9s-6.33301 6.66602 -9 9.99902s-4.33398 6 -5.00098 8c-0.666992 3.33301 -1.33398 14 -2.00098 32l-3 71.5
c-1.33301 32.333 -2.33301 77.5 -3 135.5c-11.333 1.33301 -18 1.66602 -20 0.999023s-3.66699 0.333008 -5 3c-1.33301 2 -2.16602 5.83301 -2.49902 11.5s-0.166016 11.167 0.500977 16.5c0 5.33301 0.833008 11 2.5 17s3.83398 9.66699 6.50098 11
c1.33301 0.666992 5.5 0.666992 12.5 0s14.833 -1.83398 23.5 -3.50098l25 -5l17 -3.5c2.66699 -0.666992 8.5 -2.5 17.5 -5.5s18.667 -6.5 29 -10.5s20.166 -8.33301 29.499 -13s16 -9 20 -13zM190.995 458.004c4 2 10.167 6.83203 18.5 14.499s16.5 15.834 24.5 24.501
s15.167 16.834 21.5 24.501s9.5 12.5 9.5 14.5c0 3.33301 -6.5 8.16602 -19.5 14.499s-28.167 11.833 -45.5 16.5z" />
    <glyph glyph-name="macron" unicode="&#xaf;" 
d="M314 648c-2.66699 -1.33301 -10 -2.33105 -22 -2.99805s-26.333 -1 -43 -1s-34.5 0.333008 -53.5 1s-36.833 1.66699 -53.5 3s-30.834 2.66602 -42.501 3.99902s-18.5 3 -20.5 5c-6 6 -8.83301 14.667 -8.5 26s1.16602 19.666 2.49902 24.999
c0.666992 2 6.33398 4.5 17.001 7.5s23.834 5.83301 39.501 8.5s32.834 5.33398 51.501 8.00098s36.5 4.66699 53.5 6s31.667 2.16602 44 2.49902s20.5 -0.166992 24.5 -1.5c6 -2 10.833 -7.33301 14.5 -16s6 -18.167 7 -28.5s0.666992 -20 -1 -29
s-4.83398 -14.833 -9.50098 -17.5z" />
    <glyph glyph-name="degree" unicode="&#xb0;" horiz-adv-x="249" 
d="M20 739c4 2.66699 13.165 6.16895 27.498 10.502s30.5 8 48.5 11s36.167 4.66699 54.5 5s33.5 -2.5 45.5 -8.5c5.33301 -2.66699 10.5 -8.5 15.5 -17.5s9.33301 -19.667 13 -32s6.83398 -25.5 9.50098 -39.5s4.16699 -27.167 4.5 -39.5s-0.666992 -23.166 -3 -32.499
s-6.16602 -15.333 -11.499 -18c-8 -4.66699 -20.833 -7.83398 -38.5 -9.50098s-36.167 -1.83398 -55.5 -0.500977s-37.833 4.16602 -55.5 8.49902s-30.5 10.5 -38.5 18.5s-14 19.5 -18 34.5s-6.5 30.167 -7.5 45.5s-0.5 29.333 1.5 42s4.66699 20 8 22zM160.998 620.002
c3.33301 0.666992 5.66895 2.83398 7.00195 6.50098s2.16602 8 2.49902 13s0.333008 10.333 0 16s-0.5 11.167 -0.5 16.5c0 12 -1.83301 21.5 -5.5 28.5s-7.5 12.167 -11.5 15.5c-4.66699 4 -10 6.33301 -16 7c-8 -0.666992 -14.5 -1.33398 -19.5 -2.00098
s-9.16699 -1.66699 -12.5 -3s-6.33301 -2.66602 -9 -3.99902c-2.66699 -2 -5.33398 -6.5 -8.00098 -13.5s-5 -14.667 -7 -23s-3.33301 -16.833 -4 -25.5s-0.333984 -15.334 0.999023 -20.001c0.666992 -5.33301 4.83398 -9 12.501 -11s16 -3.33301 25 -4
s17.833 -0.666992 26.5 0s15 1.66699 19 3z" />
    <glyph glyph-name="plusminus" unicode="&#xb1;" horiz-adv-x="346" 
d="M308 353c7.33301 -2 13.166 -7 17.499 -15s7.33301 -16.667 9 -26s1.5 -18.333 -0.5 -27s-6 -14.334 -12 -17.001c-4.66699 -1.33301 -17 -2.33301 -37 -3s-43 -0.666992 -69 0c-2 -29.333 -4 -51.5 -6 -66.5s-4.33301 -24.167 -7 -27.5c-6 -8.66699 -14.333 -14 -25 -16
s-18.667 -2.33301 -24 -1c-4 0.666992 -7.83301 11 -11.5 31s-7.16699 47.333 -10.5 82c-27.333 0.666992 -51.666 2 -72.999 4s-33.666 4.66699 -36.999 8c-4 2 -6.83301 5 -8.5 9s-2.66699 8.16699 -3 12.5s-0.166016 8.66602 0.500977 12.999
s1.33398 7.83301 2.00098 10.5c1.33301 3.33301 13.166 6.5 35.499 9.5s48.5 6.16699 78.5 9.5c-1.33301 25.333 -2 44.333 -2 57s0.666992 21.667 2 27c2 8 7.33301 15 16 21s18.167 10.667 28.5 14s20 4.83301 29 4.5s14.833 -3.16602 17.5 -8.49902
c2.66699 -7.33301 3 -43 1 -107c21.333 1.33301 40.166 2.33301 56.499 3s27.166 0.333984 32.499 -0.999023zM322 28c-3.33301 -1.33301 -12.6689 -2.33105 -28.002 -2.99805s-33.666 -1 -54.999 -1s-44.166 0.333008 -68.499 1s-47 1.66699 -68 3s-39 2.66602 -54 3.99902
s-23.833 3 -26.5 5c-8 5.33301 -11.833 13 -11.5 23s1.16602 17.333 2.49902 22c0.666992 2 7.83398 4.5 21.501 7.5s30.667 5.66699 51 8s42.333 4.66602 66 6.99902s46.334 4.33301 68.001 6s40.667 2.66699 57 3s26.833 -0.166992 31.5 -1.5
c7.33301 -2 13.166 -7 17.499 -15s7.33301 -16.833 9 -26.5s1.5 -18.667 -0.5 -27s-6 -13.5 -12 -15.5z" />
    <glyph glyph-name="twosuperior" unicode="&#xb2;" horiz-adv-x="255" 
d="M117 369c40 4 67.3301 6.83203 81.9971 8.49902s22.667 1.83398 24 0.500977s1.33301 -4.83301 0 -10.5s-3.5 -11.834 -6.5 -18.501s-6.33301 -13.167 -10 -19.5s-6.5 -10.833 -8.5 -13.5c-1.33301 -0.666992 -7.5 -1.33398 -18.5 -2.00098
s-23.333 -1.33398 -37 -2.00098s-26.667 -1 -39 -1s-19.833 0.333008 -22.5 1c-5.33301 0.666992 -10.166 5.5 -14.499 14.5s-7.16602 16.833 -8.49902 23.5c0 2 2.33301 10.333 7 25l16 49.5l17.5 53c5.66699 17 9.5 28.167 11.5 33.5l17.5 51.5
c5.66699 17 10.5 32.667 14.5 47s7 26.333 9 36s2.33301 15.834 1 18.501c-2 2.66699 -8.33301 1.33398 -19 -3.99902s-22 -11.666 -34 -18.999l-34 -21c-10.667 -6.66699 -17 -10 -19 -10s-3.33301 2.5 -4 7.5s-1 11 -1 18s0.333008 13.833 1 20.5s1.66699 11.667 3 15
c1.33301 2.66699 7.16602 8.33398 17.499 17.001s22.333 17.334 36 26.001s27.334 16.167 41.001 22.5s24.5 8.83301 32.5 7.5c3.33301 -0.666992 8.33301 -3.5 15 -8.5s13.334 -10.5 20.001 -16.5s12.5 -12 17.5 -18s7.83301 -10 8.5 -12
c1.33301 -2.66699 -0.666992 -12.334 -6 -29.001s-12.333 -36.667 -21 -60l-28 -75l-28.5 -74l-23 -57.5c-6.33301 -15.667 -9.5 -23.834 -9.5 -24.501z" />
    <glyph glyph-name="threesuperior" unicode="&#xb3;" horiz-adv-x="262" 
d="M152 465c-8 12.667 -17.998 20.334 -29.998 23.001s-21.667 3.33398 -29 2.00098c-4 -0.666992 -7.33301 1 -10 5s-4.83398 9 -6.50098 15s-2.33398 11.833 -2.00098 17.5s1.83301 9.5 4.5 11.5c4.66699 3.33301 11.167 7.5 19.5 12.5s16.666 10.5 24.999 16.5
s15.666 12.667 21.999 20s9.5 15 9.5 23c0 23.333 -3 42.166 -9 56.499s-10 22.5 -12 24.5c-2.66699 1.33301 -8.16699 1.16602 -16.5 -0.500977s-13.166 -3.16699 -14.499 -4.5c-0.666992 -0.666992 -1.5 -5.33398 -2.5 -14.001s-2.16699 -18.167 -3.5 -28.5
s-2.83301 -20 -4.5 -29s-3.5 -13.833 -5.5 -14.5c-4.66699 -2 -9.66699 -0.166992 -15 5.5s-10.333 12.834 -15 21.501c-2 4 -4.16699 9.33301 -6.5 16s-4.16602 13.5 -5.49902 20.5s-2.5 13.667 -3.5 20s-1.16699 11.166 -0.5 14.499s5.66699 7.66602 15 12.999
s21.166 10.333 35.499 15s30.166 8.5 47.499 11.5s34 4.16699 50 3.5c6 0 11 -2.83301 15 -8.5s7.16699 -13 9.5 -22s4.16602 -19.167 5.49902 -30.5s2 -23 2 -35c-0.666992 -13.333 -3.66699 -26.666 -9 -39.999c-4.66699 -11.333 -12.167 -24.166 -22.5 -38.499
s-24.833 -28.166 -43.5 -41.499c20.667 -2.66699 36.334 -7.83398 47.001 -15.501s18.667 -15.834 24 -24.501c6 -10 9 -21 9 -33c-0.666992 -12 -2.5 -24.5 -5.5 -37.5s-6.5 -25 -10.5 -36s-7.83301 -20.5 -11.5 -28.5s-6.5 -13 -8.5 -15
c-1.33301 -2 -5.83301 -4.83301 -13.5 -8.5s-16.167 -7.5 -25.5 -11.5s-18.5 -7.5 -27.5 -10.5s-15.833 -4.5 -20.5 -4.5s-9.66699 2.83301 -15 8.5s-10.166 12.667 -14.499 21s-8.16602 17 -11.499 26s-5.33301 17.167 -6 24.5c-1.33301 14.667 -1.5 27.334 -0.5 38.001
s4.16699 16 9.5 16s11.666 -3.83301 18.999 -11.5s13.333 -15.167 18 -22.5c1.33301 -2 3.33301 -5.83301 6 -11.5l8.5 -17.5c3 -6 6.16699 -11.333 9.5 -16s6.33301 -7 9 -7s5.16699 2.33301 7.5 7s4.5 10.5 6.5 17.5s3.5 14.833 4.5 23.5s1.83301 17.334 2.5 26.001
c1.33301 12 1.83301 20.667 1.5 26s-2.16602 10.666 -5.49902 15.999z" />
    <glyph glyph-name="acute" unicode="&#xb4;" 
d="M264 719c-8 -10 -17.5 -20.665 -28.5 -31.998l-32.5 -32.5c-10.667 -10.333 -20.5 -19.333 -29.5 -27s-15.833 -12.5 -20.5 -14.5c-7.33301 -3.33301 -15.666 -2.33301 -24.999 3s-14.333 12.666 -15 21.999c0 2.66699 2.66699 9.16699 8 19.5s11.666 21.5 18.999 33.5
l22 35c7.33301 11.333 13 19.333 17 24c4.66699 5.33301 7.66699 9 9 11s3.66602 3.66699 6.99902 5c6 4 14 6.16699 24 6.5s20 -0.666992 30 -3s18.333 -5.83301 25 -10.5s9.33398 -9.33398 8.00098 -14.001c-0.666992 -2.66699 -3 -6.66699 -7 -12s-7.66699 -10 -11 -14z
" />
    <glyph glyph-name="mu" unicode="&#xb5;" horiz-adv-x="191" 
d="M306 705c2 -3.33301 2.83887 -9.66504 2.50586 -18.998s-1.33301 -19.5 -3 -30.5s-3.66699 -21.5 -6 -31.5s-4.83301 -16.667 -7.5 -20c-2 -2.66699 -15.833 -3.66699 -41.5 -3s-60.834 2.66699 -105.501 6l-2.5 -84c-1 -34 -2.33301 -69.833 -4 -107.5l-5 -114
c-1.66699 -38.333 -3.33398 -72.833 -5.00098 -103.5s-3.33398 -56 -5.00098 -76s-3.16699 -30.333 -4.5 -31c-2.66699 -2 -6.83398 -1.33301 -12.501 2s-11.5 7.5 -17.5 12.5s-11.667 10.667 -17 17s-8.66602 11.5 -9.99902 15.5
c-0.666992 2.66699 -1.66699 13.334 -3 32.001s-2.83301 42.334 -4.5 71.001s-3.66699 60.5 -6 95.5s-4.5 69.833 -6.5 104.5l-5.5 98c-1.66699 30.667 -3.16699 56.334 -4.5 77.001c-52 5.33301 -91 10.166 -117 14.499s-40.333 7.16602 -43 8.49902
c-2.66699 2 -5.16699 5.66699 -7.5 11s-4.16602 10.833 -5.49902 16.5s-2 11 -2 16s1 8.5 3 10.5c1.33301 1.33301 13.166 2.66602 35.499 3.99902s49.666 2.66602 81.999 3.99902s67.5 2.66602 105.5 3.99902s73.167 2.33301 105.5 3s59.666 0.666992 81.999 0
s34.166 -1.66699 35.499 -3z" />
    <glyph glyph-name="paragraph" unicode="&#xb6;" horiz-adv-x="517" 
d="M492 660c1.33301 -18 0.665039 -51.3359 -2.00195 -100.003c-1.33301 -20.667 -3.16602 -45.667 -5.49902 -75l-8.5 -104c-3.33301 -40 -7.66602 -85.833 -12.999 -137.5l-19 -175.5c-1.33301 -6 -4.5 -13.167 -9.5 -21.5s-10.667 -16.166 -17 -23.499
s-13 -13.5 -20 -18.5s-12.833 -6.83301 -17.5 -5.5c-2.66699 0.666992 -4.66699 11.5 -6 32.5s-2.5 48.667 -3.5 83s-1.5 73.5 -1.5 117.5s0.333008 89.167 1 135.5s1.5 92 2.5 137s2.5 85.833 4.5 122.5c-6 0 -10.667 0.166992 -14 0.5s-9.66602 -0.166992 -18.999 -1.5
c-3.33301 -68.667 -6.16602 -129.167 -8.49902 -181.5l-6 -137.5c-1.66699 -39.333 -3.33398 -72.833 -5.00098 -100.5s-2.83398 -50.5 -3.50098 -68.5c-2.66699 -42.667 -4.66699 -68.334 -6 -77.001c-1.33301 -4 -5.16602 -9.83301 -11.499 -17.5s-13.333 -15.5 -21 -23.5
s-14.667 -14.833 -21 -20.5s-10.5 -8.5 -12.5 -8.5c-1.33301 2.66699 -2.66602 14.667 -3.99902 36c-0.666992 8.66699 -1.33398 20 -2.00098 34s-1.16699 31.333 -1.5 52s-0.833008 44.834 -1.5 72.501s-1.33398 59.834 -2.00098 96.501c-8 3.33301 -17.5 8 -28.5 14
l-31.5 17l-36 21c-16 8.66699 -31.167 18.334 -45.5 29.001s-27 21.167 -38 31.5s-20.167 19.833 -27.5 28.5s-12.333 15 -15 19c-3.33301 6 -5.16602 18.833 -5.49902 38.5s0.333984 40.334 2.00098 62.001s4 41.834 7 60.501s6.5 30 10.5 34c8 10 21.167 20.167 39.5 30.5
s37.666 20 57.999 29s39.333 16.667 57 23s29.834 10.166 36.501 11.499c5.33301 1.33301 16 3.83301 32 7.5l51.5 11.5c18.333 4 35.666 7.33301 51.999 10s28.166 3.66699 35.499 3c4 1.33301 11 -0.833984 21 -6.50098s20.5 -13.5 31.5 -23.5s21.167 -21.333 30.5 -34
s15 -25.667 17 -39zM96.999 533.997c0 -4 5.49902 -14.667 16.499 -32s24 -36 39 -56s30.167 -38.833 45.5 -56.5s27.333 -29.167 36 -34.5l-11 250c-19.333 -4.66699 -36.666 -10.167 -51.999 -16.5s-28.5 -12.833 -39.5 -19.5s-19.5 -13.167 -25.5 -19.5
s-9 -11.5 -9 -15.5z" />
    <glyph glyph-name="periodcentered" unicode="&#xb7;" horiz-adv-x="164" 
d="M130 383c2 -4.66699 2.99902 -11.167 2.99902 -19.5s-0.833008 -17 -2.5 -26s-4 -17.833 -7 -26.5s-6.16699 -15.334 -9.5 -20.001c-6 -9.33301 -14.833 -14.833 -26.5 -16.5s-20.5 -2.16699 -26.5 -1.5c-4 0.666992 -8.16699 3.66699 -12.5 9s-8 11.833 -11 19.5
s-5 16 -6 25s-0.5 17.167 1.5 24.5c2 8 7.66699 15.167 17 21.5s19.5 11.333 30.5 15s21.333 5.33398 31 5.00098s15.834 -3.5 18.501 -9.5z" />
    <glyph glyph-name="cedilla" unicode="&#xb8;" 
d="M305 -88c4.66699 -9.33301 7.50586 -22 8.50586 -38s0.5 -32.167 -1.5 -48.5s-5.66699 -31.166 -11 -44.499s-11.333 -22 -18 -26c-7.33301 -3.33301 -20 -3.66602 -38 -0.999023s-36.667 6.83398 -56 12.501s-37 11.834 -53 18.501s-26 12 -30 16
c-4 4.66699 -7.83301 11.334 -11.5 20.001s-6.66699 17.334 -9 26.001s-3.83301 16.5 -4.5 23.5s0.333008 11.167 3 12.5s11.167 -1.16699 25.5 -7.5l47 -21.5c17 -8 33.167 -15 48.5 -21s25 -8 29 -6c5.33301 2 8.33301 8.5 9 19.5s-0.666016 19.5 -3.99902 25.5
c-1.33301 2 -5 4.5 -11 7.5s-13.333 6.16699 -22 9.5s-17.834 6.66602 -27.501 9.99902l-28.5 10c-2.66699 0.666992 -5.33398 2.83398 -8.00098 6.50098s-5 8 -7 13s-3.5 10 -4.5 15s-0.833008 9.5 0.5 13.5s5.16602 10.667 11.499 20s13.166 18.666 20.499 27.999
s14.166 17.666 20.499 24.999s10.166 11.666 11.499 12.999c4 3.33301 8.5 5 13.5 5s9.66699 -1 14 -3s8.16602 -4.83301 11.499 -8.5s5 -7.83398 5 -12.501c0 -2.66699 0.333008 -4.83398 1 -6.50098s0.5 -4.33398 -0.5 -8.00098s-3.16699 -8.5 -6.5 -14.5
s-8.66602 -14.667 -15.999 -26c20.667 -9.33301 39.167 -18.833 55.5 -28.5s27.166 -19.167 32.499 -28.5z" />
    <glyph glyph-name="onesuperior" unicode="&#xb9;" horiz-adv-x="189" 
d="M144 745c2 -1.33301 3.33203 -13.0039 3.99902 -35.0039s0.666992 -48.833 0 -80.5s-1.83398 -66 -3.50098 -103s-3.5 -71.167 -5.5 -102.5s-4.16699 -57.666 -6.5 -78.999s-4.5 -32 -6.5 -32c-3.33301 -0.666992 -6.66602 0.333008 -9.99902 3s-6.5 6.33398 -9.5 11.001
s-5.66699 9.5 -8 14.5s-3.83301 9.16699 -4.5 12.5c-4.66699 89.333 -7.66699 158.333 -9 207c-0.666992 27.333 -1 51 -1 71l-14 -16c-4 -4.66699 -7 -7 -9 -7c-2.66699 0 -6 2 -10 6s-8 9 -12 15s-7.33301 11.833 -10 17.5s-3.66699 9.83398 -3 12.501
c0.666992 2 3 5.16699 7 9.5s9 9.33301 15 15s12.333 11.167 19 16.5l18 14c4.66699 3.33301 10.167 7 16.5 11l18 11c5.66699 3.33301 10.834 5.83301 15.501 7.5s7.66699 1.83398 9 0.500977z" />
    <glyph glyph-name="ordmasculine" unicode="&#xba;" horiz-adv-x="280" 
d="M213 612c6.66699 -5.33301 12.667 -18.1689 18 -38.502s9.83301 -43.333 13.5 -69s6.5 -51 8.5 -76s3.33301 -44.5 4 -58.5c0.666992 -11.333 1.16699 -23.166 1.5 -35.499s0.5 -24 0.5 -35s-0.333008 -20.833 -1 -29.5s-2 -15 -4 -19
c-4 -9.33301 -10.5 -15.833 -19.5 -19.5s-19.167 -6.16699 -30.5 -7.5c-6 0 -15 0.166992 -27 0.5s-24.5 1 -37.5 2l-37.5 3c-12 1 -21.333 2.16699 -28 3.5c-13.333 3.33301 -23 7.5 -29 12.5s-11.667 12.167 -17 21.5c-2 3.33301 -3.66699 12.666 -5 27.999
s-2.16602 33.833 -2.49902 55.5s-0.333008 45 0 70s1.33301 48.667 3 71s3.66699 42 6 59s5.5 28.167 9.5 33.5c6 8.66699 16.833 16.834 32.5 24.501s29.5 13.834 41.5 18.501c6 2 13.167 3.33301 21.5 4s17.166 0.5 26.499 -0.5s18.5 -3 27.5 -6
s17.167 -7.16699 24.5 -12.5zM166 308.997c1.33301 2.66699 2.83203 10.8379 4.49902 24.5049s3 29.667 4 48s1.66699 38.166 2 59.499s0.5 41.166 0.5 59.499s-0.666992 33.666 -2 45.999s-3 19.5 -5 21.5c-3.33301 2.66699 -7.66602 3.83398 -12.999 3.50098
s-10.666 -1.33301 -15.999 -3s-10.166 -3.66699 -14.499 -6s-7.5 -4.16602 -9.5 -5.49902c-9.33301 -6.66699 -14.333 -18.667 -15 -36c0 -2.66699 -0.333008 -9.33398 -1 -20.001s-1.16699 -23.334 -1.5 -38.001s-0.5 -30.334 -0.5 -47.001s0.166992 -32.334 0.5 -47.001
s1.16602 -27.5 2.49902 -38.5s3.33301 -17.833 6 -20.5c3.33301 -4 7.66602 -7.16699 12.999 -9.5s11 -3.5 17 -3.5s11.5 1 16.5 3s8.83301 5 11.5 9z" />
    <glyph glyph-name="guillemotright" unicode="&#xbb;" horiz-adv-x="318" 
d="M159 346c2 0.666992 6.83301 -1.33008 14.5 -5.99707s16.834 -11 27.501 -19l34.5 -27c12.333 -10 23.833 -20 34.5 -30l28 -27c8 -8 13 -14 15 -18c1.33301 -2 2.5 -7.33301 3.5 -16s1.5 -18.5 1.5 -29.5s-0.333008 -21.5 -1 -31.5s-2.33398 -17.333 -5.00098 -22
c-2 -4 -6.66699 -10 -14 -18s-16 -17 -26 -27l-31.5 -30l-31 -27.5c-9.66699 -8.33301 -18.167 -15 -25.5 -20s-12 -7.16699 -14 -6.5c-4 2 -7 8.66699 -9 20s-1.66699 21.666 1 30.999c0.666992 2.66699 4.83398 8.66699 12.501 18s17 20 28 32l35 38.5l33.5 38.5l-36.5 37
l-38.5 38c-12 12 -22.167 22.667 -30.5 32s-12.833 15.666 -13.5 18.999c-3.33301 9.33301 -3.83301 19.666 -1.5 30.999s5.16602 18 8.49902 20zM19 346.003c3.33301 1.33301 12.667 -3.32812 28 -13.9951s32 -23.334 50 -38.001s34.667 -29.334 50 -44.001
s24.666 -25 27.999 -31c0.666992 -2 1.5 -7.33301 2.5 -16s1.5 -18.5 1.5 -29.5s-0.333008 -21.5 -1 -31.5s-2.33398 -17.333 -5.00098 -22c-2 -4 -6.66699 -10 -14 -18l-25.5 -27c-9.66699 -10 -20.167 -20 -31.5 -30l-31.5 -27.5c-9.66699 -8.33301 -18 -15 -25 -20
s-11.5 -7.16699 -13.5 -6.5c-4 2 -7.16699 8.66699 -9.5 20s-2.16602 21.666 0.500977 30.999c0.666992 2.66699 4.83398 8.66699 12.501 18s17 20 28 32l35 38.5l33.5 38.5l-36 37l-38 38l-31.5 32c-9 9.33301 -13.833 15.666 -14.5 18.999
c-2.66699 9.33301 -3 19.666 -1 30.999s4.66699 18 8 20z" />
    <glyph glyph-name="onequarter" unicode="&#xbc;" horiz-adv-x="471" 
d="M455 175c0.666992 -1.33301 0.671875 -5.1709 0.00488281 -11.5039s-1.83398 -13.166 -3.50098 -20.499s-3.5 -14.166 -5.5 -20.499s-3.33301 -10.166 -4 -11.499h-22c-4 0 -8 0.333008 -12 1c-3.33301 -34 -6.5 -62.333 -9.5 -85s-5.5 -34.334 -7.5 -35.001
c-2.66699 -0.666992 -5.83398 0.5 -9.50098 3.5s-7 6.66699 -10 11s-5.83301 9 -8.5 14s-4.33398 9.5 -5.00098 13.5v80c-5.33301 0.666992 -10.666 1 -15.999 1s-10.666 0.333008 -15.999 1c-15.333 0.666992 -27.5 1.33398 -36.5 2.00098s-16.167 1.66699 -21.5 3
c-6.66699 1.33301 -11.334 2.33301 -14.001 3s-5.16699 2.83398 -7.5 6.50098s-4.33301 8 -6 13s-2.83398 9.83301 -3.50098 14.5s-0.333984 8.33398 0.999023 11.001l52 125.5c13.333 31 24 54.833 32 71.5c9.33301 19.333 16.666 32.666 21.999 39.999
c4 4.66699 10 8.5 18 11.5s16 5.16699 24 6.5s15.333 1.83301 22 1.5s10.667 -1.16602 12 -2.49902c2 -2.66699 2.83301 -6.83398 2.5 -12.501s-0.5 -13.167 -0.5 -22.5c0 -11.333 -0.166992 -25 -0.5 -41s-1 -33.333 -2 -52l-3 -58.5c-1 -20.333 -2.16699 -40.5 -3.5 -60.5
c11.333 0.666992 21 1 29 1s12.333 -0.666992 13 -2zM288.005 169.995c10 0.666992 21.167 1.33203 33.5 1.99902l36.5 2c0 24.667 0.166992 49.334 0.5 74.001s0.833008 46.667 1.5 66l-38 -76.5zM65.0049 -15.0068c-4.66699 0 -7.66504 5.33398 -8.99805 16.001
s-1 20.667 1 30l81.5 201.5l65 157l50 118l37.5 84.5c24 54 41.667 90.667 53 110c6 8.66699 12.833 16 20.5 22s15.167 10.667 22.5 14s13.666 5.33301 18.999 6s8.66602 0 9.99902 -2c2 -2.66699 -1.33301 -15.334 -10 -38.001s-20.5 -52 -35.5 -88l-53 -122l-63 -138
l-64.5 -136.5l-58.5 -119c-17.667 -35 -32.5 -63 -44.5 -84s-19.333 -31.5 -22 -31.5zM144.007 740.994c2 -1.33301 3.33203 -13.0029 3.99902 -35.0029s0.666992 -48.833 0 -80.5s-1.83398 -66 -3.50098 -103s-3.5 -71.167 -5.5 -102.5s-4.16699 -57.666 -6.5 -78.999
s-4.5 -32 -6.5 -32c-3.33301 -0.666992 -6.66602 0.5 -9.99902 3.5s-6.5 6.66699 -9.5 11s-5.66699 9 -8 14s-3.83301 9.16699 -4.5 12.5c-4.66699 90 -7.66699 158.667 -9 206c-0.666992 27.333 -1 51.333 -1 72c-5.33301 -6.66699 -10 -12.167 -14 -16.5s-7 -6.5 -9 -6.5
c-2.66699 0 -6 2 -10 6s-8 9 -12 15s-7.33301 11.833 -10 17.5s-3.66699 9.83398 -3 12.501c0.666992 2 3 5.16699 7 9.5s9 9.33301 15 15s12.333 11.167 19 16.5l18 14c4.66699 3.33301 10.167 7 16.5 11l18 11c5.66699 3.33301 10.834 5.83301 15.501 7.5
s7.66699 1.83398 9 0.500977z" />
    <glyph glyph-name="onehalf" unicode="&#xbd;" horiz-adv-x="512" 
d="M65 -15c-4.66699 0 -7.66504 5.33398 -8.99805 16.001s-1 20.667 1 30l81.5 201.5l65 157l50 118l37.5 84.5c24 54 41.667 90.667 53 110c6 8.66699 12.833 16 20.5 22s15.167 10.667 22.5 14s13.666 5.33301 18.999 6s8.66602 0 9.99902 -2
c2 -2.66699 -1.33301 -15.334 -10 -38.001s-20.5 -52 -35.5 -88l-53 -122l-63 -138l-64.5 -136.5l-58.5 -119c-17.667 -35 -32.5 -63 -44.5 -84s-19.333 -31.5 -22 -31.5zM144.002 741.001c2 -1.33301 3.33203 -13.0029 3.99902 -35.0029s0.666992 -48.833 0 -80.5
s-1.83398 -66 -3.50098 -103s-3.5 -71.167 -5.5 -102.5s-4.16699 -57.666 -6.5 -78.999s-4.5 -32 -6.5 -32c-3.33301 -0.666992 -6.66602 0.5 -9.99902 3.5s-6.5 6.66699 -9.5 11s-5.66699 9 -8 14s-3.83301 9.16699 -4.5 12.5c-4.66699 90 -7.66699 158.667 -9 206
c-0.666992 27.333 -1 51.333 -1 72c-5.33301 -6.66699 -10 -12.167 -14 -16.5s-7 -6.5 -9 -6.5c-2.66699 0 -6 2 -10 6s-8 9 -12 15s-7.33301 11.833 -10 17.5s-3.66699 9.83398 -3 12.501c0.666992 2 3 5.16699 7 9.5s9 9.33301 15 15s12.333 11.167 19 16.5l18 14
c4.66699 3.33301 10.167 7 16.5 11l18 11c5.66699 3.33301 10.834 5.83301 15.501 7.5s7.66699 1.83398 9 0.500977zM369.001 54.998c39.333 3.33301 66.4941 6.16699 81.4941 8.5s23.167 2.83301 24.5 1.5c1.33301 -2 1.33301 -5.83301 0 -11.5s-3.5 -11.834 -6.5 -18.501
s-6.33301 -13 -10 -19s-6.5 -10.333 -8.5 -13c-1.33301 -1.33301 -7.66602 -2.33301 -18.999 -3s-23.833 -1.16699 -37.5 -1.5s-26.5 -0.5 -38.5 -0.5h-22c-5.33301 1.33301 -10.166 6.5 -14.499 15.5s-7.16602 16.833 -8.49902 23.5c0 2 2.16699 10.333 6.5 25
s9.5 31.167 15.5 49.5l17.5 53c5.66699 17 9.5 28.167 11.5 33.5l18 51c6 17.333 11 33 15 47s7 25.833 9 35.5s2 15.834 0 18.501s-8.16699 1.33398 -18.5 -3.99902s-21.5 -11.666 -33.5 -18.999l-34 -21c-10.667 -6.66699 -17 -10 -19 -10s-3.33301 2.5 -4 7.5
s-1 11 -1 18s0.333008 13.833 1 20.5s1.66699 11.667 3 15c1.33301 2.66699 7.16602 8.33398 17.499 17.001s22.333 17.334 36 26.001s27.334 16.167 41.001 22.5s24.5 8.83301 32.5 7.5c3.33301 -0.666992 8.33301 -3.33398 15 -8.00098s13.334 -10.167 20.001 -16.5
s12.5 -12.333 17.5 -18s7.83301 -9.83398 8.5 -12.501s-1.66602 -12.334 -6.99902 -29.001s-12.166 -36.667 -20.499 -60l-28 -75l-28.5 -74l-22.5 -57.5c-6.33301 -15.667 -9.5 -23.834 -9.5 -24.501z" />
    <glyph glyph-name="threequarters" unicode="&#xbe;" horiz-adv-x="512" 
d="M142 465c-7.33301 12.667 -16.8379 20.6631 -28.5049 23.9961s-21.167 4.33301 -28.5 3c-4 -0.666992 -7.33301 1.16602 -10 5.49902s-4.66699 9.33301 -6 15s-1.83301 11.334 -1.5 17.001s2.16602 9.5 5.49902 11.5c4.66699 3.33301 11.334 7.33301 20.001 12
s17.334 9.83398 26.001 15.501s16.334 12 23.001 19s10 14.5 10 22.5c1.33301 23.333 -0.833984 42.166 -6.50098 56.499s-9.5 22.5 -11.5 24.5c-2.66699 2 -8.16699 2.33301 -16.5 1s-13.166 -2.66602 -14.499 -3.99902c-0.666992 -0.666992 -1.66699 -5.33398 -3 -14.001
l-4.5 -28.5c-1.66699 -10.333 -3.66699 -20 -6 -29s-4.5 -13.833 -6.5 -14.5c-4.66699 -1.33301 -9.66699 0.833984 -15 6.50098s-10 13.167 -14 22.5c-2 4.66699 -3.83301 10.334 -5.5 17.001s-3.16699 13.5 -4.5 20.5s-2.16602 13.667 -2.49902 20
s-0.166016 11.166 0.500977 14.499s5.66699 7.5 15 12.5s21.333 9.5 36 13.5s30.667 7.16699 48 9.5s34 2.83301 50 1.5c5.33301 -0.666992 10 -3.83398 14 -9.50098s7 -13.167 9 -22.5s3.5 -19.666 4.5 -30.999s1.16699 -23 0.5 -35
c-1.33301 -13.333 -5 -26.666 -11 -39.999c-5.33301 -11.333 -13.166 -23.833 -23.499 -37.5s-25.166 -26.5 -44.499 -38.5c20.667 -3.33301 36.167 -9 46.5 -17s17.833 -16.667 22.5 -26c5.33301 -10.667 7.66602 -22 6.99902 -34
c-1.33301 -12 -3.66602 -24.333 -6.99902 -37s-7.16602 -24.5 -11.499 -35.5s-8.5 -20.333 -12.5 -28s-7 -12.5 -9 -14.5s-6.83301 -4.66699 -14.5 -8s-16.167 -6.66602 -25.5 -9.99902s-18.666 -6.33301 -27.999 -9s-16.333 -4 -21 -4s-9.5 2.83301 -14.5 8.5
s-9.5 12.834 -13.5 21.501s-7.5 17.5 -10.5 26.5s-4.5 17.167 -4.5 24.5c-0.666992 14.667 -0.5 27.5 0.5 38.5s4.16699 16.167 9.5 15.5c5.33301 0 11.666 -4 18.999 -12s13 -15.667 17 -23c1.33301 -2 3.16602 -6 5.49902 -12s5 -12.167 8 -18.5
s6.16699 -11.833 9.5 -16.5s6.33301 -7 9 -7s5.16699 2.33301 7.5 7s4.5 10.5 6.5 17.5s3.66699 14.833 5 23.5s2.33301 17 3 25c1.33301 12 2.16602 20.667 2.49902 26s-1.16699 11 -4.5 17zM495.995 174.996c0.666992 -1.33301 0.668945 -5.1709 0.00195312 -11.5039
s-1.83398 -13.166 -3.50098 -20.499s-3.5 -14.166 -5.5 -20.499s-3.33301 -10.166 -4 -11.499h-22c-4 0 -8 0.333008 -12 1c-3.33301 -34 -6.5 -62.333 -9.5 -85s-5.5 -34.334 -7.5 -35.001c-2.66699 -0.666992 -5.83398 0.5 -9.50098 3.5s-7 6.66699 -10 11
s-5.66699 9 -8 14s-3.83301 9.5 -4.5 13.5c-0.666992 8.66699 -1 17.667 -1 27v26v27c-5.33301 0.666992 -10.666 1 -15.999 1s-10.666 0.333008 -15.999 1c-15.333 0.666992 -27.5 1.33398 -36.5 2.00098s-16.167 1.66699 -21.5 3
c-6.66699 1.33301 -11.334 2.33301 -14.001 3s-5.16699 2.83398 -7.5 6.50098s-4.33301 8 -6 13s-2.83398 9.83301 -3.50098 14.5s-0.333984 8.33398 0.999023 11.001c20.667 52.667 37.834 94.5 51.501 125.5s24.5 54.833 32.5 71.5
c9.33301 19.333 16.666 32.666 21.999 39.999c4 4.66699 10 8.5 18 11.5s16 5.16699 24 6.5s15.333 1.83301 22 1.5s10.667 -1.16602 12 -2.49902c2.66699 -2.66699 3.66699 -6.83398 3 -12.501s-0.666992 -13.167 0 -22.5c0 -11.333 -0.166992 -25 -0.5 -41
s-1 -33.333 -2 -52s-2.16699 -38.167 -3.5 -58.5l-4 -60.5c12 0.666992 21.833 1 29.5 1s11.834 -0.666992 12.501 -2zM328.997 169.991c10 0.666992 21.167 1.33203 33.5 1.99902l36.5 2c0 24.667 0.166992 49.334 0.5 74.001s0.833008 46.667 1.5 66l-38 -76.5z
M105.997 -15.0107c-4.66699 0 -7.66504 5.33398 -8.99805 16.001s-1 20.667 1 30l81.5 201.5l65 157l50 118l37.5 84.5c24 54 41.667 90.667 53 110c6 8.66699 12.833 16 20.5 22s15.167 10.667 22.5 14s13.666 5.33301 18.999 6s8.66602 0 9.99902 -2
c2 -2.66699 -1.33301 -15.334 -10 -38.001s-20.5 -52 -35.5 -88l-53 -122l-63 -138l-64.5 -136.5l-58.5 -119c-17.667 -35 -32.5 -63 -44.5 -84s-19.333 -31.5 -22 -31.5z" />
    <glyph glyph-name="questiondown" unicode="&#xbf;" horiz-adv-x="312" 
d="M157.01 650.006c-2 4.66699 -3.00293 11.166 -3.00293 19.499s1 16.999 3 25.999c2 8.99902 4.5 17.665 7.49902 25.998c3 8.33301 6.16699 15.166 9.5 20.499c2.66602 3.99902 6.33203 7.33203 10.999 9.99902s9.66699 4.5 15 5.5s10.333 1.5 15 1.5h10.999
c4 -0.666992 8.16699 -3.66699 12.5 -9s7.99902 -11.832 10.999 -19.498c3 -7.66699 5.16699 -16 6.5 -24.999s1 -17.498 -0.999023 -25.4971c-2 -7.33301 -7.83301 -14.166 -17.499 -20.499s-19.999 -11.166 -30.998 -14.499s-21.332 -4.83301 -30.998 -4.5
c-9.66699 0.333008 -15.833 3.49902 -18.499 9.49805zM165.006 548.012c-2.66699 7.99902 0 15.6621 8 22.9951c7.99902 7.33301 17.665 12.833 28.998 16.499c11.333 3.66699 22.666 5.16699 33.999 4.5s18.332 -5 20.998 -12.999c2 -5.33301 4.66699 -15.666 8 -30.998
c3.33301 -15.333 5.66602 -32.665 6.99902 -51.9971s1 -39.8311 -0.999023 -61.4961c-2 -21.665 -7 -41.4971 -14.999 -59.4961c-12.666 -25.999 -27.665 -50.6641 -44.998 -73.9961l-47.4971 -65.4961c-14.332 -20.332 -25.165 -39.1641 -32.498 -56.4961
s-7 -32.998 0.999023 -46.9971c2 -3.33301 7.66602 -3.66602 16.999 -0.999023s20.499 6.66699 33.498 12s27.165 11.666 42.4971 18.999l43.498 20.999l34.998 16.999c9.66602 4.66602 15.499 6.99902 17.498 6.99902c3.33301 0 5.33301 -4.5 6 -13.499
s0.5 -19.498 -0.5 -31.4971s-2.66699 -23.665 -5 -34.998s-4.83301 -19.332 -7.5 -23.998c-2 -3.33301 -7.83301 -8.66602 -17.499 -15.999s-21.499 -15.333 -35.498 -23.999s-29.498 -17.499 -46.4971 -26.498s-33.665 -16.832 -49.998 -23.499
c-16.332 -6.66602 -31.6641 -11.666 -45.9971 -14.999s-25.832 -4 -34.498 -2.00098c-5.99902 1.33301 -14.498 6.83301 -25.4971 16.499s-21.832 20.332 -32.498 31.998s-19.999 22.999 -27.998 33.998c-8 10.999 -12.333 18.832 -13 23.499
c-3.33301 18.665 0.666992 38.9971 12 60.9961s25.999 45.1641 43.998 69.4961l56.9961 74.4951c19.999 25.332 36.665 50.6641 49.9971 75.9951c9.99902 19.332 16.999 37.498 20.999 54.4971s6 32.665 6 46.998s-1.16699 26.832 -3.5 37.4971
c-2.33301 10.667 -4.5 19.333 -6.5 25.999z" />
    <glyph glyph-name="Agrave" unicode="&#xc0;" horiz-adv-x="461" 
d="M450 267c1.33301 -2 1.16797 -8.66602 -0.499023 -19.999s-4 -23.666 -7 -36.999s-6 -25.833 -9 -37.5s-5.5 -18.5 -7.5 -20.5h-10c-2 0 -4 0.333008 -6 1l8 -77c2 -19.333 3 -30 3 -32c0 -4.66699 -2.16699 -11.334 -6.5 -20.001s-9.16602 -16.667 -14.499 -24
s-10.833 -13.166 -16.5 -17.499s-9.5 -4.5 -11.5 -0.5c-3.33301 6 -10.333 24 -21 54s-22.667 71 -36 123l-41.5 4l-43.5 4c-14.667 1.33301 -29.167 3.16602 -43.5 5.49902l-41.5 6.5l-19.5 -83c-6.33301 -26 -12.333 -48.667 -18 -68s-10.5 -34.666 -14.5 -45.999
s-7 -17 -9 -17c-5.33301 0 -10.666 3.33301 -15.999 10s-10.166 14.667 -14.499 24s-7.83301 19 -10.5 29s-4 18.333 -4 25c1.33301 15.333 3.16602 31.333 5.49902 48s4.16602 32 5.49902 46l6 49h-4c-2.66699 1.33301 -6.33398 4.33301 -11.001 9l-14 14.5
c-4.66699 5 -8.66699 10 -12 15s-5 8.83301 -5 11.5c0 1.33301 4.83301 2.66602 14.5 3.99902s22.5 2.66602 38.5 3.99902l17 125c6 43.333 12 84 18 122s11.833 71.167 17.5 99.5s10.5 47.833 14.5 58.5c6.66699 18 18.334 34.167 35.001 48.5s34.167 26.333 52.5 36
s35.833 17.167 52.5 22.5s29 8 37 8c3.33301 0 7.16602 -7.5 11.499 -22.5s9 -35.167 14 -60.5s10.333 -54.833 16 -88.5s11.167 -69.167 16.5 -106.5s10.5 -75.5 15.5 -114.5l14.5 -111.5c33.333 0 51.666 -1 54.999 -3zM164.002 261.001
c21.333 1.33301 42.665 2.33301 63.998 3s42.333 1.66699 63 3l-18 87l-19 96c-7.33301 36.667 -14.666 77 -21.999 121l-24 -114.5l-22 -99.5c-7.33301 -34 -14.666 -66 -21.999 -96zM151.001 934.001c-3.33301 4 -6.83594 8.66797 -10.5029 14.001
s-5.83398 9.33301 -6.50098 12c-1.33301 4.66699 1.33398 9.33398 8.00098 14.001s14.834 8.16699 24.501 10.5s19.667 3.33301 30 3s18.5 -2.5 24.5 -6.5c2.66699 -1.33301 4.66699 -3 6 -5s4.33301 -5.66699 9 -11c4 -4.66699 9.66699 -12.667 17 -24l22 -35
c7.33301 -12 13.833 -23.167 19.5 -33.5s8.5 -16.833 8.5 -19.5c0 -4.66699 -1.5 -8.83398 -4.5 -12.501s-6.66699 -6.66699 -11 -9s-8.66602 -3.83301 -12.999 -4.5s-8.16602 -0.333984 -11.499 0.999023c-5.33301 2 -12.5 6.83301 -21.5 14.5s-18.833 16.667 -29.5 27
l-32.5 32.5c-11 11.333 -20.5 22 -28.5 32z" />
    <glyph glyph-name="Aacute" unicode="&#xc1;" horiz-adv-x="461" 
d="M450 267c1.33301 -2 1.16797 -8.66602 -0.499023 -19.999s-4 -23.666 -7 -36.999s-6 -25.833 -9 -37.5s-5.5 -18.5 -7.5 -20.5h-10c-2 0 -4 0.333008 -6 1l8 -77c2 -19.333 3 -30 3 -32c0 -4.66699 -2.16699 -11.334 -6.5 -20.001s-9.16602 -16.667 -14.499 -24
s-10.833 -13.166 -16.5 -17.499s-9.5 -4.5 -11.5 -0.5c-3.33301 6 -10.333 24 -21 54s-22.667 71 -36 123l-41.5 4l-43.5 4c-14.667 1.33301 -29.167 3.16602 -43.5 5.49902l-41.5 6.5l-19.5 -83c-6.33301 -26 -12.333 -48.667 -18 -68s-10.5 -34.666 -14.5 -45.999
s-7 -17 -9 -17c-5.33301 0 -10.666 3.33301 -15.999 10s-10.166 14.667 -14.499 24s-7.83301 19 -10.5 29s-4 18.333 -4 25c1.33301 15.333 3.16602 31.333 5.49902 48s4.16602 32 5.49902 46l6 49h-4c-2.66699 1.33301 -6.33398 4.33301 -11.001 9l-14 14.5
c-4.66699 5 -8.66699 10 -12 15s-5 8.83301 -5 11.5c0 1.33301 4.83301 2.66602 14.5 3.99902s22.5 2.66602 38.5 3.99902l17 125c6 43.333 12 84 18 122s11.833 71.167 17.5 99.5s10.5 47.833 14.5 58.5c6.66699 18 18.334 34.167 35.001 48.5s34.167 26.333 52.5 36
s35.833 17.167 52.5 22.5s29 8 37 8c3.33301 0 7.16602 -7.5 11.499 -22.5s9 -35.167 14 -60.5s10.333 -54.833 16 -88.5s11.167 -69.167 16.5 -106.5s10.5 -75.5 15.5 -114.5l14.5 -111.5c33.333 0 51.666 -1 54.999 -3zM164.002 261.001
c21.333 1.33301 42.665 2.33301 63.998 3s42.333 1.66699 63 3l-18 87l-19 96c-7.33301 36.667 -14.666 77 -21.999 121l-24 -114.5l-22 -99.5c-7.33301 -34 -14.666 -66 -21.999 -96zM325.001 924.001c-8 -10 -17.5 -20.665 -28.5 -31.998l-32.5 -32.5
c-10.667 -10.333 -20.5 -19.333 -29.5 -27s-15.833 -12.5 -20.5 -14.5c-7.33301 -3.33301 -15.666 -2.33301 -24.999 3s-14.333 12.666 -15 21.999c0 2.66699 2.66699 9.16699 8 19.5s11.666 21.5 18.999 33.5l22 35c7.33301 11.333 13 19.333 17 24
c4.66699 5.33301 7.66699 9 9 11s3.66602 3.66699 6.99902 5c6 4 14 6.16699 24 6.5s20 -0.666992 30 -3s18.333 -5.83301 25 -10.5s9.33398 -9.33398 8.00098 -14.001c-0.666992 -2.66699 -3 -6.66699 -7 -12s-7.66699 -10 -11 -14z" />
    <glyph glyph-name="Acircumflex" unicode="&#xc2;" horiz-adv-x="461" 
d="M450 267c1.33301 -2 1.16797 -8.66602 -0.499023 -19.999s-4 -23.666 -7 -36.999s-6 -25.833 -9 -37.5s-5.5 -18.5 -7.5 -20.5h-10c-2 0 -4 0.333008 -6 1l8 -77c2 -19.333 3 -30 3 -32c0 -4.66699 -2.16699 -11.334 -6.5 -20.001s-9.16602 -16.667 -14.499 -24
s-10.833 -13.166 -16.5 -17.499s-9.5 -4.5 -11.5 -0.5c-3.33301 6 -10.333 24 -21 54s-22.667 71 -36 123l-41.5 4l-43.5 4c-14.667 1.33301 -29.167 3.16602 -43.5 5.49902l-41.5 6.5l-19.5 -83c-6.33301 -26 -12.333 -48.667 -18 -68s-10.5 -34.666 -14.5 -45.999
s-7 -17 -9 -17c-5.33301 0 -10.666 3.33301 -15.999 10s-10.166 14.667 -14.499 24s-7.83301 19 -10.5 29s-4 18.333 -4 25c1.33301 15.333 3.16602 31.333 5.49902 48s4.16602 32 5.49902 46l6 49h-4c-2.66699 1.33301 -6.33398 4.33301 -11.001 9l-14 14.5
c-4.66699 5 -8.66699 10 -12 15s-5 8.83301 -5 11.5c0 1.33301 4.83301 2.66602 14.5 3.99902s22.5 2.66602 38.5 3.99902l17 125c6 43.333 12 84 18 122s11.833 71.167 17.5 99.5s10.5 47.833 14.5 58.5c6.66699 18 18.334 34.167 35.001 48.5s34.167 26.333 52.5 36
s35.833 17.167 52.5 22.5s29 8 37 8c3.33301 0 7.16602 -7.5 11.499 -22.5s9 -35.167 14 -60.5s10.333 -54.833 16 -88.5s11.167 -69.167 16.5 -106.5s10.5 -75.5 15.5 -114.5l14.5 -111.5c33.333 0 51.666 -1 54.999 -3zM164.002 261.001
c21.333 1.33301 42.665 2.33301 63.998 3s42.333 1.66699 63 3l-18 87l-19 96c-7.33301 36.667 -14.666 77 -21.999 121l-24 -114.5l-22 -99.5c-7.33301 -34 -14.666 -66 -21.999 -96zM411.001 825.001c-1.33301 -1.33301 -5.16699 -2.49805 -11.5 -3.49805
s-13.833 -1.5 -22.5 -1.5s-17.167 0.5 -25.5 1.5s-14.5 3.16699 -18.5 6.5c-1.33301 1.33301 -4.66602 4.33301 -9.99902 9l-18.5 16.5l-22.5 20l-22 19.5l-23.5 -20l-23.5 -20.5l-19 -17c-5.33301 -5 -9 -7.83301 -11 -8.5c-6 -3.33301 -13.333 -5.5 -22 -6.5
s-17 -1.33301 -25 -1s-14.833 1.33301 -20.5 3s-8.83398 3.5 -9.50098 5.5c-1.33301 2.66699 2.83398 10 12.501 22s21 25 34 39s25.833 27 38.5 39s21.667 19.333 27 22c4 2 10.333 3.5 19 4.5s17.667 1.33301 27 1s17.833 -0.833008 25.5 -1.5
s12.5 -1.33398 14.5 -2.00098c3.33301 -2 8.33301 -6.33301 15 -13l22.5 -23c8.33301 -8.66699 16.666 -18 24.999 -28l23 -28c7 -8.66699 12.5 -16.334 16.5 -23.001s5.66699 -10.667 5 -12z" />
    <glyph glyph-name="Atilde" unicode="&#xc3;" horiz-adv-x="461" 
d="M450 267c1.33301 -2 1.16797 -8.66602 -0.499023 -19.999s-4 -23.666 -7 -36.999s-6 -25.833 -9 -37.5s-5.5 -18.5 -7.5 -20.5h-10c-2 0 -4 0.333008 -6 1l8 -77c2 -19.333 3 -30 3 -32c0 -4.66699 -2.16699 -11.334 -6.5 -20.001s-9.16602 -16.667 -14.499 -24
s-10.833 -13.166 -16.5 -17.499s-9.5 -4.5 -11.5 -0.5c-3.33301 6 -10.333 24 -21 54s-22.667 71 -36 123l-41.5 4l-43.5 4c-14.667 1.33301 -29.167 3.16602 -43.5 5.49902l-41.5 6.5l-19.5 -83c-6.33301 -26 -12.333 -48.667 -18 -68s-10.5 -34.666 -14.5 -45.999
s-7 -17 -9 -17c-5.33301 0 -10.666 3.33301 -15.999 10s-10.166 14.667 -14.499 24s-7.83301 19 -10.5 29s-4 18.333 -4 25c1.33301 15.333 3.16602 31.333 5.49902 48s4.16602 32 5.49902 46l6 49h-4c-2.66699 1.33301 -6.33398 4.33301 -11.001 9l-14 14.5
c-4.66699 5 -8.66699 10 -12 15s-5 8.83301 -5 11.5c0 1.33301 4.83301 2.66602 14.5 3.99902s22.5 2.66602 38.5 3.99902l17 125c6 43.333 12 84 18 122s11.833 71.167 17.5 99.5s10.5 47.833 14.5 58.5c6.66699 18 18.334 34.167 35.001 48.5s34.167 26.333 52.5 36
s35.833 17.167 52.5 22.5s29 8 37 8c3.33301 0 7.16602 -7.5 11.499 -22.5s9 -35.167 14 -60.5s10.333 -54.833 16 -88.5s11.167 -69.167 16.5 -106.5s10.5 -75.5 15.5 -114.5l14.5 -111.5c33.333 0 51.666 -1 54.999 -3zM164.002 261.001
c21.333 1.33301 42.665 2.33301 63.998 3s42.333 1.66699 63 3l-18 87l-19 96c-7.33301 36.667 -14.666 77 -21.999 121l-24 -114.5l-22 -99.5c-7.33301 -34 -14.666 -66 -21.999 -96zM380.001 915.001c3.33301 3.33301 8.00195 3.33398 14.002 0.000976562
s11.5 -8 16.5 -14s8.66699 -12.5 11 -19.5s2.16602 -12.167 -0.500977 -15.5s-8.16699 -9.16602 -16.5 -17.499l-27 -26c-9.66699 -9 -19.167 -16.833 -28.5 -23.5s-16.333 -10.334 -21 -11.001c-5.33301 -0.666992 -13.666 2.83301 -24.999 10.5l-36.5 25l-37 25
c-11.667 7.66699 -20.167 11.167 -25.5 10.5c-2.66699 0 -6.83398 -2.33301 -12.501 -7l-18.5 -15.5c-6.66699 -5.66699 -13 -11.334 -19 -17.001l-13 -12.5c-3.33301 -3.33301 -7.83301 -3.33301 -13.5 0s-11.167 7.66602 -16.5 12.999s-9.83301 11 -13.5 17
s-4.83398 10.333 -3.50098 13s6.33301 9 15 19s18.5 20.333 29.5 31s22 20.5 33 29.5s19.833 13.833 26.5 14.5c8 0.666992 18.667 -2.33301 32 -9s26.5 -14.167 39.5 -22.5l35.5 -23c10.667 -7 17.667 -10.5 21 -10.5c1.33301 0 4.33301 1.33301 9 4
s9.83398 5.83398 15.501 9.50098s11.167 7.5 16.5 11.5s9.66602 7.66699 12.999 11z" />
    <glyph glyph-name="Adieresis" unicode="&#xc4;" horiz-adv-x="461" 
d="M450 267c1.33301 -2 1.16797 -8.66602 -0.499023 -19.999s-4 -23.666 -7 -36.999s-6 -25.833 -9 -37.5s-5.5 -18.5 -7.5 -20.5h-10c-2 0 -4 0.333008 -6 1l8 -77c2 -19.333 3 -30 3 -32c0 -4.66699 -2.16699 -11.334 -6.5 -20.001s-9.16602 -16.667 -14.499 -24
s-10.833 -13.166 -16.5 -17.499s-9.5 -4.5 -11.5 -0.5c-3.33301 6 -10.333 24 -21 54s-22.667 71 -36 123l-41.5 4l-43.5 4c-14.667 1.33301 -29.167 3.16602 -43.5 5.49902l-41.5 6.5l-19.5 -83c-6.33301 -26 -12.333 -48.667 -18 -68s-10.5 -34.666 -14.5 -45.999
s-7 -17 -9 -17c-5.33301 0 -10.666 3.33301 -15.999 10s-10.166 14.667 -14.499 24s-7.83301 19 -10.5 29s-4 18.333 -4 25c1.33301 15.333 3.16602 31.333 5.49902 48s4.16602 32 5.49902 46l6 49h-4c-2.66699 1.33301 -6.33398 4.33301 -11.001 9l-14 14.5
c-4.66699 5 -8.66699 10 -12 15s-5 8.83301 -5 11.5c0 1.33301 4.83301 2.66602 14.5 3.99902s22.5 2.66602 38.5 3.99902l17 125c6 43.333 12 84 18 122s11.833 71.167 17.5 99.5s10.5 47.833 14.5 58.5c6.66699 18 18.334 34.167 35.001 48.5s34.167 26.333 52.5 36
s35.833 17.167 52.5 22.5s29 8 37 8c3.33301 0 7.16602 -7.5 11.499 -22.5s9 -35.167 14 -60.5s10.333 -54.833 16 -88.5s11.167 -69.167 16.5 -106.5s10.5 -75.5 15.5 -114.5l14.5 -111.5c33.333 0 51.666 -1 54.999 -3zM164.002 261.001
c21.333 1.33301 42.665 2.33301 63.998 3s42.333 1.66699 63 3l-18 87l-19 96c-7.33301 36.667 -14.666 77 -21.999 121l-24 -114.5l-22 -99.5c-7.33301 -34 -14.666 -66 -21.999 -96zM208.001 946.001c2 -5.33301 2.99805 -12.168 2.99805 -20.501s-1 -17.166 -3 -26.499
s-4.66699 -18.333 -8 -27s-6.66602 -15.667 -9.99902 -21c-3.33301 -4.66699 -7.5 -8.33398 -12.5 -11.001s-10.167 -4.5 -15.5 -5.5s-10.5 -1.66699 -15.5 -2s-8.83301 -0.166016 -11.5 0.500977c-4 0.666992 -8.16699 3.66699 -12.5 9s-8.16602 12 -11.499 20
s-5.66602 16.667 -6.99902 26s-1 18.333 1 27c2.66699 8 9 15.167 19 21.5s20.667 11.333 32 15s22.166 5.16699 32.499 4.5s16.833 -4 19.5 -10zM378.999 945.999c2 -5.33301 2.99902 -12.168 2.99902 -20.501s-1 -17.166 -3 -26.499s-4.66699 -18.333 -8 -27
s-6.66602 -15.667 -9.99902 -21c-3.33301 -4.66699 -7.33301 -8.33398 -12 -11.001s-9.83398 -4.5 -15.501 -5.5s-11 -1.66699 -16 -2s-8.83301 -0.166016 -11.5 0.500977c-4 0.666992 -8.16699 3.66699 -12.5 9s-8.16602 12 -11.499 20s-5.66602 16.667 -6.99902 26
s-1 18.333 1 27c2.66699 8 9 15.167 19 21.5s20.667 11.333 32 15s22.166 5.16699 32.499 4.5s16.833 -4 19.5 -10z" />
    <glyph glyph-name="Aring" unicode="&#xc5;" horiz-adv-x="461" 
d="M164 261c20.667 1.33301 41.8301 2.33301 63.4971 3s42.834 1.66699 63.501 3l-18 87l-19 96c-7.33301 36.667 -14.666 77 -21.999 121l-24 -114.5l-22 -99.5c-7.33301 -34 -14.666 -66 -21.999 -96zM126.996 890c3.33301 2 12.1738 5.16406 26.5068 9.49707
s30.5 8 48.5 11s36 4.66699 54 5s33 -2.5 45 -8.5c8 -4 15.667 -14.833 23 -32.5s12.833 -36.667 16.5 -57s5 -39.333 4 -57s-5.5 -28.834 -13.5 -33.501c-0.666992 0 -2.33398 -0.666992 -5.00098 -2c4.66699 -22.667 10 -51.667 16 -87l18.5 -114.5
c6.33301 -41 12.333 -83.5 18 -127.5l16.5 -126c33.333 0 51.666 -1 54.999 -3c1.33301 -2 1.16602 -8.66699 -0.500977 -20s-4 -23.666 -7 -36.999s-6 -25.833 -9 -37.5s-5.5 -18.5 -7.5 -20.5h-10c-2 0 -4 0.333008 -6 1c3.33301 -32 6.16602 -57.667 8.49902 -77
s3.5 -30 3.5 -32c0 -4.66699 -2.16699 -11.334 -6.5 -20.001s-9.33301 -16.667 -15 -24s-11.334 -13.166 -17.001 -17.499s-9.5 -4.5 -11.5 -0.5c-3.33301 6 -10.333 24 -21 54s-22.667 71 -36 123c-13.333 1.33301 -27.166 2.5 -41.499 3.5s-28.833 2.5 -43.5 4.5
c-14.667 1.33301 -29.167 3.16602 -43.5 5.49902l-41.5 6.5l-19.5 -83c-6.33301 -26 -12.333 -48.667 -18 -68s-10.5 -34.666 -14.5 -45.999s-7 -17 -9 -17c-5.33301 0 -10.666 3.33301 -15.999 10s-10.166 14.667 -14.499 24s-7.83301 19 -10.5 29s-4 18.333 -4 25
c1.33301 15.333 3.16602 31.333 5.49902 48s4.16602 32 5.49902 46l6 49h-4c-2.66699 1.33301 -6.33398 4.33301 -11.001 9s-9.33398 9.66699 -14.001 15s-8.66699 10.5 -12 15.5s-5 8.83301 -5 11.5c0 1.33301 4.83301 2.5 14.5 3.5s22.5 2.16699 38.5 3.5l17 125
c6 43.333 12 84 18 122s11.833 71.333 17.5 100s10.5 48.334 14.5 59.001c5.33301 13.333 13 25.333 23 36s21.333 20.334 34 29.001c-20.667 5.33301 -36 12 -46 20c-8 8 -13.833 19.5 -17.5 34.5s-5.83398 30.333 -6.50098 46s0 29.834 2 42.501s4.66699 20 8 22z
M266.004 768.997c4 0.666992 6.66699 3.00098 8 7.00098s2 8.5 2 13.5s-0.166992 10.333 -0.5 16s-0.5 10.834 -0.5 15.501c0 12.667 -1.66699 22.5 -5 29.5s-7 12.167 -11 15.5c-4.66699 4 -9.66699 6.33301 -15 7c-14.667 -0.666992 -25.667 -2.33398 -33 -5.00098
c-4 -1.33301 -7 -2.66602 -9 -3.99902c-2.66699 -2 -5.33398 -6.33301 -8.00098 -13s-5 -14.334 -7 -23.001s-3.5 -17.334 -4.5 -26.001s-0.833008 -15.334 0.5 -20.001c0.666992 -4.66699 4.83398 -8.16699 12.501 -10.5s16.167 -3.83301 25.5 -4.5s18.333 -0.666992 27 0
s14.667 1.33398 18 2.00098z" />
    <glyph glyph-name="AE" unicode="&#xc6;" horiz-adv-x="634" 
d="M620 573c-3.33301 -3.33301 -19.8262 -3.66895 -49.4932 -1.00195l-141.5 13c0 -22 0.166992 -49 0.5 -81s0.166016 -66.333 -0.500977 -103c50 -4.66699 89 -9 117 -13s42.667 -6.66699 44 -8c2.66699 -2.66699 3.66699 -8.16699 3 -16.5s-2.5 -17.5 -5.5 -27.5
s-6.5 -19.5 -10.5 -28.5s-8 -14.833 -12 -17.5c-2.66699 -1.33301 -15.5 -3.16602 -38.5 -5.49902s-55.5 -4.5 -97.5 -6.5c0 -12 0.333008 -26 1 -42c0.666992 -13.333 1.16699 -30.166 1.5 -50.499s1.16602 -43.5 2.49902 -69.5c44 -1.33301 78.333 -2.5 103 -3.5
s42.667 -2.16699 54 -3.5c13.333 -1.33301 21.666 -2.33301 24.999 -3c3.33301 -3.33301 3.83301 -9.66602 1.5 -18.999s-6 -19.166 -11 -29.499s-10.333 -20.5 -16 -30.5s-10.167 -17 -13.5 -21c-2 -1.33301 -10.333 -1.66602 -25 -0.999023s-31 1.66699 -49 3l-52 4
c-16.667 1.33301 -27.334 2.66602 -32.001 3.99902c-16.667 3.33301 -30 8.5 -40 15.5s-18.167 16.167 -24.5 27.5s-11.166 24.833 -14.499 40.5s-7 34.167 -11 55.5l-64 4.5c-23.333 1.66699 -46.666 4.16699 -69.999 7.5c-6.66699 0.666992 -13 1.33398 -19 2.00098
s-12.333 1.66699 -19 3l-32.5 -80.5l-28 -65.5c-8.33301 -18.667 -15.5 -33.5 -21.5 -44.5s-10 -16.5 -12 -16.5c-5.33301 0 -10.166 3.33301 -14.499 10s-7.83301 14.667 -10.5 24s-4.5 19 -5.5 29s-0.833008 18.333 0.5 25c3.33301 14 7.16602 28.667 11.499 44l12.5 43
l14 45c-6 1.33301 -12.333 2.66602 -19 3.99902c-5.33301 1.33301 -11.333 2.5 -18 3.5s-12.667 2.16699 -18 3.5c-2.66699 1.33301 -6.33398 4.33301 -11.001 9l-14 14.5c-4.66699 5 -8.66699 10 -12 15s-5 8.83301 -5 11.5c0 2 11.333 4.16699 34 6.5s50.667 4.5 84 6.5
l37.5 124l37.5 120c12 37.333 23 70.166 33 98.499s18 47.5 24 57.5c10 18 24.167 34.167 42.5 48.5s37.166 26.333 56.499 36s37.333 17.167 54 22.5s29 8 37 8c2.66699 0 4.66699 -5 6 -15s2.66602 -23.667 3.99902 -41c22.667 0 46 -0.333008 70 -1
s46.167 -1.83398 66.5 -3.50098s37.166 -3.5 50.499 -5.5s21 -4 23 -6c2.66699 -3.33301 4.16699 -11 4.5 -23s-0.333984 -25.167 -2.00098 -39.5s-4 -28 -7 -41s-6.16699 -21.5 -9.5 -25.5zM195.007 263.997c22 1.33301 43.666 2.33105 64.999 2.99805
s41 1.33398 59 2.00098c-1.33301 26 -2.33301 55 -3 87c-1.33301 27.333 -2.16602 59.333 -2.49902 96s-0.833008 76.334 -1.5 119.001l-42.5 -112.5l-37.5 -98.5z" />
    <glyph glyph-name="Ccedilla" unicode="&#xc7;" horiz-adv-x="379" 
d="M295 -95c4.66699 -9.33301 7.49512 -22.0156 8.49512 -38.0156s0.333008 -32.167 -2 -48.5s-6 -31.166 -11 -44.499s-11.167 -22 -18.5 -26c-7.33301 -3.33301 -19.833 -3.66602 -37.5 -0.999023s-36.167 6.83398 -55.5 12.501s-37 11.834 -53 18.501s-26 12 -30 16
c-4 4.66699 -7.83301 11.334 -11.5 20.001s-6.83398 17.334 -9.50098 26.001s-4.16699 16.5 -4.5 23.5s0.833984 11.167 3.50098 12.5s11.167 -1.16699 25.5 -7.5l47 -21.5c17 -8 33.167 -15 48.5 -21s25 -8 29 -6c2 0.666992 3.66699 3 5 7s2.16602 8.16699 2.49902 12.5
s0.166016 8.83301 -0.500977 13.5s-1.66699 8.33398 -3 11.001s-4.83301 5.5 -10.5 8.5s-12.834 6.16699 -21.501 9.5s-18 6.66602 -28 9.99902l-29 10c-2 0.666992 -4.33301 2.83398 -7 6.50098s-5 7.83398 -7 12.501s-3.5 9.66699 -4.5 15s-0.833008 10 0.5 14
c1.33301 3.33301 4.16602 8.16602 8.49902 14.499l15 21l17 22l14.5 18.5c-18.667 11.333 -35.5 22.666 -50.5 33.999s-23.833 20 -26.5 26c-3.33301 6 -8.16602 20.5 -14.499 43.5s-12.666 50.833 -18.999 83.5s-12 68.834 -17 108.501s-7.5 79.5 -7.5 119.5
s0.166992 79.333 0.5 118s1.83301 73.334 4.5 104.001s6.66699 55.5 12 74.5s12.666 29.167 21.999 30.5c18.667 2 39 0.833008 61 -3.5s44 -10.833 66 -19.5s43.167 -18.5 63.5 -29.5s38.5 -22.333 54.5 -34s28.833 -22.834 38.5 -33.501s14.834 -19.667 15.501 -27
c0.666992 -11.333 -0.666016 -24.166 -3.99902 -38.499s-7.33301 -28 -12 -41s-9.5 -24.5 -14.5 -34.5s-8.83301 -17 -11.5 -21c-3.33301 -4.66699 -7.33301 -9.66699 -12 -15s-9.5 -10 -14.5 -14s-10 -6.83301 -15 -8.5s-9.5 -0.833984 -13.5 2.49902
c-2.66699 2 -5.33398 8.33301 -8.00098 19s-5 23.334 -7 38.001l-6.5 47.5c-2.33301 17 -4.16602 32.833 -5.49902 47.5s-2.66602 27 -3.99902 37s-2.33301 15.667 -3 17c-1.33301 2 -3.5 4 -6.5 6s-6.5 3.66699 -10.5 5s-7.83301 1.83301 -11.5 1.5
s-6.5 -1.83301 -8.5 -4.5c-2 -3.33301 -5.5 -15.833 -10.5 -37.5s-10.167 -48.5 -15.5 -80.5s-10 -67.667 -14 -107s-6 -78.333 -6 -117c0 -28 0.833008 -57.167 2.5 -87.5s4.16699 -58.166 7.5 -83.499s7 -46.166 11 -62.499s8.66699 -24.5 14 -24.5
c4.66699 -0.666992 10.834 4.33301 18.501 15s15.167 22.834 22.5 36.501s14.166 27 20.499 40s10.5 21.833 12.5 26.5l11.5 24.5c4.33301 9 8.83301 17.333 13.5 25s9.33398 14 14.001 19s9 7.5 13 7.5s7.33301 -4 10 -12s4.83398 -17.5 6.50098 -28.5
s2.83398 -22.333 3.50098 -34s1 -21.167 1 -28.5c0 -13.333 -2.5 -30 -7.5 -50s-11.333 -39.333 -19 -58s-16 -34.667 -25 -48s-17.5 -19.666 -25.5 -18.999c-4.66699 0.666992 -10.667 2.33398 -18 5.00098s-15.666 6.33398 -24.999 11.001
c-1.33301 -3.33301 -3.66602 -7.66602 -6.99902 -12.999s-7.66602 -12.666 -12.999 -21.999c20.667 -9.33301 39.167 -18.833 55.5 -28.5s27.166 -19.167 32.499 -28.5z" />
    <glyph glyph-name="Egrave" unicode="&#xc8;" horiz-adv-x="349" 
d="M335 573c-2.66699 -3.33301 -19 -3.66797 -49 -1.00098l-142 13c0 -22 0.166992 -49 0.5 -81s0.166016 -66.333 -0.500977 -103c50 -4.66699 89 -9 117 -13s42.667 -6.66699 44 -8c2.66699 -2.66699 3.66699 -8.16699 3 -16.5s-2.33398 -17.5 -5.00098 -27.5
s-6 -19.5 -10 -28.5s-8 -14.833 -12 -17.5c-3.33301 -1.33301 -16.5 -3.16602 -39.5 -5.49902s-55.5 -4.5 -97.5 -6.5c0 -28.667 -0.166992 -57 -0.5 -85s-0.833008 -53.667 -1.5 -77c64.667 -0.666992 111.834 -1.83398 141.501 -3.50098s45.834 -3.83398 48.501 -6.50098
c2.66699 -3.33301 2.83398 -9.66602 0.500977 -18.999s-6 -19.166 -11 -29.499s-10.333 -20.5 -16 -30.5s-10.167 -17 -13.5 -21c-1.33301 -1.33301 -9.33301 -1.83301 -24 -1.5s-31 1.16602 -49 2.49902s-35.333 2.83301 -52 4.5s-27.667 3.16699 -33 4.5
c-10 3.33301 -20.667 8.83301 -32 16.5s-20.333 17.5 -27 29.5c-1.33301 3.33301 -3.5 14.5 -6.5 33.5s-6.16699 43.167 -9.5 72.5s-6.66602 62.333 -9.99902 99l-10 112c-3.33301 38 -6.33301 75.333 -9 112s-4.83398 69.834 -6.50098 99.501s-2.5 54.334 -2.5 74.001
s1 31.5 3 35.5c2 5.33301 11.333 9.33301 28 12s36.667 4.5 60 5.5s48.5 1.16699 75.5 0.5s52.167 -1.83398 75.5 -3.50098s43 -3.66699 59 -6s25 -4.5 27 -6.5c2.66699 -3.33301 4.16699 -11 4.5 -23s-0.333984 -25.167 -2.00098 -39.5s-4 -28 -7 -41
s-6.16699 -21.5 -9.5 -25.5zM112 882.998c-3.33301 4 -6.83594 8.66797 -10.5029 14.001s-5.83398 9.33301 -6.50098 12c-1.33301 4.66699 1.33398 9.33398 8.00098 14.001s14.834 8.16699 24.501 10.5s19.667 3.33301 30 3s18.5 -2.5 24.5 -6.5
c2.66699 -1.33301 4.66699 -3 6 -5s4.33301 -5.66699 9 -11c4 -4.66699 9.66699 -12.667 17 -24l22 -35c7.33301 -12 13.833 -23.167 19.5 -33.5s8.5 -16.833 8.5 -19.5c0 -4.66699 -1.5 -8.83398 -4.5 -12.501s-6.66699 -6.66699 -11 -9s-8.66602 -3.83301 -12.999 -4.5
s-8.16602 -0.333984 -11.499 0.999023c-5.33301 2 -12.5 6.83301 -21.5 14.5s-18.833 16.667 -29.5 27l-32.5 32.5c-11 11.333 -20.5 22 -28.5 32z" />
    <glyph glyph-name="Eacute" unicode="&#xc9;" horiz-adv-x="349" 
d="M335 573c-2.66699 -3.33301 -19 -3.66797 -49 -1.00098l-142 13c0 -22 0.166992 -49 0.5 -81s0.166016 -66.333 -0.500977 -103c50 -4.66699 89 -9 117 -13s42.667 -6.66699 44 -8c2.66699 -2.66699 3.66699 -8.16699 3 -16.5s-2.33398 -17.5 -5.00098 -27.5
s-6 -19.5 -10 -28.5s-8 -14.833 -12 -17.5c-3.33301 -1.33301 -16.5 -3.16602 -39.5 -5.49902s-55.5 -4.5 -97.5 -6.5c0 -28.667 -0.166992 -57 -0.5 -85s-0.833008 -53.667 -1.5 -77c64.667 -0.666992 111.834 -1.83398 141.501 -3.50098s45.834 -3.83398 48.501 -6.50098
c2.66699 -3.33301 2.83398 -9.66602 0.500977 -18.999s-6 -19.166 -11 -29.499s-10.333 -20.5 -16 -30.5s-10.167 -17 -13.5 -21c-1.33301 -1.33301 -9.33301 -1.83301 -24 -1.5s-31 1.16602 -49 2.49902s-35.333 2.83301 -52 4.5s-27.667 3.16699 -33 4.5
c-10 3.33301 -20.667 8.83301 -32 16.5s-20.333 17.5 -27 29.5c-1.33301 3.33301 -3.5 14.5 -6.5 33.5s-6.16699 43.167 -9.5 72.5s-6.66602 62.333 -9.99902 99l-10 112c-3.33301 38 -6.33301 75.333 -9 112s-4.83398 69.834 -6.50098 99.501s-2.5 54.334 -2.5 74.001
s1 31.5 3 35.5c2 5.33301 11.333 9.33301 28 12s36.667 4.5 60 5.5s48.5 1.16699 75.5 0.5s52.167 -1.83398 75.5 -3.50098s43 -3.66699 59 -6s25 -4.5 27 -6.5c2.66699 -3.33301 4.16699 -11 4.5 -23s-0.333984 -25.167 -2.00098 -39.5s-4 -28 -7 -41
s-6.16699 -21.5 -9.5 -25.5zM295 892.998c-8 -10 -17.5 -20.665 -28.5 -31.998l-32.5 -32.5c-10.667 -10.333 -20.5 -19.333 -29.5 -27s-15.833 -12.5 -20.5 -14.5c-7.33301 -3.33301 -15.666 -2.33301 -24.999 3s-14.333 12.666 -15 21.999
c0 2.66699 2.66699 9.16699 8 19.5s11.666 21.5 18.999 33.5l22 35c7.33301 11.333 13 19.333 17 24c4.66699 5.33301 7.66699 9 9 11s3.66602 3.66699 6.99902 5c6 4 14 6.16699 24 6.5s20 -0.666992 30 -3s18.333 -5.83301 25 -10.5s9.33398 -9.33398 8.00098 -14.001
c-0.666992 -2.66699 -3 -6.66699 -7 -12s-7.66699 -10 -11 -14z" />
    <glyph glyph-name="Ecircumflex" unicode="&#xca;" horiz-adv-x="349" 
d="M335 573c-2.66699 -3.33301 -19 -3.66797 -49 -1.00098l-142 13c0 -22 0.166992 -49 0.5 -81s0.166016 -66.333 -0.500977 -103c50 -4.66699 89 -9 117 -13s42.667 -6.66699 44 -8c2.66699 -2.66699 3.66699 -8.16699 3 -16.5s-2.33398 -17.5 -5.00098 -27.5
s-6 -19.5 -10 -28.5s-8 -14.833 -12 -17.5c-3.33301 -1.33301 -16.5 -3.16602 -39.5 -5.49902s-55.5 -4.5 -97.5 -6.5c0 -28.667 -0.166992 -57 -0.5 -85s-0.833008 -53.667 -1.5 -77c64.667 -0.666992 111.834 -1.83398 141.501 -3.50098s45.834 -3.83398 48.501 -6.50098
c2.66699 -3.33301 2.83398 -9.66602 0.500977 -18.999s-6 -19.166 -11 -29.499s-10.333 -20.5 -16 -30.5s-10.167 -17 -13.5 -21c-1.33301 -1.33301 -9.33301 -1.83301 -24 -1.5s-31 1.16602 -49 2.49902s-35.333 2.83301 -52 4.5s-27.667 3.16699 -33 4.5
c-10 3.33301 -20.667 8.83301 -32 16.5s-20.333 17.5 -27 29.5c-1.33301 3.33301 -3.5 14.5 -6.5 33.5s-6.16699 43.167 -9.5 72.5s-6.66602 62.333 -9.99902 99l-10 112c-3.33301 38 -6.33301 75.333 -9 112s-4.83398 69.834 -6.50098 99.501s-2.5 54.334 -2.5 74.001
s1 31.5 3 35.5c2 5.33301 11.333 9.33301 28 12s36.667 4.5 60 5.5s48.5 1.16699 75.5 0.5s52.167 -1.83398 75.5 -3.50098s43 -3.66699 59 -6s25 -4.5 27 -6.5c2.66699 -3.33301 4.16699 -11 4.5 -23s-0.333984 -25.167 -2.00098 -39.5s-4 -28 -7 -41
s-6.16699 -21.5 -9.5 -25.5zM341 813.998c-1.33301 -1.33301 -5.16699 -2.49805 -11.5 -3.49805s-13.833 -1.5 -22.5 -1.5s-17.167 0.5 -25.5 1.5s-14.5 3.16699 -18.5 6.5c-1.33301 1.33301 -4.66602 4.33301 -9.99902 9l-18.5 16.5l-22.5 20l-22 19.5l-23.5 -20
l-23.5 -20.5l-19 -17c-5.33301 -5 -9 -7.83301 -11 -8.5c-6 -3.33301 -13.333 -5.5 -22 -6.5s-17 -1.33301 -25 -1s-14.833 1.33301 -20.5 3s-8.83398 3.5 -9.50098 5.5c-1.33301 2.66699 2.83398 10 12.501 22s21 25 34 39s25.833 27 38.5 39s21.667 19.333 27 22
c4 2 10.333 3.5 19 4.5s17.667 1.33301 27 1s17.833 -0.833008 25.5 -1.5s12.5 -1.33398 14.5 -2.00098c3.33301 -2 8.33301 -6.33301 15 -13l22.5 -23c8.33301 -8.66699 16.666 -18 24.999 -28l23 -28c7 -8.66699 12.5 -16.334 16.5 -23.001s5.66699 -10.667 5 -12z" />
    </font>
</defs>
</svg>
