<?xml version="1.0" encoding="utf-8"?>
<!-- Generator: Adobe Illustrator 18.1.1, SVG Export Plug-In . SVG Version: 6.00 Build 0)  -->
<svg version="1.1" id="Layer_1" xmlns="http://www.w3.org/2000/svg" xmlns:xlink="http://www.w3.org/1999/xlink" x="0px" y="0px"
	 viewBox="0 0 100 100" enable-background="new 0 0 100 100" xml:space="preserve">
<circle fill="#F4F4F4" cx="50" cy="50" r="50"/>
<g id="d35fdcc2-0cb5-447e-b0c4-e1a5a18c1b9c.psd">
	<g id="lab">
		<g>
			<path fill="#D4D4D4" d="M47.9,28.2c0.9,0,1.6-0.7,1.6-1.6c0-0.9-0.7-1.6-1.6-1.6c-0.9,0-1.6,0.7-1.6,1.6
				C46.3,27.5,47,28.2,47.9,28.2z M53.1,34.8c1.5,0,2.8-1.2,2.8-2.8c0-1.5-1.2-2.8-2.8-2.8c-1.5,0-2.8,1.2-2.8,2.8
				C50.3,33.6,51.5,34.8,53.1,34.8z M46,36.5c1.3,0,2.3-1,2.3-2.3c0-1.3-1-2.3-2.3-2.3c-1.3,0-2.3,1-2.3,2.3
				C43.7,35.4,44.7,36.5,46,36.5z M67.8,70.9L58,55.2c-0.9-1.5-1.7-4.1-1.7-5.9V41h-1.6v8.4c0,2,0.9,5,1.9,6.7l3.4,5.5
				c-6.6,2.7-13.2-1.8-19.9-0.5l3.1-5c1.1-1.7,1.9-4.7,1.9-6.7V41h-1.6v8.4c0,1.7-0.8,4.4-1.7,5.9l-9.8,15.6c-0.6,1-0.8,2.1-0.3,2.9
				c0.4,0.8,1.4,1.3,2.6,1.3h31.1c1.2,0,2.1-0.5,2.6-1.3C68.6,72.9,68.5,71.9,67.8,70.9z M48.3,57.5c0,0.9,0.7,1.6,1.6,1.6
				c0.9,0,1.6-0.7,1.6-1.6c0-0.9-0.7-1.6-1.6-1.6C49,56,48.3,56.7,48.3,57.5z M58.5,39.4h-17V41h17V39.4z"/>
		</g>
	</g>
</g>
</svg>
