<?xml version="1.0" encoding="utf-8"?>
<!-- Generator: Adobe Illustrator 25.2.1, SVG Export Plug-In . SVG Version: 6.00 Build 0)  -->
<svg version="1.1" id="Layer_1" xmlns="http://www.w3.org/2000/svg" xmlns:xlink="http://www.w3.org/1999/xlink" x="0px" y="0px"
	 viewBox="0 0 150 56" style="enable-background:new 0 0 150 56;" xml:space="preserve">
<style type="text/css">
	.st0{fill:#231F20;}
</style>
<g>
	<path class="st0" d="M12.78,2.34c5.11,0,6.44,2.07,5.65,6.52l-1.06,5.95c-0.76,4.46-2.83,6.55-7.94,6.55H3.37
		c-0.52,0-0.76-0.3-0.68-0.82L5.76,3.18c0.08-0.54,0.41-0.82,0.95-0.84C6.71,2.34,12.78,2.34,12.78,2.34z M10.33,16.69
		c1.3,0,2.01-0.22,2.28-1.85c0-0.03,1.06-5.95,1.06-5.98c0.3-1.69-0.33-1.85-1.63-1.85h-1.47c-0.52,0-0.87,0.27-0.95,0.82
		l-1.41,8.05C8.1,16.4,8.35,16.7,8.86,16.7h1.47V16.69z"/>
	<path class="st0" d="M32.02,20.44c-0.11,0.6-0.43,0.92-0.98,0.92H28c-0.52,0-0.76-0.27-0.68-0.82l0.43-2.36
		c0.08-0.54-0.14-0.82-0.68-0.82h-2.34c-0.52,0-0.87,0.27-0.95,0.82l-0.43,2.36c-0.08,0.54-0.41,0.82-0.95,0.82h-3.04
		c-0.52,0-0.76-0.33-0.65-0.92l2.04-11.52c0.6-3.42,1.79-7.07,7.91-7.07s6.01,3.64,5.41,7.07L32.02,20.44z M29.38,8.91
		c0.22-1.3,0.14-1.96-1.66-1.96c-1.79,0-2.09,0.65-2.31,1.96l-0.52,2.96c-0.11,0.52,0.14,0.82,0.65,0.82h2.34
		c0.54-0.03,0.87-0.3,0.98-0.84L29.38,8.91z"/>
	<path class="st0" d="M42.59,2.34c0.46,0,0.73,0.19,0.84,0.62l2.12,9.05c0.05,0.24,0.27,0.19,0.33-0.08l1.55-8.78
		c0.11-0.54,0.43-0.82,0.95-0.82h3.04c0.54,0,0.79,0.27,0.68,0.82l-3.07,17.4c-0.08,0.52-0.41,0.82-0.95,0.82h-4
		c-0.46,0-0.73-0.19-0.84-0.63l-2.09-9.05c-0.08-0.24-0.3-0.19-0.35,0.08l-1.55,8.78c-0.08,0.52-0.41,0.82-0.95,0.82h-3.04
		c-0.52,0-0.76-0.3-0.68-0.82l3.07-17.4c0.11-0.54,0.43-0.82,0.95-0.82h3.99V2.34z"/>
	<path class="st0" d="M58.76,2.34c0.54,0,0.79,0.27,0.68,0.82l-3.07,17.4c-0.08,0.52-0.41,0.82-0.95,0.82h-2.99
		c-0.52,0-0.76-0.3-0.68-0.82l3.07-17.4c0.11-0.54,0.43-0.82,0.95-0.82H58.76z"/>
	<path class="st0" d="M74.52,2.34c0.54,0,0.79,0.27,0.68,0.82L74.66,6.2c-0.08,0.52-0.41,0.82-0.95,0.82h-6.58
		c-0.52,0-0.87,0.27-0.95,0.82L66.02,8.7c-0.08,0.52,0.16,0.82,0.68,0.82h4.21c0.54,0,0.76,0.27,0.68,0.82l-0.54,3.04
		c-0.11,0.52-0.41,0.82-0.95,0.82h-4.21c-0.52,0-0.87,0.27-0.98,0.82l-0.14,0.87c-0.11,0.52,0.14,0.82,0.65,0.82H72
		c0.54,0,0.79,0.27,0.68,0.82l-0.54,3.04c-0.08,0.54-0.41,0.82-0.95,0.82H59.76c-0.52,0-0.76-0.3-0.68-0.82l3.07-17.4
		c0.11-0.54,0.43-0.82,0.95-0.82h11.42V2.34z"/>
	<path class="st0" d="M81.29,2.34c0.54,0,0.79,0.27,0.68,0.82l-2.23,12.72c-0.11,0.52,0.14,0.82,0.65,0.82h6.06
		c0.54,0,0.79,0.27,0.68,0.82l-0.54,3.04c-0.08,0.54-0.41,0.82-0.95,0.82H74.9c-0.52,0-0.76-0.3-0.68-0.82l3.07-17.4
		c0.11-0.54,0.43-0.82,0.95-0.82C78.24,2.34,81.29,2.34,81.29,2.34z"/>
</g>
<g>
	<path class="st0" d="M35.17,43.88c0.3,0.54-0.03,0.98-0.68,0.98h-4.08c-0.43,0-0.71-0.16-0.87-0.54l-2.47-5.16
		c-0.08-0.16-0.24-0.16-0.38,0l-1.39,1.52c-0.11,0.11-0.14,0.22-0.16,0.35l-0.54,3.02c-0.08,0.52-0.41,0.82-0.95,0.82h-3.1
		c-0.52,0-0.76-0.3-0.68-0.82l3.07-17.4c0.11-0.54,0.43-0.82,0.95-0.82h3.1c0.54,0,0.79,0.27,0.68,0.82l-0.95,5.46
		c-0.05,0.27,0.14,0.33,0.3,0.11l5.3-5.87c0.3-0.35,0.63-0.52,1.06-0.52h4.02c0.68,0,0.84,0.43,0.35,1.01l-6.82,7.56
		c-0.11,0.14-0.16,0.24-0.08,0.38L35.17,43.88z"/>
	<path class="st0" d="M52.24,25.83c0.54,0,0.79,0.27,0.68,0.82l-0.54,3.04c-0.08,0.52-0.41,0.82-0.95,0.82h-6.58
		c-0.52,0-0.87,0.27-0.95,0.82l-0.16,0.87c-0.09,0.51,0.15,0.8,0.67,0.8h4.21c0.54,0,0.76,0.27,0.68,0.82l-0.54,3.04
		c-0.11,0.52-0.41,0.82-0.95,0.82H43.6c-0.52,0-0.87,0.27-0.98,0.82l-0.14,0.87c-0.11,0.52,0.14,0.82,0.65,0.82h6.58
		c0.54,0,0.79,0.27,0.68,0.82l-0.54,3.04c-0.08,0.54-0.41,0.82-0.95,0.82H37.48c-0.52,0-0.76-0.3-0.68-0.82l3.07-17.4
		c0.11-0.54,0.43-0.82,0.95-0.82H52.24z"/>
	<path class="st0" d="M59.96,25.83c0.46,0,0.73,0.19,0.84,0.62l2.12,9.05c0.05,0.24,0.27,0.19,0.33-0.08l1.55-8.78
		c0.11-0.54,0.43-0.82,0.95-0.82h3.04c0.54,0,0.79,0.27,0.68,0.82l-3.07,17.4c-0.08,0.52-0.41,0.82-0.95,0.82h-4
		c-0.46,0-0.73-0.19-0.84-0.63l-2.09-9.05c-0.08-0.24-0.3-0.19-0.35,0.08l-1.55,8.78c-0.08,0.52-0.41,0.82-0.95,0.82h-3.04
		c-0.52,0-0.76-0.3-0.68-0.82l3.07-17.4c0.11-0.54,0.43-0.82,0.95-0.82L59.96,25.83L59.96,25.83z"/>
	<path class="st0" d="M82.32,43.93c-0.11,0.6-0.43,0.92-0.98,0.92H78.3c-0.52,0-0.76-0.27-0.68-0.82l0.43-2.36
		c0.08-0.54-0.14-0.82-0.68-0.82h-2.34c-0.52,0-0.87,0.27-0.95,0.82l-0.43,2.36c-0.08,0.54-0.41,0.82-0.95,0.82h-3.04
		c-0.52,0-0.76-0.33-0.65-0.92l2.04-11.52c0.6-3.42,1.79-7.07,7.91-7.07c6.12,0,6.01,3.64,5.41,7.07L82.32,43.93z M79.69,32.41
		c0.22-1.3,0.14-1.96-1.66-1.96c-1.79,0-2.09,0.65-2.31,1.96l-0.52,2.96c-0.11,0.52,0.14,0.82,0.65,0.82h2.34
		c0.54-0.03,0.87-0.3,0.98-0.84L79.69,32.41z"/>
	<path class="st0" d="M100.59,25.83c0.54,0,0.79,0.27,0.68,0.82l-0.54,3.04c-0.08,0.52-0.41,0.82-0.95,0.82h-6.85
		c-0.52,0-0.87,0.27-0.95,0.82l-0.16,0.87c-0.09,0.51,0.15,0.8,0.67,0.8h4.48c0.54,0,0.76,0.27,0.68,0.82l-0.54,3.04
		c-0.11,0.52-0.41,0.82-0.95,0.82h-4.48c-0.52,0-0.87,0.27-0.98,0.82l-0.98,5.55c-0.08,0.52-0.41,0.82-0.95,0.82h-3.21
		c-0.52,0-0.76-0.3-0.68-0.82l3.07-17.4c0.11-0.54,0.43-0.82,0.95-0.82H100.59z"/>
	<path class="st0" d="M112.63,43.93c-0.11,0.6-0.43,0.92-0.98,0.92h-3.04c-0.52,0-0.76-0.27-0.68-0.82l0.43-2.36
		c0.08-0.54-0.14-0.82-0.68-0.82h-2.34c-0.52,0-0.87,0.27-0.95,0.82l-0.43,2.36c-0.08,0.54-0.41,0.82-0.95,0.82h-3.04
		c-0.52,0-0.76-0.33-0.65-0.92l2.04-11.52c0.6-3.42,1.79-7.07,7.91-7.07s6.01,3.64,5.41,7.07L112.63,43.93z M109.99,32.41
		c0.22-1.3,0.14-1.96-1.66-1.96c-1.79,0-2.09,0.65-2.31,1.96l-0.52,2.96c-0.11,0.52,0.14,0.82,0.65,0.82h2.34
		c0.54-0.03,0.87-0.3,0.98-0.84L109.99,32.41z"/>
	<path class="st0" d="M130.48,43.88c0.3,0.54-0.03,0.98-0.68,0.98h-4.08c-0.43,0-0.71-0.16-0.87-0.54l-2.47-5.16
		c-0.08-0.16-0.24-0.16-0.38,0l-1.39,1.52c-0.11,0.11-0.14,0.22-0.16,0.35l-0.54,3.02c-0.08,0.52-0.41,0.82-0.95,0.82h-3.1
		c-0.52,0-0.76-0.3-0.68-0.82l3.07-17.4c0.11-0.54,0.43-0.82,0.95-0.82h3.1c0.54,0,0.79,0.27,0.68,0.82l-0.95,5.46
		c-0.05,0.27,0.14,0.33,0.3,0.11l5.3-5.87c0.3-0.35,0.63-0.52,1.06-0.52h4.02c0.68,0,0.84,0.43,0.35,1.01l-6.82,7.56
		c-0.11,0.14-0.16,0.24-0.08,0.38L130.48,43.88z"/>
	<path class="st0" d="M147.55,25.83c0.54,0,0.79,0.27,0.68,0.82l-0.54,3.04c-0.08,0.52-0.41,0.82-0.95,0.82h-6.58
		c-0.52,0-0.87,0.27-0.95,0.82l-0.16,0.87c-0.08,0.52,0.16,0.82,0.68,0.82h4.21c0.54,0,0.76,0.27,0.68,0.82l-0.54,3.04
		c-0.11,0.52-0.41,0.82-0.95,0.82h-4.21c-0.52,0-0.87,0.27-0.98,0.82l-0.14,0.87c-0.11,0.52,0.14,0.82,0.65,0.82h6.58
		c0.54,0,0.79,0.27,0.68,0.82l-0.54,3.04c-0.08,0.54-0.41,0.82-0.95,0.82H132.8c-0.52,0-0.76-0.3-0.68-0.82l3.07-17.4
		c0.11-0.54,0.43-0.82,0.95-0.82h11.41V25.83z"/>
</g>
</svg>
